<?xml version="1.0" encoding="UTF-8" standalone="no"?>
<!DOCTYPE svg PUBLIC "-//W3C//DTD SVG 1.1//EN" "http://www.w3.org/Graphics/SVG/1.1/DTD/svg11.dtd">
<svg xmlns="http://www.w3.org/2000/svg" version="1.1" viewBox="0.00 0.00 352.00 348.00">
<g stroke-width="2.00" fill="none" stroke-linecap="butt">
<path stroke="#6a6e74" vector-effect="non-scaling-stroke" d="
  M 41.56 37.14
  L 36.18 39.23
  A 0.53 0.53 0.0 0 0 35.88 39.92
  C 39.80 49.89 41.74 60.50 45.30 70.46
  Q 45.96 72.29 46.46 70.41
  L 50.34 55.85
  A 1.80 1.79 8.6 0 1 52.15 54.52
  Q 53.09 54.57 53.82 54.33"
/>
<path stroke="#808d94" vector-effect="non-scaling-stroke" d="
  M 53.82 54.33
  L 68.60 53.61
  A 0.91 0.90 6.7 0 0 69.43 52.96
  L 73.34 39.57
  A 1.70 1.70 0.0 0 0 72.40 37.55
  L 49.27 27.26
  A 1.00 0.99 -66.4 0 0 47.94 27.79
  C 46.25 31.90 45.92 33.70 41.56 37.14"
/>
<path stroke="#e8dbd3" vector-effect="non-scaling-stroke" d="
  M 53.82 54.33
  Q 55.42 52.31 54.81 51.24
  Q 51.94 46.17 46.78 39.23
  Q 45.20 37.11 41.56 37.14"
/>
<path stroke="#6a6e74" vector-effect="non-scaling-stroke" d="
  M 300.98 56.08
  L 305.42 69.08
  Q 306.40 71.94 307.13 69.01
  Q 310.82 54.33 316.48 40.28
  Q 316.66 39.84 316.21 39.71
  L 313.35 38.91"
/>
<path stroke="#808d94" vector-effect="non-scaling-stroke" d="
  M 313.35 38.91
  C 308.49 36.99 304.44 33.16 303.43 27.91
  Q 303.36 27.53 303.00 27.68
  L 280.94 37.23
  A 2.12 2.11 -20.1 0 0 279.75 39.78
  L 283.92 53.63
  A 1.10 1.10 0.0 0 0 285.03 54.42
  Q 292.94 54.06 300.98 56.08"
/>
<path stroke="#e8dbd3" vector-effect="non-scaling-stroke" d="
  M 313.35 38.91
  Q 307.65 48.18 300.98 56.08"
/>
<path stroke="#774d34" vector-effect="non-scaling-stroke" d="
  M 57.33 264.75
  L 73.04 280.54"
/>
<path stroke="#5c4d49" vector-effect="non-scaling-stroke" d="
  M 73.04 280.54
  L 89.60 296.97
  Q 89.99 297.35 90.36 296.96
  Q 143.91 241.96 197.87 187.37
  C 209.92 175.18 221.92 162.27 233.54 150.38
  C 253.94 129.50 275.00 109.00 294.68 87.46
  A 2.54 2.54 0.0 0 0 295.21 84.95
  L 290.84 71.92
  Q 290.52 70.96 289.50 70.97
  L 274.29 71.17"
/>
<path stroke="#774d34" vector-effect="non-scaling-stroke" d="
  M 274.29 71.17
  Q 270.32 71.14 269.93 68.25
  Q 269.38 64.07 265.77 48.80"
/>
<path stroke="#808d94" vector-effect="non-scaling-stroke" d="
  M 265.77 48.80
  Q 261.78 47.49 255.74 48.59
  Q 255.24 48.68 254.88 49.04
  L 50.77 256.85
  A 0.93 0.93 0.0 0 0 50.77 258.16
  L 57.33 264.75"
/>
<path stroke="#f6ba94" vector-effect="non-scaling-stroke" d="
  M 265.77 48.80
  Q 262.95 53.29 261.75 54.52
  Q 242.42 74.31 222.99 93.99
  Q 213.15 103.96 203.45 114.06
  C 181.24 137.17 158.43 159.71 136.25 182.88
  C 123.12 196.60 107.11 212.49 96.52 223.50
  Q 79.84 240.83 63.00 257.99
  Q 60.03 261.02 57.33 264.75"
/>
<path stroke="#d27a49" vector-effect="non-scaling-stroke" d="
  M 274.29 71.17
  Q 269.40 78.76 263.22 84.88
  Q 262.02 86.06 260.48 87.81
  C 258.29 90.29 254.97 93.12 253.33 94.83
  Q 238.99 109.76 230.03 118.65
  C 228.10 120.56 226.57 122.42 224.66 124.10
  Q 221.94 126.48 219.08 129.96
  C 216.81 132.70 213.50 135.52 211.10 138.12
  C 203.35 146.52 195.46 154.85 187.30 162.87
  C 180.90 169.17 174.88 176.11 168.14 182.01
  Q 166.47 183.47 165.02 185.14
  C 159.14 191.92 152.56 198.07 146.27 204.48
  Q 145.78 204.99 144.59 206.36
  C 143.24 207.93 141.18 209.63 140.11 210.78
  Q 133.60 217.73 131.30 220.28
  Q 131.17 220.43 131.13 220.66
  Q 131.06 221.00 130.82 221.25
  L 73.04 280.54"
/>
<path stroke="#5c4d49" vector-effect="non-scaling-stroke" d="
  M 69.92 70.89
  L 62.12 70.69
  A 1.66 1.66 0.0 0 0 60.54 71.73
  L 54.95 85.66
  A 1.58 1.56 33.7 0 0 55.30 87.36
  L 124.50 156.41
  Q 125.28 157.18 126.04 156.39
  L 140.77 141.13"
/>
<path stroke="#774d34" vector-effect="non-scaling-stroke" d="
  M 140.77 141.13
  L 164.24 117.22
  A 0.69 0.69 0.0 0 0 164.24 116.26
  L 155.99 107.78
  A 0.64 0.64 0.0 0 0 155.07 107.78
  Q 150.42 112.66 145.23 117.23
  Q 141.61 120.41 137.63 117.10
  Q 133.00 113.24 136.68 108.96
  Q 141.16 103.75 146.30 99.10
  A 0.99 0.99 0.0 0 0 146.30 97.64
  L 138.43 90.45
  A 0.26 0.26 0.0 0 0 138.06 90.48
  Q 133.89 95.77 128.85 100.37
  Q 125.60 103.33 122.73 101.46
  C 119.50 99.36 117.11 96.17 120.15 92.37
  Q 124.64 86.76 130.24 82.43
  A 0.53 0.53 0.0 0 0 130.22 81.57
  Q 125.79 78.52 122.55 74.22
  A 0.80 0.79 -42.0 0 0 121.33 74.16
  Q 116.74 79.13 111.96 83.97
  C 107.90 88.08 104.08 84.14 101.86 80.43
  C 101.20 79.33 101.24 78.19 102.05 77.11
  Q 106.81 70.64 113.12 65.75
  A 0.88 0.88 0.0 0 0 113.18 64.41
  Q 105.56 57.45 98.65 50.10
  C 96.23 47.52 90.50 48.56 87.16 48.38
  A 0.47 0.47 0.0 0 0 86.68 48.74
  L 82.49 68.24
  Q 81.92 70.89 79.21 70.89
  L 69.92 70.89"
/>
<path stroke="#d27a49" vector-effect="non-scaling-stroke" d="
  M 140.77 141.13
  Q 136.82 138.19 133.67 134.87
  Q 128.56 129.48 128.52 129.44
  Q 108.28 109.69 88.24 89.75
  Q 79.25 80.80 69.92 70.89"
/>
<path stroke="#774d34" vector-effect="non-scaling-stroke" d="
  M 277.21 282.80
  L 301.14 257.88
  A 0.99 0.98 43.2 0 0 301.09 256.46
  L 294.50 250.45
  Q 294.07 250.05 293.68 250.50
  Q 290.06 254.73 286.30 258.76
  Q 280.87 264.59 275.13 259.14
  C 273.63 257.73 273.33 255.31 274.56 253.43
  C 277.50 248.93 281.80 245.42 285.58 241.63
  A 0.65 0.64 -45.9 0 0 285.57 240.71
  L 278.30 233.72
  A 0.50 0.50 0.0 0 0 277.57 233.75
  C 274.97 236.79 268.35 244.74 264.25 244.81
  C 256.76 244.94 256.95 236.67 261.21 232.69
  Q 265.13 229.03 269.04 225.71
  A 0.98 0.97 46.5 0 0 269.07 224.26
  L 261.83 217.57
  Q 261.42 217.19 261.01 217.58
  C 257.26 221.23 254.04 225.23 249.66 228.20
  C 247.51 229.66 246.33 229.23 244.36 227.88
  C 235.68 221.93 248.42 213.83 252.12 209.74
  Q 254.05 207.61 251.57 206.16
  Q 248.29 204.25 245.68 201.55
  A 0.84 0.84 0.0 0 0 244.52 201.50
  C 239.97 205.49 233.47 218.27 227.41 209.90"
/>
<path stroke="#5c4d49" vector-effect="non-scaling-stroke" d="
  M 227.41 209.90
  Q 224.04 205.89 227.90 201.40
  Q 231.91 196.74 236.75 193.23
  A 0.71 0.71 0.0 0 0 236.85 192.16
  L 227.40 182.36
  A 0.71 0.71 0.0 0 0 226.37 182.36
  L 187.69 221.98
  A 0.59 0.59 0.0 0 0 187.69 222.82
  L 261.83 297.42
  Q 262.42 298.01 262.97 297.45
  L 277.21 282.80"
/>
<path stroke="#d27a49" vector-effect="non-scaling-stroke" d="
  M 227.41 209.90
  Q 221.20 215.26 219.10 218.84
  C 216.83 222.72 220.49 225.46 223.50 228.51
  C 232.28 237.40 241.15 246.17 249.86 255.14
  C 251.92 257.27 254.68 259.62 256.95 262.07
  Q 260.69 266.12 262.05 267.44
  Q 269.80 274.97 277.21 282.80"
/>
<path stroke="#6a6e74" vector-effect="non-scaling-stroke" d="
  M 54.34 303.07
  L 69.56 318.73
  A 0.41 0.40 45.5 0 0 70.14 318.74
  L 79.00 309.72
  A 1.05 1.05 0.0 0 0 78.99 308.23
  L 63.50 292.89"
/>
<path stroke="#808d94" vector-effect="non-scaling-stroke" d="
  M 63.50 292.89
  L 39.20 268.38
  A 0.81 0.81 0.0 0 0 38.05 268.38
  L 29.33 277.27
  Q 28.92 277.69 29.34 278.11
  L 54.34 303.07"
/>
<path stroke="#e8dbd3" vector-effect="non-scaling-stroke" d="
  M 63.50 292.89
  Q 62.88 293.50 61.75 294.10
  Q 60.73 294.64 60.13 295.38
  Q 57.12 299.10 54.34 303.07"
/>
<path stroke="#6a6e74" vector-effect="non-scaling-stroke" d="
  M 287.91 293.25
  L 272.87 308.98
  Q 272.56 309.30 272.86 309.62
  L 282.27 319.53
  A 0.22 0.22 0.0 0 0 282.59 319.53
  L 297.79 303.29"
/>
<path stroke="#808d94" vector-effect="non-scaling-stroke" d="
  M 297.79 303.29
  L 322.23 278.01
  Q 322.62 277.61 322.23 277.21
  L 313.95 268.58
  A 0.83 0.83 0.0 0 0 312.76 268.56
  L 287.91 293.25"
/>
<path stroke="#e8dbd3" vector-effect="non-scaling-stroke" d="
  M 297.79 303.29
  L 287.91 293.25"
/>
<path stroke="#6a6e74" vector-effect="non-scaling-stroke" d="
  M 306.92 315.60
  L 294.25 328.90
  A 0.59 0.59 0.0 0 0 294.50 329.87
  Q 314.72 335.86 327.78 320.92"
/>
<path stroke="#808d94" vector-effect="non-scaling-stroke" d="
  M 327.78 320.92
  Q 336.31 310.71 334.41 296.76
  Q 333.94 293.36 332.13 290.84
  Q 331.79 290.38 331.39 290.78
  L 306.92 315.60"
/>
<path stroke="#e8dbd3" vector-effect="non-scaling-stroke" d="
  M 327.78 320.92
  Q 320.64 322.54 315.39 321.21
  C 312.24 320.40 309.67 317.64 306.92 315.60"
/>
<path stroke="#6a6e74" vector-effect="non-scaling-stroke" d="
  M 25.40 322.19
  Q 36.95 333.81 53.05 330.56
  Q 55.70 330.03 57.54 329.12
  Q 58.11 328.84 57.66 328.39
  L 45.40 316.29"
/>
<path stroke="#808d94" vector-effect="non-scaling-stroke" d="
  M 45.40 316.29
  L 19.74 291.65
  A 0.76 0.76 0.0 0 0 18.47 292.02
  Q 13.98 310.23 25.40 322.19"
/>
<path stroke="#e8dbd3" vector-effect="non-scaling-stroke" d="
  M 45.40 316.29
  Q 43.78 317.16 42.40 318.38
  C 37.28 322.92 31.02 321.24 25.40 322.19"
/>
</g>
<path fill="#011f34" d="
  M 113.30 168.86
  C 106.69 161.31 99.48 153.73 92.00 147.04
  C 89.58 144.89 87.50 142.29 85.17 140.05
  C 82.32 137.29 79.64 134.31 76.56 131.81
  C 75.57 131.01 74.97 129.87 74.14 129.11
  C 66.18 121.77 58.16 114.21 50.98 106.10
  Q 50.39 105.43 48.06 103.39
  C 46.67 102.17 45.84 100.59 44.37 99.49
  Q 41.39 97.26 38.80 94.61
  Q 36.85 92.61 35.80 89.70
  Q 33.19 82.46 31.17 75.04
  Q 27.27 60.68 22.99 46.44
  Q 22.78 45.75 22.68 45.01
  Q 22.61 44.53 22.34 44.13
  Q 21.55 42.95 21.77 41.44
  Q 21.84 40.91 21.55 40.48
  Q 20.50 38.95 20.68 37.04
  A 1.19 1.17 -63.2 0 0 20.40 36.15
  L 20.14 35.86
  Q 19.76 35.42 19.78 34.83
  C 19.82 33.66 19.18 32.77 18.96 31.90
  Q 16.44 22.33 15.44 19.50
  C 14.91 18.01 14.72 16.56 14.34 15.52
  Q 13.27 12.60 12.64 9.57
  Q 11.87 5.86 13.14 3.62
  C 15.32 -0.22 19.15 0.39 22.98 1.76
  Q 32.41 5.15 41.66 8.91
  C 46.25 10.77 51.99 12.39 55.85 14.14
  Q 57.13 14.72 57.92 14.73
  Q 58.48 14.74 58.89 15.13
  Q 59.57 15.79 60.54 15.75
  A 1.39 1.38 62.4 0 1 61.39 16.02
  Q 61.63 16.19 61.88 16.28
  Q 68.74 18.87 75.55 21.59
  Q 91.52 27.95 102.04 32.45
  C 107.26 34.68 109.59 38.65 113.49 42.14
  C 116.07 44.46 118.41 47.53 120.51 49.63
  Q 147.25 76.33 173.86 103.14
  C 176.76 106.07 178.25 103.87 180.60 101.53
  Q 187.30 94.85 193.70 87.89
  C 195.22 86.24 198.11 84.10 199.94 81.87
  Q 201.51 79.95 202.23 79.24
  C 216.36 65.04 230.54 50.91 244.28 36.33
  C 246.57 33.90 249.61 32.62 252.64 31.43
  C 271.08 24.19 289.51 16.98 308.06 9.99
  Q 313.09 8.09 319.87 5.33
  C 324.97 3.25 330.97 0.41 334.12 0.82
  C 338.81 1.42 340.16 5.84 338.86 10.14
  Q 335.84 20.15 333.05 30.20
  Q 327.08 51.61 321.00 72.94
  Q 320.21 75.71 319.47 78.48
  Q 319.22 79.43 318.21 82.01
  C 315.79 88.19 315.97 92.88 310.70 96.81
  Q 307.93 98.88 306.67 100.12
  C 290.10 116.49 273.25 132.84 257.47 149.96
  C 254.84 152.80 251.58 155.20 249.24 158.26
  C 248.44 159.29 247.32 159.79 246.48 160.82
  C 244.23 163.60 241.56 166.04 239.02 168.65
  A 1.54 1.54 0.0 0 0 239.02 170.81
  C 258.30 190.42 274.13 206.93 288.00 220.70
  C 289.54 222.23 291.64 224.99 293.79 226.83
  C 298.06 230.49 301.56 235.18 304.82 237.94
  Q 307.15 239.90 308.37 241.15
  Q 324.70 257.95 341.30 274.46
  C 344.78 277.92 346.96 284.02 348.83 288.98
  C 349.27 290.15 349.37 291.62 349.87 293.18
  Q 350.52 295.20 350.91 302.35
  Q 351.00 304.07 350.55 306.60
  C 350.21 308.52 350.27 310.49 349.83 312.27
  C 343.01 340.24 317.49 353.73 290.23 344.92
  C 287.54 344.05 283.81 342.23 281.71 340.25
  Q 275.29 334.20 269.04 327.95
  Q 234.82 293.68 200.87 259.13
  C 196.16 254.35 191.34 249.70 186.48 245.07
  C 183.90 242.60 180.15 238.09 176.20 235.08
  A 1.54 1.53 40.0 0 0 174.13 235.26
  C 171.30 238.37 168.06 240.86 165.16 243.92
  Q 150.98 258.85 136.39 273.39
  C 114.52 295.18 92.98 317.31 71.36 339.36
  C 70.11 340.63 68.93 341.69 67.23 342.44
  Q 59.32 345.92 56.00 346.25
  Q 54.37 346.41 53.30 346.67
  C 48.80 347.78 42.31 347.65 37.78 346.67
  C 35.73 346.23 33.74 346.15 31.81 345.48
  Q 21.47 341.85 14.85 334.95
  Q -4.61 314.68 3.18 287.21
  C 4.98 280.86 8.14 276.22 13.15 271.17
  Q 22.96 261.28 32.93 251.57
  C 40.96 243.74 50.68 233.73 59.83 225.09
  Q 60.48 224.48 61.02 223.79
  Q 62.63 221.72 64.50 219.81
  Q 73.58 210.53 82.72 201.31
  C 85.19 198.82 91.04 192.43 95.48 188.26
  C 100.72 183.33 105.43 177.99 110.59 173.01
  C 111.63 172.00 112.28 170.78 113.30 169.62
  Q 113.63 169.24 113.30 168.86
  Z
  M 41.56 37.14
  L 36.18 39.23
  A 0.53 0.53 0.0 0 0 35.88 39.92
  C 39.80 49.89 41.74 60.50 45.30 70.46
  Q 45.96 72.29 46.46 70.41
  L 50.34 55.85
  A 1.80 1.79 8.6 0 1 52.15 54.52
  Q 53.09 54.57 53.82 54.33
  L 68.60 53.61
  A 0.91 0.90 6.7 0 0 69.43 52.96
  L 73.34 39.57
  A 1.70 1.70 0.0 0 0 72.40 37.55
  L 49.27 27.26
  A 1.00 0.99 -66.4 0 0 47.94 27.79
  C 46.25 31.90 45.92 33.70 41.56 37.14
  Z
  M 300.98 56.08
  L 305.42 69.08
  Q 306.40 71.94 307.13 69.01
  Q 310.82 54.33 316.48 40.28
  Q 316.66 39.84 316.21 39.71
  L 313.35 38.91
  C 308.49 36.99 304.44 33.16 303.43 27.91
  Q 303.36 27.53 303.00 27.68
  L 280.94 37.23
  A 2.12 2.11 -20.1 0 0 279.75 39.78
  L 283.92 53.63
  A 1.10 1.10 0.0 0 0 285.03 54.42
  Q 292.94 54.06 300.98 56.08
  Z
  M 57.33 264.75
  L 73.04 280.54
  L 89.60 296.97
  Q 89.99 297.35 90.36 296.96
  Q 143.91 241.96 197.87 187.37
  C 209.92 175.18 221.92 162.27 233.54 150.38
  C 253.94 129.50 275.00 109.00 294.68 87.46
  A 2.54 2.54 0.0 0 0 295.21 84.95
  L 290.84 71.92
  Q 290.52 70.96 289.50 70.97
  L 274.29 71.17
  Q 270.32 71.14 269.93 68.25
  Q 269.38 64.07 265.77 48.80
  Q 261.78 47.49 255.74 48.59
  Q 255.24 48.68 254.88 49.04
  L 50.77 256.85
  A 0.93 0.93 0.0 0 0 50.77 258.16
  L 57.33 264.75
  Z
  M 69.92 70.89
  L 62.12 70.69
  A 1.66 1.66 0.0 0 0 60.54 71.73
  L 54.95 85.66
  A 1.58 1.56 33.7 0 0 55.30 87.36
  L 124.50 156.41
  Q 125.28 157.18 126.04 156.39
  L 140.77 141.13
  L 164.24 117.22
  A 0.69 0.69 0.0 0 0 164.24 116.26
  L 155.99 107.78
  A 0.64 0.64 0.0 0 0 155.07 107.78
  Q 150.42 112.66 145.23 117.23
  Q 141.61 120.41 137.63 117.10
  Q 133.00 113.24 136.68 108.96
  Q 141.16 103.75 146.30 99.10
  A 0.99 0.99 0.0 0 0 146.30 97.64
  L 138.43 90.45
  A 0.26 0.26 0.0 0 0 138.06 90.48
  Q 133.89 95.77 128.85 100.37
  Q 125.60 103.33 122.73 101.46
  C 119.50 99.36 117.11 96.17 120.15 92.37
  Q 124.64 86.76 130.24 82.43
  A 0.53 0.53 0.0 0 0 130.22 81.57
  Q 125.79 78.52 122.55 74.22
  A 0.80 0.79 -42.0 0 0 121.33 74.16
  Q 116.74 79.13 111.96 83.97
  C 107.90 88.08 104.08 84.14 101.86 80.43
  C 101.20 79.33 101.24 78.19 102.05 77.11
  Q 106.81 70.64 113.12 65.75
  A 0.88 0.88 0.0 0 0 113.18 64.41
  Q 105.56 57.45 98.65 50.10
  C 96.23 47.52 90.50 48.56 87.16 48.38
  A 0.47 0.47 0.0 0 0 86.68 48.74
  L 82.49 68.24
  Q 81.92 70.89 79.21 70.89
  L 69.92 70.89
  Z
  M 277.21 282.80
  L 301.14 257.88
  A 0.99 0.98 43.2 0 0 301.09 256.46
  L 294.50 250.45
  Q 294.07 250.05 293.68 250.50
  Q 290.06 254.73 286.30 258.76
  Q 280.87 264.59 275.13 259.14
  C 273.63 257.73 273.33 255.31 274.56 253.43
  C 277.50 248.93 281.80 245.42 285.58 241.63
  A 0.65 0.64 -45.9 0 0 285.57 240.71
  L 278.30 233.72
  A 0.50 0.50 0.0 0 0 277.57 233.75
  C 274.97 236.79 268.35 244.74 264.25 244.81
  C 256.76 244.94 256.95 236.67 261.21 232.69
  Q 265.13 229.03 269.04 225.71
  A 0.98 0.97 46.5 0 0 269.07 224.26
  L 261.83 217.57
  Q 261.42 217.19 261.01 217.58
  C 257.26 221.23 254.04 225.23 249.66 228.20
  C 247.51 229.66 246.33 229.23 244.36 227.88
  C 235.68 221.93 248.42 213.83 252.12 209.74
  Q 254.05 207.61 251.57 206.16
  Q 248.29 204.25 245.68 201.55
  A 0.84 0.84 0.0 0 0 244.52 201.50
  C 239.97 205.49 233.47 218.27 227.41 209.90
  Q 224.04 205.89 227.90 201.40
  Q 231.91 196.74 236.75 193.23
  A 0.71 0.71 0.0 0 0 236.85 192.16
  L 227.40 182.36
  A 0.71 0.71 0.0 0 0 226.37 182.36
  L 187.69 221.98
  A 0.59 0.59 0.0 0 0 187.69 222.82
  L 261.83 297.42
  Q 262.42 298.01 262.97 297.45
  L 277.21 282.80
  Z
  M 54.34 303.07
  L 69.56 318.73
  A 0.41 0.40 45.5 0 0 70.14 318.74
  L 79.00 309.72
  A 1.05 1.05 0.0 0 0 78.99 308.23
  L 63.50 292.89
  L 39.20 268.38
  A 0.81 0.81 0.0 0 0 38.05 268.38
  L 29.33 277.27
  Q 28.92 277.69 29.34 278.11
  L 54.34 303.07
  Z
  M 287.91 293.25
  L 272.87 308.98
  Q 272.56 309.30 272.86 309.62
  L 282.27 319.53
  A 0.22 0.22 0.0 0 0 282.59 319.53
  L 297.79 303.29
  L 322.23 278.01
  Q 322.62 277.61 322.23 277.21
  L 313.95 268.58
  A 0.83 0.83 0.0 0 0 312.76 268.56
  L 287.91 293.25
  Z
  M 306.92 315.60
  L 294.25 328.90
  A 0.59 0.59 0.0 0 0 294.50 329.87
  Q 314.72 335.86 327.78 320.92
  Q 336.31 310.71 334.41 296.76
  Q 333.94 293.36 332.13 290.84
  Q 331.79 290.38 331.39 290.78
  L 306.92 315.60
  Z
  M 25.40 322.19
  Q 36.95 333.81 53.05 330.56
  Q 55.70 330.03 57.54 329.12
  Q 58.11 328.84 57.66 328.39
  L 45.40 316.29
  L 19.74 291.65
  A 0.76 0.76 0.0 0 0 18.47 292.02
  Q 13.98 310.23 25.40 322.19
  Z"
/>
<path fill="#fefaf3" d="
  M 53.82 54.33
  Q 55.42 52.31 54.81 51.24
  Q 51.94 46.17 46.78 39.23
  Q 45.20 37.11 41.56 37.14
  C 45.92 33.70 46.25 31.90 47.94 27.79
  A 1.00 0.99 -66.4 0 1 49.27 27.26
  L 72.40 37.55
  A 1.70 1.70 0.0 0 1 73.34 39.57
  L 69.43 52.96
  A 0.91 0.90 6.7 0 1 68.60 53.61
  L 53.82 54.33
  Z"
/>
<path fill="#fefaf3" d="
  M 313.35 38.91
  Q 307.65 48.18 300.98 56.08
  Q 292.94 54.06 285.03 54.42
  A 1.10 1.10 0.0 0 1 283.92 53.63
  L 279.75 39.78
  A 2.12 2.11 -20.1 0 1 280.94 37.23
  L 303.00 27.68
  Q 303.36 27.53 303.43 27.91
  C 304.44 33.16 308.49 36.99 313.35 38.91
  Z"
/>
<ellipse fill="#ed7a34" cx="0.00" cy="0.00" transform="translate(151.81,39.28) rotate(85.3)" rx="7.77" ry="7.29"/>
<ellipse fill="#ed7a34" cx="0.00" cy="0.00" transform="translate(199.53,39.62) rotate(86.2)" rx="7.87" ry="7.46"/>
<path fill="#d2bcb3" d="
  M 41.56 37.14
  Q 45.20 37.11 46.78 39.23
  Q 51.94 46.17 54.81 51.24
  Q 55.42 52.31 53.82 54.33
  Q 53.09 54.57 52.15 54.52
  A 1.80 1.79 8.6 0 0 50.34 55.85
  L 46.46 70.41
  Q 45.96 72.29 45.30 70.46
  C 41.74 60.50 39.80 49.89 35.88 39.92
  A 0.53 0.53 0.0 0 1 36.18 39.23
  L 41.56 37.14
  Z"
/>
<path fill="#d2bcb3" d="
  M 313.35 38.91
  L 316.21 39.71
  Q 316.66 39.84 316.48 40.28
  Q 310.82 54.33 307.13 69.01
  Q 306.40 71.94 305.42 69.08
  L 300.98 56.08
  Q 307.65 48.18 313.35 38.91
  Z"
/>
<path fill="#fefaf3" d="
  M 265.77 48.80
  Q 262.95 53.29 261.75 54.52
  Q 242.42 74.31 222.99 93.99
  Q 213.15 103.96 203.45 114.06
  C 181.24 137.17 158.43 159.71 136.25 182.88
  C 123.12 196.60 107.11 212.49 96.52 223.50
  Q 79.84 240.83 63.00 257.99
  Q 60.03 261.02 57.33 264.75
  L 50.77 258.16
  A 0.93 0.93 0.0 0 1 50.77 256.85
  L 254.88 49.04
  Q 255.24 48.68 255.74 48.59
  Q 261.78 47.49 265.77 48.80
  Z"
/>
<path fill="#ed7a34" d="
  M 140.77 141.13
  Q 136.82 138.19 133.67 134.87
  Q 128.56 129.48 128.52 129.44
  Q 108.28 109.69 88.24 89.75
  Q 79.25 80.80 69.92 70.89
  L 79.21 70.89
  Q 81.92 70.89 82.49 68.24
  L 86.68 48.74
  A 0.47 0.47 0.0 0 1 87.16 48.38
  C 90.50 48.56 96.23 47.52 98.65 50.10
  Q 105.56 57.45 113.18 64.41
  A 0.88 0.88 0.0 0 1 113.12 65.75
  Q 106.81 70.64 102.05 77.11
  C 101.24 78.19 101.20 79.33 101.86 80.43
  C 104.08 84.14 107.90 88.08 111.96 83.97
  Q 116.74 79.13 121.33 74.16
  A 0.80 0.79 -42.0 0 1 122.55 74.22
  Q 125.79 78.52 130.22 81.57
  A 0.53 0.53 0.0 0 1 130.24 82.43
  Q 124.64 86.76 120.15 92.37
  C 117.11 96.17 119.50 99.36 122.73 101.46
  Q 125.60 103.33 128.85 100.37
  Q 133.89 95.77 138.06 90.48
  A 0.26 0.26 0.0 0 1 138.43 90.45
  L 146.30 97.64
  A 0.99 0.99 0.0 0 1 146.30 99.10
  Q 141.16 103.75 136.68 108.96
  Q 133.00 113.24 137.63 117.10
  Q 141.61 120.41 145.23 117.23
  Q 150.42 112.66 155.07 107.78
  A 0.64 0.64 0.0 0 1 155.99 107.78
  L 164.24 116.26
  A 0.69 0.69 0.0 0 1 164.24 117.22
  L 140.77 141.13
  Z"
/>
<path fill="#ed7a34" d="
  M 265.77 48.80
  Q 269.38 64.07 269.93 68.25
  Q 270.32 71.14 274.29 71.17
  Q 269.40 78.76 263.22 84.88
  Q 262.02 86.06 260.48 87.81
  C 258.29 90.29 254.97 93.12 253.33 94.83
  Q 238.99 109.76 230.03 118.65
  C 228.10 120.56 226.57 122.42 224.66 124.10
  Q 221.94 126.48 219.08 129.96
  C 216.81 132.70 213.50 135.52 211.10 138.12
  C 203.35 146.52 195.46 154.85 187.30 162.87
  C 180.90 169.17 174.88 176.11 168.14 182.01
  Q 166.47 183.47 165.02 185.14
  C 159.14 191.92 152.56 198.07 146.27 204.48
  Q 145.78 204.99 144.59 206.36
  C 143.24 207.93 141.18 209.63 140.11 210.78
  Q 133.60 217.73 131.30 220.28
  Q 131.17 220.43 131.13 220.66
  Q 131.06 221.00 130.82 221.25
  L 73.04 280.54
  L 57.33 264.75
  Q 60.03 261.02 63.00 257.99
  Q 79.84 240.83 96.52 223.50
  C 107.11 212.49 123.12 196.60 136.25 182.88
  C 158.43 159.71 181.24 137.17 203.45 114.06
  Q 213.15 103.96 222.99 93.99
  Q 242.42 74.31 261.75 54.52
  Q 262.95 53.29 265.77 48.80
  Z"
/>
<path fill="#d2bcb3" d="
  M 178.05 68.94
  Q 178.01 69.12 177.95 69.29
  Q 177.78 69.80 177.26 69.93
  Q 176.32 70.16 175.60 70.82
  A 1.11 1.09 30.0 0 1 174.59 71.08
  Q 169.22 69.85 168.00 64.50
  Q 167.88 63.98 168.15 63.53
  C 169.13 61.84 169.59 59.63 171.27 58.67
  C 176.14 55.87 179.42 59.47 180.94 63.69
  Q 181.12 64.18 180.81 64.59
  L 180.18 65.44
  A 0.99 0.96 -37.3 0 0 180.04 66.36
  Q 180.25 66.94 180.05 67.47
  Q 179.86 67.98 179.31 67.93
  Q 178.78 67.88 178.42 68.16
  Q 178.19 68.35 178.05 68.94
  Z"
/>
<path fill="#b67a5d" d="
  M 69.92 70.89
  Q 79.25 80.80 88.24 89.75
  Q 108.28 109.69 128.52 129.44
  Q 128.56 129.48 133.67 134.87
  Q 136.82 138.19 140.77 141.13
  L 126.04 156.39
  Q 125.28 157.18 124.50 156.41
  L 55.30 87.36
  A 1.58 1.56 33.7 0 1 54.95 85.66
  L 60.54 71.73
  A 1.66 1.66 0.0 0 1 62.12 70.69
  L 69.92 70.89
  Z"
/>
<path fill="#b67a5d" d="
  M 274.29 71.17
  L 289.50 70.97
  Q 290.52 70.96 290.84 71.92
  L 295.21 84.95
  A 2.54 2.54 0.0 0 1 294.68 87.46
  C 275.00 109.00 253.94 129.50 233.54 150.38
  C 221.92 162.27 209.92 175.18 197.87 187.37
  Q 143.91 241.96 90.36 296.96
  Q 89.99 297.35 89.60 296.97
  L 73.04 280.54
  L 130.82 221.25
  Q 131.06 221.00 131.13 220.66
  Q 131.17 220.43 131.30 220.28
  Q 133.60 217.73 140.11 210.78
  C 141.18 209.63 143.24 207.93 144.59 206.36
  Q 145.78 204.99 146.27 204.48
  C 152.56 198.07 159.14 191.92 165.02 185.14
  Q 166.47 183.47 168.14 182.01
  C 174.88 176.11 180.90 169.17 187.30 162.87
  C 195.46 154.85 203.35 146.52 211.10 138.12
  C 213.50 135.52 216.81 132.70 219.08 129.96
  Q 221.94 126.48 224.66 124.10
  C 226.57 122.42 228.10 120.56 230.03 118.65
  Q 238.99 109.76 253.33 94.83
  C 254.97 93.12 258.29 90.29 260.48 87.81
  Q 262.02 86.06 263.22 84.88
  Q 269.40 78.76 274.29 71.17
  Z"
/>
<path fill="#ed7a34" d="
  M 67.26 178.68
  C 66.36 177.54 65.07 177.06 64.47 175.54
  A 1.19 1.04 -81.0 0 0 64.25 175.19
  L 62.26 173.05
  Q 61.86 172.62 62.22 172.15
  C 64.60 169.04 67.39 165.26 70.31 163.06
  A 2.69 2.69 0.0 0 1 74.06 163.57
  L 80.64 172.16
  Q 80.89 172.48 80.69 172.83
  C 80.23 173.69 80.16 174.44 79.49 175.16
  Q 76.74 178.06 74.33 180.48
  A 2.78 2.76 -74.0 0 1 72.97 181.24
  Q 69.87 181.94 67.26 178.68
  Z"
/>
<path fill="#ed7a34" d="
  M 285.12 163.25
  L 292.33 170.74
  A 2.23 2.23 0.0 0 1 292.30 173.87
  L 285.05 181.08
  A 2.23 2.23 0.0 0 1 281.88 181.05
  L 274.83 173.78
  A 2.23 2.23 0.0 0 1 274.82 170.69
  L 281.90 163.26
  A 2.23 2.23 0.0 0 1 285.12 163.25
  Z"
/>
<path fill="#b67a5d" d="
  M 227.41 209.90
  Q 221.20 215.26 219.10 218.84
  C 216.83 222.72 220.49 225.46 223.50 228.51
  C 232.28 237.40 241.15 246.17 249.86 255.14
  C 251.92 257.27 254.68 259.62 256.95 262.07
  Q 260.69 266.12 262.05 267.44
  Q 269.80 274.97 277.21 282.80
  L 262.97 297.45
  Q 262.42 298.01 261.83 297.42
  L 187.69 222.82
  A 0.59 0.59 0.0 0 1 187.69 221.98
  L 226.37 182.36
  A 0.71 0.71 0.0 0 1 227.40 182.36
  L 236.85 192.16
  A 0.71 0.71 0.0 0 1 236.75 193.23
  Q 231.91 196.74 227.90 201.40
  Q 224.04 205.89 227.41 209.90
  Z"
/>
<path fill="#ed7a34" d="
  M 277.21 282.80
  Q 269.80 274.97 262.05 267.44
  Q 260.69 266.12 256.95 262.07
  C 254.68 259.62 251.92 257.27 249.86 255.14
  C 241.15 246.17 232.28 237.40 223.50 228.51
  C 220.49 225.46 216.83 222.72 219.10 218.84
  Q 221.20 215.26 227.41 209.90
  C 233.47 218.27 239.97 205.49 244.52 201.50
  A 0.84 0.84 0.0 0 1 245.68 201.55
  Q 248.29 204.25 251.57 206.16
  Q 254.05 207.61 252.12 209.74
  C 248.42 213.83 235.68 221.93 244.36 227.88
  C 246.33 229.23 247.51 229.66 249.66 228.20
  C 254.04 225.23 257.26 221.23 261.01 217.58
  Q 261.42 217.19 261.83 217.57
  L 269.07 224.26
  A 0.98 0.97 46.5 0 1 269.04 225.71
  Q 265.13 229.03 261.21 232.69
  C 256.95 236.67 256.76 244.94 264.25 244.81
  C 268.35 244.74 274.97 236.79 277.57 233.75
  A 0.50 0.50 0.0 0 1 278.30 233.72
  L 285.57 240.71
  A 0.65 0.64 -45.9 0 1 285.58 241.63
  C 281.80 245.42 277.50 248.93 274.56 253.43
  C 273.33 255.31 273.63 257.73 275.13 259.14
  Q 280.87 264.59 286.30 258.76
  Q 290.06 254.73 293.68 250.50
  Q 294.07 250.05 294.50 250.45
  L 301.09 256.46
  A 0.99 0.98 43.2 0 1 301.14 257.88
  L 277.21 282.80
  Z"
/>
<ellipse fill="#ed7a34" cx="0.00" cy="0.00" transform="translate(175.11,270.44) rotate(102.5)" rx="7.47" ry="7.14"/>
<path fill="#fefaf3" d="
  M 63.50 292.89
  Q 62.88 293.50 61.75 294.10
  Q 60.73 294.64 60.13 295.38
  Q 57.12 299.10 54.34 303.07
  L 29.34 278.11
  Q 28.92 277.69 29.33 277.27
  L 38.05 268.38
  A 0.81 0.81 0.0 0 1 39.20 268.38
  L 63.50 292.89
  Z"
/>
<path fill="#fefaf3" d="
  M 297.79 303.29
  L 287.91 293.25
  L 312.76 268.56
  A 0.83 0.83 0.0 0 1 313.95 268.58
  L 322.23 277.21
  Q 322.62 277.61 322.23 278.01
  L 297.79 303.29
  Z"
/>
<path fill="#fefaf3" d="
  M 327.78 320.92
  Q 320.64 322.54 315.39 321.21
  C 312.24 320.40 309.67 317.64 306.92 315.60
  L 331.39 290.78
  Q 331.79 290.38 332.13 290.84
  Q 333.94 293.36 334.41 296.76
  Q 336.31 310.71 327.78 320.92
  Z"
/>
<path fill="#fefaf3" d="
  M 45.40 316.29
  Q 43.78 317.16 42.40 318.38
  C 37.28 322.92 31.02 321.24 25.40 322.19
  Q 13.98 310.23 18.47 292.02
  A 0.76 0.76 0.0 0 1 19.74 291.65
  L 45.40 316.29
  Z"
/>
<path fill="#d2bcb3" d="
  M 63.50 292.89
  L 78.99 308.23
  A 1.05 1.05 0.0 0 1 79.00 309.72
  L 70.14 318.74
  A 0.41 0.40 45.5 0 1 69.56 318.73
  L 54.34 303.07
  Q 57.12 299.10 60.13 295.38
  Q 60.73 294.64 61.75 294.10
  Q 62.88 293.50 63.50 292.89
  Z"
/>
<path fill="#d2bcb3" d="
  M 287.91 293.25
  L 297.79 303.29
  L 282.59 319.53
  A 0.22 0.22 0.0 0 1 282.27 319.53
  L 272.86 309.62
  Q 272.56 309.30 272.87 308.98
  L 287.91 293.25
  Z"
/>
<ellipse fill="#ed7a34" cx="0.00" cy="0.00" transform="translate(152.43,304.88) rotate(74.8)" rx="7.67" ry="7.45"/>
<ellipse fill="#ed7a34" cx="0.00" cy="0.00" transform="translate(199.03,304.89) rotate(83.0)" rx="7.78" ry="7.25"/>
<path fill="#d2bcb3" d="
  M 306.92 315.60
  C 309.67 317.64 312.24 320.40 315.39 321.21
  Q 320.64 322.54 327.78 320.92
  Q 314.72 335.86 294.50 329.87
  A 0.59 0.59 0.0 0 1 294.25 328.90
  L 306.92 315.60
  Z"
/>
<path fill="#d2bcb3" d="
  M 45.40 316.29
  L 57.66 328.39
  Q 58.11 328.84 57.54 329.12
  Q 55.70 330.03 53.05 330.56
  Q 36.95 333.81 25.40 322.19
  C 31.02 321.24 37.28 322.92 42.40 318.38
  Q 43.78 317.16 45.40 316.29
  Z"
/>
</svg>
