<?xml version="1.0" encoding="UTF-8" standalone="no"?>
<!DOCTYPE svg PUBLIC "-//W3C//DTD SVG 1.1//EN" "http://www.w3.org/Graphics/SVG/1.1/DTD/svg11.dtd">
<svg xmlns="http://www.w3.org/2000/svg" version="1.1" viewBox="0.00 0.00 331.00 351.00">
<g stroke-width="2.00" fill="none" stroke-linecap="butt">
<path stroke="#5a5c5f" vector-effect="non-scaling-stroke" d="
  M 16.86 52.94
  L 16.93 61.15
  A 0.59 0.58 89.5 0 0 17.51 61.73
  L 312.81 61.72
  Q 313.41 61.72 313.43 61.13
  L 313.72 53.34"
/>
<path stroke="#788287" vector-effect="non-scaling-stroke" d="
  M 313.72 53.34
  Q 314.97 38.09 305.20 27.07
  Q 298.35 19.35 287.24 18.14
  Q 286.76 18.08 286.76 18.56
  Q 286.67 27.04 286.79 35.50
  C 286.92 44.87 273.16 45.12 273.16 37.25
  Q 273.15 27.59 273.10 18.34
  Q 273.10 18.00 272.75 17.99
  L 265.99 17.95
  A 0.34 0.34 0.0 0 0 265.65 18.30
  Q 265.91 26.73 264.99 30.74
  C 263.78 35.99 256.37 36.25 253.65 32.75
  C 251.55 30.04 252.53 21.88 252.51 18.47
  Q 252.51 17.96 252.00 17.96
  L 246.02 18.00
  A 0.50 0.50 0.0 0 0 245.53 18.50
  Q 245.61 28.39 245.59 38.66
  C 245.58 49.38 231.83 49.04 231.80 38.26
  Q 231.78 28.21 231.76 18.69
  Q 231.75 18.00 231.06 18.00
  L 224.80 18.01
  Q 224.32 18.01 224.34 18.49
  C 224.41 21.89 225.61 33.47 221.02 34.57
  C 209.87 37.22 211.13 26.08 211.40 18.63
  Q 211.44 17.76 210.57 17.77
  L 205.05 17.77
  A 0.79 0.79 0.0 0 0 204.27 18.57
  Q 204.37 28.33 204.60 38.49
  C 204.72 43.67 201.38 47.83 195.75 46.31
  C 191.97 45.29 190.95 42.81 191.06 38.94
  Q 191.34 29.18 191.21 19.02
  Q 191.20 17.84 190.02 17.83
  L 184.56 17.79
  Q 183.42 17.78 183.45 18.92
  C 183.59 24.02 185.55 35.18 177.24 35.13
  C 168.16 35.09 170.30 24.06 170.53 18.40
  Q 170.55 17.87 170.02 17.88
  L 164.06 17.95
  Q 163.62 17.96 163.61 18.40
  Q 163.49 27.92 163.55 37.84
  C 163.57 41.44 162.83 44.88 159.51 46.26
  C 156.47 47.53 150.19 46.30 150.02 41.75
  Q 149.60 30.76 149.94 18.92
  A 0.98 0.97 -89.7 0 0 148.95 17.91
  L 143.28 17.98
  A 1.03 1.02 -0.8 0 0 142.27 19.01
  C 142.30 24.25 144.24 34.92 136.47 35.35
  Q 133.43 35.52 131.38 33.62
  C 127.20 29.72 129.47 23.96 129.32 18.67
  Q 129.29 17.68 128.30 17.71
  L 122.45 17.87
  Q 121.43 17.90 121.43 18.92
  Q 121.46 29.10 121.48 38.79
  Q 121.49 42.65 120.20 44.35
  C 117.57 47.84 111.23 46.72 109.06 43.08
  Q 108.05 41.37 108.02 37.73
  Q 107.96 27.96 107.96 18.48
  Q 107.96 17.88 107.37 17.89
  L 101.75 17.95
  A 0.62 0.62 0.0 0 0 101.14 18.59
  C 101.23 22.97 102.40 30.45 98.96 33.73
  C 95.37 37.14 88.15 34.55 87.84 29.62
  Q 87.69 27.38 87.84 18.65
  Q 87.85 17.85 87.05 17.86
  L 80.79 17.98
  Q 80.10 17.99 80.11 18.68
  Q 80.25 29.05 80.17 39.51
  C 80.11 48.87 66.69 48.57 66.71 39.09
  Q 66.74 28.77 66.63 18.47
  Q 66.62 17.85 66.00 17.86
  L 59.99 17.99
  Q 59.32 18.00 59.24 18.67
  Q 58.62 23.70 58.65 29.49
  C 58.68 34.32 55.39 37.25 50.64 36.41
  C 45.62 35.53 44.90 31.54 44.96 26.85
  Q 45.01 22.58 45.15 18.25
  Q 45.17 17.74 44.65 17.76
  C 36.89 18.15 29.75 22.28 24.70 27.99
  C 18.81 34.66 16.48 44.10 16.86 52.94"
/>
<path stroke="#d0bdb2" vector-effect="non-scaling-stroke" d="
  M 313.72 53.34
  L 16.86 52.94"
/>
<path stroke="#7f8d92" vector-effect="non-scaling-stroke" d="
  M 113.87 92.60
  A 10.64 10.64 0.0 0 0 103.23 81.96
  L 58.31 81.96
  A 10.64 10.64 0.0 0 0 47.67 92.60
  L 47.67 93.36
  A 10.64 10.64 0.0 0 0 58.31 104.00
  L 103.23 104.00
  A 10.64 10.64 0.0 0 0 113.87 93.36
  L 113.87 92.60"
/>
<path stroke="#7f8d92" vector-effect="non-scaling-stroke" d="
  M 185.05 165.74
  Q 189.62 176.98 196.08 187.25
  A 0.99 0.98 46.4 0 1 196.06 188.31
  Q 168.65 228.52 130.40 258.61
  C 124.06 263.60 123.84 272.21 130.42 276.84
  C 138.33 282.42 144.28 276.84 150.71 271.42
  Q 173.45 252.20 189.34 234.35
  Q 199.66 222.74 208.96 210.78
  A 1.41 1.41 0.0 0 1 211.20 210.80
  C 223.24 226.87 237.85 239.72 254.32 250.94
  C 259.67 254.58 269.08 260.54 275.49 261.09
  C 283.87 261.81 291.45 251.21 285.31 243.96
  C 282.12 240.19 277.10 237.82 272.90 235.33
  C 254.25 224.23 237.86 208.18 224.72 190.60
  A 1.19 1.18 -47.3 0 1 224.67 189.24
  Q 229.26 182.10 234.45 174.95
  Q 243.66 162.25 251.27 142.51
  C 254.88 133.16 257.28 123.08 256.23 113.00
  C 254.79 99.11 244.49 87.38 231.01 84.50
  C 204.55 78.87 185.61 97.24 180.53 121.74
  Q 178.43 131.88 178.60 142.15
  A 1.07 1.06 89.7 0 1 177.54 143.23
  Q 128.42 143.26 79.31 143.23
  Q 74.72 143.23 72.41 144.47
  C 65.32 148.28 65.55 158.90 71.78 163.28
  C 74.61 165.27 77.30 165.18 80.75 165.20
  Q 132.50 165.50 184.43 165.33
  A 0.67 0.66 -11.1 0 1 185.05 165.74"
/>
<path stroke="#7f8d92" vector-effect="non-scaling-stroke" d="
  M 142.7613 200.2492
  A 13.05 12.50 -7.4 0 0 128.2101 189.5341
  A 13.05 12.50 -7.4 0 0 116.8787 203.6108
  A 13.05 12.50 -7.4 0 0 131.4299 214.3259
  A 13.05 12.50 -7.4 0 0 142.7613 200.2492"
/>
<path stroke="#7f8d92" vector-effect="non-scaling-stroke" d="
  M 95.0417 225.4529
  A 10.64 10.64 0.0 0 0 84.4389 214.7758
  L 58.2191 214.6843
  A 10.64 10.64 0.0 0 0 47.5420 225.2871
  L 47.5383 226.3471
  A 10.64 10.64 0.0 0 0 58.1411 237.0242
  L 84.3609 237.1157
  A 10.64 10.64 0.0 0 0 95.0380 226.5129
  L 95.0417 225.4529"
/>
<path stroke="#788287" vector-effect="non-scaling-stroke" d="
  M 87.94 324.64
  C 88.16 316.84 99.91 316.54 101.04 323.99
  Q 101.39 326.26 101.23 332.73
  Q 101.21 333.52 102.00 333.50
  L 107.24 333.36
  Q 108.00 333.34 108.00 332.57
  Q 107.96 324.90 107.90 317.26
  C 107.86 312.46 108.93 307.80 114.60 308.20
  C 119.14 308.52 121.24 311.55 121.36 315.93
  Q 121.59 324.44 121.44 332.76
  Q 121.43 333.52 122.19 333.52
  L 128.02 333.53
  Q 128.76 333.53 128.75 332.79
  C 128.74 327.93 127.60 321.91 132.46 318.94
  C 135.88 316.86 140.27 318.39 141.54 322.13
  C 142.43 324.77 141.94 329.54 141.97 332.79
  Q 141.97 333.33 142.51 333.34
  L 149.45 333.44
  Q 149.83 333.45 149.82 333.07
  Q 149.75 318.85 149.82 314.26
  C 149.97 305.02 163.18 304.81 163.48 315.01
  Q 163.75 324.10 163.59 332.63
  Q 163.57 333.50 164.44 333.48
  L 169.81 333.40
  A 0.95 0.94 -0.6 0 0 170.74 332.46
  Q 170.73 329.35 170.78 325.51
  C 170.84 320.43 174.73 317.53 179.48 318.74
  C 184.84 320.10 183.92 328.04 183.63 332.41
  Q 183.55 333.56 184.70 333.57
  L 190.00 333.59
  Q 191.24 333.59 191.22 332.36
  Q 191.16 324.49 191.24 316.40
  Q 191.27 312.81 192.00 311.21
  C 193.94 306.94 201.00 306.36 203.27 310.23
  Q 204.33 312.04 204.43 316.42
  Q 204.64 324.53 204.74 332.36
  Q 204.75 333.34 205.73 333.33
  L 210.71 333.29
  A 1.00 0.99 -0.0 0 0 211.70 332.31
  C 211.74 328.91 211.09 323.63 212.90 321.04
  C 215.14 317.83 220.94 317.61 223.36 320.69
  C 225.38 323.24 224.55 329.66 224.48 332.98
  Q 224.47 333.52 225.01 333.52
  L 231.75 333.50
  Q 232.29 333.50 232.29 332.96
  Q 232.23 324.64 231.93 315.76
  C 231.63 306.55 245.40 305.20 245.53 314.00
  Q 245.75 328.25 245.68 332.62
  A 0.78 0.77 1.1 0 0 246.45 333.41
  L 251.51 333.44
  Q 252.50 333.44 252.50 332.45
  C 252.47 327.51 251.09 318.64 258.74 318.56
  C 267.26 318.46 265.68 327.03 265.30 332.43
  Q 265.23 333.48 266.27 333.47
  L 271.74 333.45
  A 1.11 1.11 0.0 0 0 272.84 332.35
  Q 272.92 324.11 272.97 315.95
  C 272.98 312.41 273.80 309.90 277.04 308.55
  C 282.90 306.10 286.54 309.48 286.55 315.21
  Q 286.56 323.84 286.48 332.37
  A 0.68 0.68 0.0 0 0 287.23 333.05
  C 304.88 331.08 314.35 315.72 313.90 299.14
  A 0.38 0.37 89.2 0 0 313.53 298.77
  L 18.00 298.77
  Q 17.55 298.77 17.52 299.23
  C 16.24 316.68 26.51 331.41 44.38 333.42
  A 0.79 0.79 0.0 0 0 45.25 332.64
  Q 45.32 325.76 45.32 318.81
  Q 45.32 315.29 46.01 313.91
  C 48.85 308.28 59.18 310.45 59.23 317.01
  Q 59.27 322.67 58.97 332.40
  Q 58.94 333.66 60.20 333.66
  L 65.93 333.69
  Q 67.14 333.70 67.13 332.49
  Q 67.10 323.08 67.27 314.00
  C 67.39 307.65 76.78 305.08 79.52 311.21
  Q 80.23 312.79 80.24 316.36
  Q 80.26 324.61 80.27 332.50
  A 1.00 1.00 0.0 0 0 81.27 333.50
  L 86.79 333.50
  Q 87.87 333.50 87.86 332.42
  Q 87.82 328.76 87.94 324.64"
/>
<path stroke="#7f8d92" vector-effect="non-scaling-stroke" d="
  M 224.92 106.12
  C 212.73 103.34 205.34 114.42 203.55 124.75
  C 201.24 138.07 204.35 153.18 210.90 165.04
  Q 211.68 166.45 212.92 165.46
  A 1.59 1.40 -89.9 0 0 213.29 165.04
  C 220.97 153.09 227.98 141.18 232.27 127.19
  Q 234.04 121.43 233.76 118.18
  C 233.32 113.03 230.46 107.39 224.92 106.12"
/>
</g>
<path fill="#012133" d="
  M 2.41 37.32
  C 2.93 36.07 2.85 35.02 3.28 33.77
  C 8.40 18.97 20.75 6.94 35.98 3.12
  Q 41.42 1.75 55.14 1.76
  Q 169.19 1.79 283.25 1.77
  C 308.14 1.77 326.79 20.59 329.04 44.86
  C 329.24 46.94 329.76 49.07 329.75 51.07
  Q 329.37 171.28 329.69 291.50
  Q 329.73 305.98 328.63 311.44
  Q 325.92 324.94 316.54 335.52
  C 307.81 345.37 295.37 349.20 282.49 349.27
  C 203.75 349.71 125.00 349.53 46.25 349.50
  Q 39.56 349.50 32.02 347.02
  C 15.68 341.65 4.87 327.18 1.42 310.49
  Q 0.88 307.87 0.91 298.25
  Q 1.32 175.13 1.09 52.00
  C 1.08 47.83 0.80 43.23 1.67 41.71
  A 1.62 1.62 0.0 0 0 1.89 40.76
  Q 1.74 38.96 2.41 37.32
  Z
  M 16.86 52.94
  L 16.93 61.15
  A 0.59 0.58 89.5 0 0 17.51 61.73
  L 312.81 61.72
  Q 313.41 61.72 313.43 61.13
  L 313.72 53.34
  Q 314.97 38.09 305.20 27.07
  Q 298.35 19.35 287.24 18.14
  Q 286.76 18.08 286.76 18.56
  Q 286.67 27.04 286.79 35.50
  C 286.92 44.87 273.16 45.12 273.16 37.25
  Q 273.15 27.59 273.10 18.34
  Q 273.10 18.00 272.75 17.99
  L 265.99 17.95
  A 0.34 0.34 0.0 0 0 265.65 18.30
  Q 265.91 26.73 264.99 30.74
  C 263.78 35.99 256.37 36.25 253.65 32.75
  C 251.55 30.04 252.53 21.88 252.51 18.47
  Q 252.51 17.96 252.00 17.96
  L 246.02 18.00
  A 0.50 0.50 0.0 0 0 245.53 18.50
  Q 245.61 28.39 245.59 38.66
  C 245.58 49.38 231.83 49.04 231.80 38.26
  Q 231.78 28.21 231.76 18.69
  Q 231.75 18.00 231.06 18.00
  L 224.80 18.01
  Q 224.32 18.01 224.34 18.49
  C 224.41 21.89 225.61 33.47 221.02 34.57
  C 209.87 37.22 211.13 26.08 211.40 18.63
  Q 211.44 17.76 210.57 17.77
  L 205.05 17.77
  A 0.79 0.79 0.0 0 0 204.27 18.57
  Q 204.37 28.33 204.60 38.49
  C 204.72 43.67 201.38 47.83 195.75 46.31
  C 191.97 45.29 190.95 42.81 191.06 38.94
  Q 191.34 29.18 191.21 19.02
  Q 191.20 17.84 190.02 17.83
  L 184.56 17.79
  Q 183.42 17.78 183.45 18.92
  C 183.59 24.02 185.55 35.18 177.24 35.13
  C 168.16 35.09 170.30 24.06 170.53 18.40
  Q 170.55 17.87 170.02 17.88
  L 164.06 17.95
  Q 163.62 17.96 163.61 18.40
  Q 163.49 27.92 163.55 37.84
  C 163.57 41.44 162.83 44.88 159.51 46.26
  C 156.47 47.53 150.19 46.30 150.02 41.75
  Q 149.60 30.76 149.94 18.92
  A 0.98 0.97 -89.7 0 0 148.95 17.91
  L 143.28 17.98
  A 1.03 1.02 -0.8 0 0 142.27 19.01
  C 142.30 24.25 144.24 34.92 136.47 35.35
  Q 133.43 35.52 131.38 33.62
  C 127.20 29.72 129.47 23.96 129.32 18.67
  Q 129.29 17.68 128.30 17.71
  L 122.45 17.87
  Q 121.43 17.90 121.43 18.92
  Q 121.46 29.10 121.48 38.79
  Q 121.49 42.65 120.20 44.35
  C 117.57 47.84 111.23 46.72 109.06 43.08
  Q 108.05 41.37 108.02 37.73
  Q 107.96 27.96 107.96 18.48
  Q 107.96 17.88 107.37 17.89
  L 101.75 17.95
  A 0.62 0.62 0.0 0 0 101.14 18.59
  C 101.23 22.97 102.40 30.45 98.96 33.73
  C 95.37 37.14 88.15 34.55 87.84 29.62
  Q 87.69 27.38 87.84 18.65
  Q 87.85 17.85 87.05 17.86
  L 80.79 17.98
  Q 80.10 17.99 80.11 18.68
  Q 80.25 29.05 80.17 39.51
  C 80.11 48.87 66.69 48.57 66.71 39.09
  Q 66.74 28.77 66.63 18.47
  Q 66.62 17.85 66.00 17.86
  L 59.99 17.99
  Q 59.32 18.00 59.24 18.67
  Q 58.62 23.70 58.65 29.49
  C 58.68 34.32 55.39 37.25 50.64 36.41
  C 45.62 35.53 44.90 31.54 44.96 26.85
  Q 45.01 22.58 45.15 18.25
  Q 45.17 17.74 44.65 17.76
  C 36.89 18.15 29.75 22.28 24.70 27.99
  C 18.81 34.66 16.48 44.10 16.86 52.94
  Z
  M 113.87 92.60
  A 10.64 10.64 0.0 0 0 103.23 81.96
  L 58.31 81.96
  A 10.64 10.64 0.0 0 0 47.67 92.60
  L 47.67 93.36
  A 10.64 10.64 0.0 0 0 58.31 104.00
  L 103.23 104.00
  A 10.64 10.64 0.0 0 0 113.87 93.36
  L 113.87 92.60
  Z
  M 185.05 165.74
  Q 189.62 176.98 196.08 187.25
  A 0.99 0.98 46.4 0 1 196.06 188.31
  Q 168.65 228.52 130.40 258.61
  C 124.06 263.60 123.84 272.21 130.42 276.84
  C 138.33 282.42 144.28 276.84 150.71 271.42
  Q 173.45 252.20 189.34 234.35
  Q 199.66 222.74 208.96 210.78
  A 1.41 1.41 0.0 0 1 211.20 210.80
  C 223.24 226.87 237.85 239.72 254.32 250.94
  C 259.67 254.58 269.08 260.54 275.49 261.09
  C 283.87 261.81 291.45 251.21 285.31 243.96
  C 282.12 240.19 277.10 237.82 272.90 235.33
  C 254.25 224.23 237.86 208.18 224.72 190.60
  A 1.19 1.18 -47.3 0 1 224.67 189.24
  Q 229.26 182.10 234.45 174.95
  Q 243.66 162.25 251.27 142.51
  C 254.88 133.16 257.28 123.08 256.23 113.00
  C 254.79 99.11 244.49 87.38 231.01 84.50
  C 204.55 78.87 185.61 97.24 180.53 121.74
  Q 178.43 131.88 178.60 142.15
  A 1.07 1.06 89.7 0 1 177.54 143.23
  Q 128.42 143.26 79.31 143.23
  Q 74.72 143.23 72.41 144.47
  C 65.32 148.28 65.55 158.90 71.78 163.28
  C 74.61 165.27 77.30 165.18 80.75 165.20
  Q 132.50 165.50 184.43 165.33
  A 0.67 0.66 -11.1 0 1 185.05 165.74
  Z
  M 142.7613 200.2492
  A 13.05 12.50 -7.4 0 0 128.2101 189.5341
  A 13.05 12.50 -7.4 0 0 116.8787 203.6108
  A 13.05 12.50 -7.4 0 0 131.4299 214.3259
  A 13.05 12.50 -7.4 0 0 142.7613 200.2492
  Z
  M 95.0417 225.4529
  A 10.64 10.64 0.0 0 0 84.4389 214.7758
  L 58.2191 214.6843
  A 10.64 10.64 0.0 0 0 47.5420 225.2871
  L 47.5383 226.3471
  A 10.64 10.64 0.0 0 0 58.1411 237.0242
  L 84.3609 237.1157
  A 10.64 10.64 0.0 0 0 95.0380 226.5129
  L 95.0417 225.4529
  Z
  M 87.94 324.64
  C 88.16 316.84 99.91 316.54 101.04 323.99
  Q 101.39 326.26 101.23 332.73
  Q 101.21 333.52 102.00 333.50
  L 107.24 333.36
  Q 108.00 333.34 108.00 332.57
  Q 107.96 324.90 107.90 317.26
  C 107.86 312.46 108.93 307.80 114.60 308.20
  C 119.14 308.52 121.24 311.55 121.36 315.93
  Q 121.59 324.44 121.44 332.76
  Q 121.43 333.52 122.19 333.52
  L 128.02 333.53
  Q 128.76 333.53 128.75 332.79
  C 128.74 327.93 127.60 321.91 132.46 318.94
  C 135.88 316.86 140.27 318.39 141.54 322.13
  C 142.43 324.77 141.94 329.54 141.97 332.79
  Q 141.97 333.33 142.51 333.34
  L 149.45 333.44
  Q 149.83 333.45 149.82 333.07
  Q 149.75 318.85 149.82 314.26
  C 149.97 305.02 163.18 304.81 163.48 315.01
  Q 163.75 324.10 163.59 332.63
  Q 163.57 333.50 164.44 333.48
  L 169.81 333.40
  A 0.95 0.94 -0.6 0 0 170.74 332.46
  Q 170.73 329.35 170.78 325.51
  C 170.84 320.43 174.73 317.53 179.48 318.74
  C 184.84 320.10 183.92 328.04 183.63 332.41
  Q 183.55 333.56 184.70 333.57
  L 190.00 333.59
  Q 191.24 333.59 191.22 332.36
  Q 191.16 324.49 191.24 316.40
  Q 191.27 312.81 192.00 311.21
  C 193.94 306.94 201.00 306.36 203.27 310.23
  Q 204.33 312.04 204.43 316.42
  Q 204.64 324.53 204.74 332.36
  Q 204.75 333.34 205.73 333.33
  L 210.71 333.29
  A 1.00 0.99 -0.0 0 0 211.70 332.31
  C 211.74 328.91 211.09 323.63 212.90 321.04
  C 215.14 317.83 220.94 317.61 223.36 320.69
  C 225.38 323.24 224.55 329.66 224.48 332.98
  Q 224.47 333.52 225.01 333.52
  L 231.75 333.50
  Q 232.29 333.50 232.29 332.96
  Q 232.23 324.64 231.93 315.76
  C 231.63 306.55 245.40 305.20 245.53 314.00
  Q 245.75 328.25 245.68 332.62
  A 0.78 0.77 1.1 0 0 246.45 333.41
  L 251.51 333.44
  Q 252.50 333.44 252.50 332.45
  C 252.47 327.51 251.09 318.64 258.74 318.56
  C 267.26 318.46 265.68 327.03 265.30 332.43
  Q 265.23 333.48 266.27 333.47
  L 271.74 333.45
  A 1.11 1.11 0.0 0 0 272.84 332.35
  Q 272.92 324.11 272.97 315.95
  C 272.98 312.41 273.80 309.90 277.04 308.55
  C 282.90 306.10 286.54 309.48 286.55 315.21
  Q 286.56 323.84 286.48 332.37
  A 0.68 0.68 0.0 0 0 287.23 333.05
  C 304.88 331.08 314.35 315.72 313.90 299.14
  A 0.38 0.37 89.2 0 0 313.53 298.77
  L 18.00 298.77
  Q 17.55 298.77 17.52 299.23
  C 16.24 316.68 26.51 331.41 44.38 333.42
  A 0.79 0.79 0.0 0 0 45.25 332.64
  Q 45.32 325.76 45.32 318.81
  Q 45.32 315.29 46.01 313.91
  C 48.85 308.28 59.18 310.45 59.23 317.01
  Q 59.27 322.67 58.97 332.40
  Q 58.94 333.66 60.20 333.66
  L 65.93 333.69
  Q 67.14 333.70 67.13 332.49
  Q 67.10 323.08 67.27 314.00
  C 67.39 307.65 76.78 305.08 79.52 311.21
  Q 80.23 312.79 80.24 316.36
  Q 80.26 324.61 80.27 332.50
  A 1.00 1.00 0.0 0 0 81.27 333.50
  L 86.79 333.50
  Q 87.87 333.50 87.86 332.42
  Q 87.82 328.76 87.94 324.64
  Z"
/>
<path fill="#eee2da" d="
  M 313.72 53.34
  L 16.86 52.94
  C 16.48 44.10 18.81 34.66 24.70 27.99
  C 29.75 22.28 36.89 18.15 44.65 17.76
  Q 45.17 17.74 45.15 18.25
  Q 45.01 22.58 44.96 26.85
  C 44.90 31.54 45.62 35.53 50.64 36.41
  C 55.39 37.25 58.68 34.32 58.65 29.49
  Q 58.62 23.70 59.24 18.67
  Q 59.32 18.00 59.99 17.99
  L 66.00 17.86
  Q 66.62 17.85 66.63 18.47
  Q 66.74 28.77 66.71 39.09
  C 66.69 48.57 80.11 48.87 80.17 39.51
  Q 80.25 29.05 80.11 18.68
  Q 80.10 17.99 80.79 17.98
  L 87.05 17.86
  Q 87.85 17.85 87.84 18.65
  Q 87.69 27.38 87.84 29.62
  C 88.15 34.55 95.37 37.14 98.96 33.73
  C 102.40 30.45 101.23 22.97 101.14 18.59
  A 0.62 0.62 0.0 0 1 101.75 17.95
  L 107.37 17.89
  Q 107.96 17.88 107.96 18.48
  Q 107.96 27.96 108.02 37.73
  Q 108.05 41.37 109.06 43.08
  C 111.23 46.72 117.57 47.84 120.20 44.35
  Q 121.49 42.65 121.48 38.79
  Q 121.46 29.10 121.43 18.92
  Q 121.43 17.90 122.45 17.87
  L 128.30 17.71
  Q 129.29 17.68 129.32 18.67
  C 129.47 23.96 127.20 29.72 131.38 33.62
  Q 133.43 35.52 136.47 35.35
  C 144.24 34.92 142.30 24.25 142.27 19.01
  A 1.03 1.02 -0.8 0 1 143.28 17.98
  L 148.95 17.91
  A 0.98 0.97 -89.7 0 1 149.94 18.92
  Q 149.60 30.76 150.02 41.75
  C 150.19 46.30 156.47 47.53 159.51 46.26
  C 162.83 44.88 163.57 41.44 163.55 37.84
  Q 163.49 27.92 163.61 18.40
  Q 163.62 17.96 164.06 17.95
  L 170.02 17.88
  Q 170.55 17.87 170.53 18.40
  C 170.30 24.06 168.16 35.09 177.24 35.13
  C 185.55 35.18 183.59 24.02 183.45 18.92
  Q 183.42 17.78 184.56 17.79
  L 190.02 17.83
  Q 191.20 17.84 191.21 19.02
  Q 191.34 29.18 191.06 38.94
  C 190.95 42.81 191.97 45.29 195.75 46.31
  C 201.38 47.83 204.72 43.67 204.60 38.49
  Q 204.37 28.33 204.27 18.57
  A 0.79 0.79 0.0 0 1 205.05 17.77
  L 210.57 17.77
  Q 211.44 17.76 211.40 18.63
  C 211.13 26.08 209.87 37.22 221.02 34.57
  C 225.61 33.47 224.41 21.89 224.34 18.49
  Q 224.32 18.01 224.80 18.01
  L 231.06 18.00
  Q 231.75 18.00 231.76 18.69
  Q 231.78 28.21 231.80 38.26
  C 231.83 49.04 245.58 49.38 245.59 38.66
  Q 245.61 28.39 245.53 18.50
  A 0.50 0.50 0.0 0 1 246.02 18.00
  L 252.00 17.96
  Q 252.51 17.96 252.51 18.47
  C 252.53 21.88 251.55 30.04 253.65 32.75
  C 256.37 36.25 263.78 35.99 264.99 30.74
  Q 265.91 26.73 265.65 18.30
  A 0.34 0.34 0.0 0 1 265.99 17.95
  L 272.75 17.99
  Q 273.10 18.00 273.10 18.34
  Q 273.15 27.59 273.16 37.25
  C 273.16 45.12 286.92 44.87 286.79 35.50
  Q 286.67 27.04 286.76 18.56
  Q 286.76 18.08 287.24 18.14
  Q 298.35 19.35 305.20 27.07
  Q 314.97 38.09 313.72 53.34
  Z"
/>
<path fill="#b2978a" d="
  M 313.72 53.34
  L 313.43 61.13
  Q 313.41 61.72 312.81 61.72
  L 17.51 61.73
  A 0.59 0.58 89.5 0 1 16.93 61.15
  L 16.86 52.94
  L 313.72 53.34
  Z"
/>
<rect fill="#fdf9f0" x="47.67" y="81.96" width="66.20" height="22.04" rx="10.64"/>
<path fill="#fdf9f0" d="
  M 185.05 165.74
  A 0.67 0.66 -11.1 0 0 184.43 165.33
  Q 132.50 165.50 80.75 165.20
  C 77.30 165.18 74.61 165.27 71.78 163.28
  C 65.55 158.90 65.32 148.28 72.41 144.47
  Q 74.72 143.23 79.31 143.23
  Q 128.42 143.26 177.54 143.23
  A 1.07 1.06 89.7 0 0 178.60 142.15
  Q 178.43 131.88 180.53 121.74
  C 185.61 97.24 204.55 78.87 231.01 84.50
  C 244.49 87.38 254.79 99.11 256.23 113.00
  C 257.28 123.08 254.88 133.16 251.27 142.51
  Q 243.66 162.25 234.45 174.95
  Q 229.26 182.10 224.67 189.24
  A 1.19 1.18 -47.3 0 0 224.72 190.60
  C 237.86 208.18 254.25 224.23 272.90 235.33
  C 277.10 237.82 282.12 240.19 285.31 243.96
  C 291.45 251.21 283.87 261.81 275.49 261.09
  C 269.08 260.54 259.67 254.58 254.32 250.94
  C 237.85 239.72 223.24 226.87 211.20 210.80
  A 1.41 1.41 0.0 0 0 208.96 210.78
  Q 199.66 222.74 189.34 234.35
  Q 173.45 252.20 150.71 271.42
  C 144.28 276.84 138.33 282.42 130.42 276.84
  C 123.84 272.21 124.06 263.60 130.40 258.61
  Q 168.65 228.52 196.06 188.31
  A 0.99 0.98 46.4 0 0 196.08 187.25
  Q 189.62 176.98 185.05 165.74
  Z
  M 224.92 106.12
  C 212.73 103.34 205.34 114.42 203.55 124.75
  C 201.24 138.07 204.35 153.18 210.90 165.04
  Q 211.68 166.45 212.92 165.46
  A 1.59 1.40 -89.9 0 0 213.29 165.04
  C 220.97 153.09 227.98 141.18 232.27 127.19
  Q 234.04 121.43 233.76 118.18
  C 233.32 113.03 230.46 107.39 224.92 106.12
  Z"
/>
<path fill="#012133" d="
  M 203.55 124.75
  C 205.34 114.42 212.73 103.34 224.92 106.12
  C 230.46 107.39 233.32 113.03 233.76 118.18
  Q 234.04 121.43 232.27 127.19
  C 227.98 141.18 220.97 153.09 213.29 165.04
  A 1.59 1.40 -89.9 0 1 212.92 165.46
  Q 211.68 166.45 210.90 165.04
  C 204.35 153.18 201.24 138.07 203.55 124.75
  Z"
/>
<ellipse fill="#fdf9f0" cx="0.00" cy="0.00" transform="translate(129.82,201.93) rotate(-7.4)" rx="13.05" ry="12.50"/>
<rect fill="#fdf9f0" x="-23.75" y="-11.17" transform="translate(71.29,225.90) rotate(0.2)" width="47.50" height="22.34" rx="10.64"/>
<path fill="#eee2da" d="
  M 101.04 323.99
  C 99.91 316.54 88.16 316.84 87.94 324.64
  Q 87.82 328.76 87.86 332.42
  Q 87.87 333.50 86.79 333.50
  L 81.27 333.50
  A 1.00 1.00 0.0 0 1 80.27 332.50
  Q 80.26 324.61 80.24 316.36
  Q 80.23 312.79 79.52 311.21
  C 76.78 305.08 67.39 307.65 67.27 314.00
  Q 67.10 323.08 67.13 332.49
  Q 67.14 333.70 65.93 333.69
  L 60.20 333.66
  Q 58.94 333.66 58.97 332.40
  Q 59.27 322.67 59.23 317.01
  C 59.18 310.45 48.85 308.28 46.01 313.91
  Q 45.32 315.29 45.32 318.81
  Q 45.32 325.76 45.25 332.64
  A 0.79 0.79 0.0 0 1 44.38 333.42
  C 26.51 331.41 16.24 316.68 17.52 299.23
  Q 17.55 298.77 18.00 298.77
  L 313.53 298.77
  A 0.38 0.37 89.2 0 1 313.90 299.14
  C 314.35 315.72 304.88 331.08 287.23 333.05
  A 0.68 0.68 0.0 0 1 286.48 332.37
  Q 286.56 323.84 286.55 315.21
  C 286.54 309.48 282.90 306.10 277.04 308.55
  C 273.80 309.90 272.98 312.41 272.97 315.95
  Q 272.92 324.11 272.84 332.35
  A 1.11 1.11 0.0 0 1 271.74 333.45
  L 266.27 333.47
  Q 265.23 333.48 265.30 332.43
  C 265.68 327.03 267.26 318.46 258.74 318.56
  C 251.09 318.64 252.47 327.51 252.50 332.45
  Q 252.50 333.44 251.51 333.44
  L 246.45 333.41
  A 0.78 0.77 1.1 0 1 245.68 332.62
  Q 245.75 328.25 245.53 314.00
  C 245.40 305.20 231.63 306.55 231.93 315.76
  Q 232.23 324.64 232.29 332.96
  Q 232.29 333.50 231.75 333.50
  L 225.01 333.52
  Q 224.47 333.52 224.48 332.98
  C 224.55 329.66 225.38 323.24 223.36 320.69
  C 220.94 317.61 215.14 317.83 212.90 321.04
  C 211.09 323.63 211.74 328.91 211.70 332.31
  A 1.00 0.99 -0.0 0 1 210.71 333.29
  L 205.73 333.33
  Q 204.75 333.34 204.74 332.36
  Q 204.64 324.53 204.43 316.42
  Q 204.33 312.04 203.27 310.23
  C 201.00 306.36 193.94 306.94 192.00 311.21
  Q 191.27 312.81 191.24 316.40
  Q 191.16 324.49 191.22 332.36
  Q 191.24 333.59 190.00 333.59
  L 184.70 333.57
  Q 183.55 333.56 183.63 332.41
  C 183.92 328.04 184.84 320.10 179.48 318.74
  C 174.73 317.53 170.84 320.43 170.78 325.51
  Q 170.73 329.35 170.74 332.46
  A 0.95 0.94 -0.6 0 1 169.81 333.40
  L 164.44 333.48
  Q 163.57 333.50 163.59 332.63
  Q 163.75 324.10 163.48 315.01
  C 163.18 304.81 149.97 305.02 149.82 314.26
  Q 149.75 318.85 149.82 333.07
  Q 149.83 333.45 149.45 333.44
  L 142.51 333.34
  Q 141.97 333.33 141.97 332.79
  C 141.94 329.54 142.43 324.77 141.54 322.13
  C 140.27 318.39 135.88 316.86 132.46 318.94
  C 127.60 321.91 128.74 327.93 128.75 332.79
  Q 128.76 333.53 128.02 333.53
  L 122.19 333.52
  Q 121.43 333.52 121.44 332.76
  Q 121.59 324.44 121.36 315.93
  C 121.24 311.55 119.14 308.52 114.60 308.20
  C 108.93 307.80 107.86 312.46 107.90 317.26
  Q 107.96 324.90 108.00 332.57
  Q 108.00 333.34 107.24 333.36
  L 102.00 333.50
  Q 101.21 333.52 101.23 332.73
  Q 101.39 326.26 101.04 323.99
  Z"
/>
</svg>
