<?xml version="1.0" encoding="UTF-8" standalone="no"?>
<!DOCTYPE svg PUBLIC "-//W3C//DTD SVG 1.1//EN" "http://www.w3.org/Graphics/SVG/1.1/DTD/svg11.dtd">
<svg xmlns="http://www.w3.org/2000/svg" version="1.1" viewBox="0.00 0.00 388.00 335.00">
<g stroke-width="2.00" fill="none" stroke-linecap="butt">
<path stroke="#5c4d48" vector-effect="non-scaling-stroke" d="
  M 86.34 38.83
  L 86.17 57.51
  A 0.31 0.30 -16.3 0 0 86.64 57.76
  L 94.56 52.48"
/>
<path stroke="#774d35" vector-effect="non-scaling-stroke" d="
  M 94.56 52.48
  C 107.96 46.49 124.22 47.87 136.80 55.02
  A 0.60 0.60 0.0 0 0 137.69 54.49
  L 137.43 28.78"
/>
<path stroke="#7f8c92" vector-effect="non-scaling-stroke" d="
  M 137.43 28.78
  L 137.68 24.81
  A 0.66 0.63 16.8 0 0 137.35 24.22
  C 131.36 20.91 124.84 18.03 118.23 17.32
  C 103.20 15.70 88.76 22.79 86.34 38.83"
/>
<path stroke="#f5ba93" vector-effect="non-scaling-stroke" d="
  M 137.43 28.78
  Q 137.40 29.64 137.02 29.95
  Q 136.76 30.17 136.50 29.96
  L 136.25 29.75
  Q 136.01 29.56 135.72 29.50
  Q 131.05 28.57 126.38 27.65
  Q 126.28 27.63 126.13 27.65
  Q 125.89 27.67 125.79 27.47
  A 0.30 0.29 80.6 0 0 125.56 27.30
  Q 115.96 26.08 106.39 27.43
  Q 99.01 28.47 94.13 32.21"
/>
<path stroke="#dabaa6" vector-effect="non-scaling-stroke" d="
  M 94.13 32.21
  L 86.34 38.83"
/>
<path stroke="#d27b49" vector-effect="non-scaling-stroke" d="
  M 94.56 52.48
  Q 93.58 42.75 94.13 32.21"
/>
<path stroke="#774d35" vector-effect="non-scaling-stroke" d="
  M 181.98 28.22
  L 182.05 83.28
  Q 182.05 84.09 182.69 83.60
  Q 183.71 82.83 185.04 81.28
  C 204.95 58.06 232.69 40.57 260.68 27.79"
/>
<path stroke="#7f8c92" vector-effect="non-scaling-stroke" d="
  M 260.68 27.79
  L 273.97 21.42
  Q 275.94 20.47 273.86 20.05
  Q 273.57 19.99 272.12 19.99
  Q 227.44 19.89 182.84 20.15
  A 0.85 0.85 0.0 0 0 182.00 20.99
  L 181.98 28.22"
/>
<path stroke="#f5ba93" vector-effect="non-scaling-stroke" d="
  M 260.68 27.79
  Q 256.91 27.23 253.30 27.83
  C 249.96 28.38 245.56 28.43 242.40 28.38
  Q 212.31 27.92 181.98 28.22"
/>
<path stroke="#774d35" vector-effect="non-scaling-stroke" d="
  M 153.52 28.33
  L 153.45 100.91
  A 0.18 0.18 0.0 0 0 153.75 101.05
  Q 159.71 95.54 166.80 91.57
  A 0.97 0.95 75.9 0 0 167.29 90.73
  L 166.91 28.73"
/>
<path stroke="#7f8c92" vector-effect="non-scaling-stroke" d="
  M 166.91 28.73
  L 166.66 20.74
  A 0.76 0.75 88.4 0 0 165.90 20.01
  L 154.35 20.11
  Q 153.57 20.12 153.56 20.89
  L 153.52 28.33"
/>
<path stroke="#f5ba93" vector-effect="non-scaling-stroke" d="
  M 166.91 28.73
  L 153.52 28.33"
/>
<path stroke="#686d74" vector-effect="non-scaling-stroke" d="
  M 19.17 316.35
  Q 19.83 317.30 21.07 317.74
  A 0.91 0.90 -56.2 0 0 22.00 317.55
  L 110.88 234.30"
/>
<path stroke="#7f8c92" vector-effect="non-scaling-stroke" d="
  M 110.88 234.30
  Q 123.44 223.27 136.82 212.32
  C 148.69 202.59 158.25 200.92 173.58 204.78
  Q 186.10 207.94 198.47 211.37"
/>
<path stroke="#686d74" vector-effect="non-scaling-stroke" d="
  M 198.47 211.37
  L 221.47 216.21
  Q 222.06 216.33 222.52 215.94
  L 237.40 203.39
  A 0.60 0.60 0.0 0 0 237.07 202.34
  L 230.55 201.73"
/>
<path stroke="#7f8c92" vector-effect="non-scaling-stroke" d="
  M 230.55 201.73
  Q 219.39 198.69 209.26 196.92
  C 200.29 195.36 202.56 184.26 210.75 183.09
  Q 212.27 182.87 216.01 183.01"
/>
<path stroke="#686d74" vector-effect="non-scaling-stroke" d="
  M 216.01 183.01
  L 220.02 183.35"
/>
<path stroke="#63656a" vector-effect="non-scaling-stroke" d="
  M 220.02 183.35
  L 224.64 183.89"
/>
<path stroke="#686d74" vector-effect="non-scaling-stroke" d="
  M 224.64 183.89
  Q 238.76 185.81 253.05 186.11
  A 2.22 2.17 27.2 0 0 254.35 185.71
  Q 262.97 179.75 269.22 170.86"
/>
<path stroke="#7f8c92" vector-effect="non-scaling-stroke" d="
  M 269.22 170.86
  L 270.70 169.06
  A 0.42 0.41 -71.9 0 0 270.36 168.38
  C 264.99 168.77 253.22 170.86 250.34 164.39
  C 248.00 159.11 253.57 154.45 258.26 153.44"
/>
<path stroke="#686d74" vector-effect="non-scaling-stroke" d="
  M 258.26 153.44
  C 268.94 153.33 280.23 151.35 289.55 146.16
  C 300.80 139.90 309.98 129.41 317.43 118.71
  Q 318.12 117.72 318.45 116.71
  A 0.36 0.36 0.0 0 0 318.04 116.25
  L 303.54 118.68"
/>
<path stroke="#7f8c92" vector-effect="non-scaling-stroke" d="
  M 303.54 118.68
  C 293.50 119.58 283.33 119.23 273.25 119.35
  C 269.50 119.40 266.30 114.51 267.30 111.03
  C 269.11 104.70 277.07 104.84 283.78 103.99"
/>
<path stroke="#686d74" vector-effect="non-scaling-stroke" d="
  M 283.78 103.99
  Q 298.06 102.30 312.21 100.00
  C 324.40 98.03 333.22 95.16 341.34 85.81
  C 356.85 67.95 365.40 44.17 370.27 22.22
  Q 370.40 21.67 369.85 21.53
  Q 366.28 20.61 363.61 20.87"
/>
<path stroke="#7f8c92" vector-effect="non-scaling-stroke" d="
  M 363.61 20.87
  Q 343.19 20.30 330.74 21.53
  Q 313.33 23.25 294.20 30.64
  C 266.84 41.20 240.77 55.33 217.58 73.34
  C 199.18 87.62 189.76 105.06 185.78 128.19
  C 184.72 134.33 179.29 140.27 172.74 135.99
  C 166.38 131.82 171.92 113.78 173.87 108.02
  Q 174.17 107.14 173.35 107.57
  C 158.19 115.52 147.15 130.00 139.65 144.99
  C 133.10 158.10 130.19 173.03 129.32 187.71
  Q 129.28 188.37 129.86 188.07
  Q 132.51 186.71 134.85 184.86
  C 159.18 165.67 183.78 146.85 208.04 127.58
  Q 241.49 101.01 274.92 74.42
  Q 285.06 66.35 294.93 57.96
  C 302.74 51.32 314.09 62.21 305.61 69.37
  C 290.75 81.90 275.27 93.80 260.28 105.88
  C 215.17 142.23 169.26 177.54 123.97 213.66
  Q 115.55 220.38 108.59 226.46
  Q 64.46 265.04 22.90 306.40
  Q 21.10 308.20 18.30 311.66
  C 16.79 313.52 17.44 315.10 19.17 316.35"
/>
<path stroke="#e6dad2" vector-effect="non-scaling-stroke" d="
  M 363.61 20.87
  Q 362.96 25.97 361.65 31.08
  Q 356.11 52.70 342.81 70.58
  C 331.74 85.48 317.88 94.92 299.94 99.64
  C 299.20 99.84 298.50 100.61 297.75 100.77
  Q 290.78 102.36 283.78 103.99"
/>
<path stroke="#e6dad2" vector-effect="non-scaling-stroke" d="
  M 303.54 118.68
  Q 304.31 118.49 304.76 118.78
  Q 305.20 119.05 304.94 119.50
  C 298.09 131.06 289.04 139.29 277.33 145.65
  C 270.55 149.33 265.77 151.53 258.26 153.44"
/>
<path stroke="#e6dad2" vector-effect="non-scaling-stroke" d="
  M 269.22 170.86
  Q 254.98 176.89 250.87 178.12
  Q 242.56 180.62 228.97 182.38
  C 224.68 182.93 220.39 182.92 216.01 183.01"
/>
<path stroke="#e6dad2" vector-effect="non-scaling-stroke" d="
  M 230.55 201.73
  Q 225.57 203.85 220.90 205.68
  C 213.83 208.46 206.00 209.57 198.47 211.37"
/>
<path stroke="#e6dad2" vector-effect="non-scaling-stroke" d="
  M 110.88 234.30
  Q 100.55 238.90 91.90 247.15
  C 68.73 269.23 45.16 290.85 21.96 312.90
  C 20.82 313.98 20.16 315.14 19.17 316.35"
/>
<path stroke="#cab3a9" vector-effect="non-scaling-stroke" d="
  M 224.64 183.89
  Q 223.36 182.81 220.02 183.35"
/>
<path stroke="#686d74" vector-effect="non-scaling-stroke" d="
  M 92.96 71.47
  C 90.54 73.21 86.36 76.20 86.31 79.50
  Q 86.22 85.80 86.28 88.25"
/>
<path stroke="#5c4d48" vector-effect="non-scaling-stroke" d="
  M 86.28 88.25
  L 86.32 117.93
  Q 86.32 118.53 86.84 118.24
  L 93.99 114.29"
/>
<path stroke="#774d35" vector-effect="non-scaling-stroke" d="
  M 93.99 114.29
  C 106.12 109.51 121.59 109.09 133.90 114.56
  C 135.19 115.14 135.83 115.93 136.97 116.82
  Q 137.60 117.31 137.59 116.51
  L 137.26 82.13"
/>
<path stroke="#7f8c92" vector-effect="non-scaling-stroke" d="
  M 137.26 82.13
  L 137.73 74.87
  A 1.38 1.36 -67.8 0 0 137.27 73.76
  Q 129.42 66.77 119.37 65.35
  C 110.68 64.13 100.34 65.81 92.96 71.47"
/>
<path stroke="#f5ba93" vector-effect="non-scaling-stroke" d="
  M 137.26 82.13
  Q 135.38 79.26 134.48 78.57
  Q 129.70 74.89 124.50 74.23
  C 115.29 73.06 104.12 73.83 95.68 78.89"
/>
<path stroke="#dabaa6" vector-effect="non-scaling-stroke" d="
  M 95.68 78.89
  L 94.64 79.36"
/>
<path stroke="#e6dad2" vector-effect="non-scaling-stroke" d="
  M 94.64 79.36
  L 93.79 79.20
  Q 93.37 79.12 93.53 78.72
  Q 95.11 74.93 92.96 71.47"
/>
<path stroke="#d27b49" vector-effect="non-scaling-stroke" d="
  M 93.99 114.29
  Q 93.57 113.36 94.17 112.51
  Q 94.45 112.12 94.37 111.64
  C 94.23 110.78 93.97 109.93 93.99 109.06
  Q 94.36 95.40 94.51 81.74
  Q 94.51 81.27 94.81 80.89
  Q 95.45 80.10 95.68 78.89"
/>
<path stroke="#c39b88" vector-effect="non-scaling-stroke" d="
  M 94.64 79.36
  Q 90.01 82.25 86.28 88.25"
/>
<path stroke="#686d74" vector-effect="non-scaling-stroke" d="
  M 94.20 131.47
  Q 90.60 134.04 87.75 136.76
  C 85.30 139.10 86.19 146.19 86.45 150.37"
/>
<path stroke="#5c4d48" vector-effect="non-scaling-stroke" d="
  M 86.45 150.37
  Q 86.09 157.21 86.35 165.50
  Q 86.38 166.50 86.65 166.86
  Q 87.19 167.60 87.67 166.83
  L 94.51 155.94"
/>
<path stroke="#774d35" vector-effect="non-scaling-stroke" d="
  M 94.51 155.94
  C 100.88 147.86 107.12 141.08 115.83 135.65"
/>
<path stroke="#7f8c92" vector-effect="non-scaling-stroke" d="
  M 115.83 135.65
  Q 119.96 133.08 126.23 132.06
  Q 127.67 131.82 128.60 130.21
  Q 128.85 129.78 128.44 129.49
  Q 125.16 127.19 121.67 126.66
  Q 106.93 124.42 94.20 131.47"
/>
<path stroke="#f5ba93" vector-effect="non-scaling-stroke" d="
  M 115.83 135.65
  Q 111.48 134.48 106.51 135.91
  Q 99.29 137.98 93.96 141.45"
/>
<path stroke="#e6dad2" vector-effect="non-scaling-stroke" d="
  M 93.96 141.45
  Q 93.87 141.56 93.73 141.50
  Q 93.62 141.45 93.62 141.34
  L 94.20 131.47"
/>
<path stroke="#de9b74" vector-effect="non-scaling-stroke" d="
  M 93.96 141.45
  Q 93.94 141.95 93.62 141.80"
/>
<path stroke="#c39b88" vector-effect="non-scaling-stroke" d="
  M 93.62 141.80
  L 86.45 150.37"
/>
<path stroke="#d27b49" vector-effect="non-scaling-stroke" d="
  M 94.51 155.94
  Q 94.30 151.19 94.14 147.50
  Q 94.03 144.86 94.33 142.25
  Q 94.36 141.92 93.62 141.80"
/>
<path stroke="#774d35" vector-effect="non-scaling-stroke" d="
  M 246.84 242.15
  L 305.35 241.90
  Q 305.83 241.90 305.83 241.42
  L 305.84 183.28"
/>
<path stroke="#5c4d48" vector-effect="non-scaling-stroke" d="
  M 305.84 183.28
  L 305.90 155.82
  Q 305.90 154.51 305.09 155.53
  C 300.88 160.86 295.91 165.96 291.83 170.98
  C 273.91 193.08 253.67 211.92 231.30 230.55
  Q 226.00 234.97 218.01 240.42
  Q 217.81 240.55 217.69 240.74
  Q 217.50 241.03 217.46 241.14
  Q 217.08 241.96 217.99 241.97
  L 246.84 242.15"
/>
<path stroke="#d27b49" vector-effect="non-scaling-stroke" d="
  M 305.84 183.28
  Q 304.18 183.67 302.74 185.48
  Q 283.49 209.69 260.08 229.89
  C 257.94 231.74 253.73 234.56 251.04 237.61
  Q 250.20 238.56 248.74 239.61
  Q 246.96 240.88 246.84 242.15"
/>
<path stroke="#7f8c92" vector-effect="non-scaling-stroke" d="
  M 117.20 160.59
  Q 118.00 158.30 118.76 156.03
  A 0.27 0.27 0.0 0 0 118.41 155.69
  Q 116.46 156.44 114.86 157.85
  C 98.72 172.16 92.84 194.54 95.36 215.66
  A 0.80 0.80 0.0 0 0 96.66 216.19
  L 111.76 203.89
  A 2.18 2.16 69.4 0 0 112.55 202.13
  C 112.06 188.72 112.73 173.50 117.20 160.59"
/>
<path stroke="#686d74" vector-effect="non-scaling-stroke" d="
  M 70.38 222.45
  Q 72.20 228.78 76.57 234.84
  A 0.20 0.20 0.0 0 0 76.88 234.87
  L 81.85 230.01
  A 2.34 2.34 0.0 0 0 82.40 227.51
  L 78.73 217.82"
/>
<path stroke="#7f8c92" vector-effect="non-scaling-stroke" d="
  M 78.73 217.82
  Q 77.93 213.74 77.04 209.85
  C 76.40 207.00 76.30 204.05 75.91 201.06
  A 0.94 0.94 0.0 0 0 74.45 200.40
  C 66.97 205.43 67.62 213.87 70.38 222.45"
/>
<path stroke="#e6dad2" vector-effect="non-scaling-stroke" d="
  M 78.73 217.82
  C 74.92 218.29 73.53 220.97 70.38 222.45"
/>
<path stroke="#686d74" vector-effect="non-scaling-stroke" d="
  M 129.25 237.50
  Q 127.77 238.53 126.81 239.89
  A 0.41 0.41 0.0 0 0 127.04 240.52
  Q 134.09 242.35 140.85 244.49
  C 159.14 250.28 182.35 246.86 197.53 234.71
  Q 199.77 232.92 202.07 231.07
  A 0.51 0.50 -56.7 0 0 201.89 230.19
  L 192.87 227.75"
/>
<path stroke="#7f8c92" vector-effect="non-scaling-stroke" d="
  M 192.87 227.75
  C 181.03 224.03 158.47 215.81 150.48 220.65
  C 145.23 223.84 139.99 229.06 134.77 233.17
  Q 132.01 235.34 129.25 237.50"
/>
<path stroke="#e6dad2" vector-effect="non-scaling-stroke" d="
  M 192.87 227.75
  Q 189.01 229.82 185.63 231.55
  Q 171.80 238.62 156.24 239.36
  Q 150.10 239.65 130.44 237.91
  Q 130.18 237.89 129.97 238.04
  Q 129.85 238.12 129.71 238.15
  Q 129.40 238.19 129.38 237.89
  Q 129.37 237.67 129.25 237.50"
/>
<path stroke="#7f8c92" vector-effect="non-scaling-stroke" d="
  M 61.61 246.79
  L 62.86 246.08
  A 0.44 0.44 0.0 0 0 63.02 245.48
  L 59.39 239.09
  A 3.15 1.08 60.4 0 0 56.90 236.88
  L 56.76 236.96
  A 3.15 1.08 60.4 0 0 57.38 240.24
  L 61.01 246.63
  A 0.44 0.44 0.0 0 0 61.61 246.79"
/>
<path stroke="#686d74" vector-effect="non-scaling-stroke" d="
  M 106.67 259.02
  L 102.94 261.97
  A 0.73 0.73 0.0 0 0 103.13 263.22
  C 115.65 268.06 128.96 270.05 141.13 262.72
  A 0.88 0.87 36.5 0 0 140.89 261.12
  L 135.08 259.69"
/>
<path stroke="#7f8c92" vector-effect="non-scaling-stroke" d="
  M 135.08 259.69
  Q 125.56 256.85 116.47 252.86
  C 113.75 251.66 109.61 256.21 106.67 259.02"
/>
<path stroke="#e6dad2" vector-effect="non-scaling-stroke" d="
  M 135.08 259.69
  Q 135.42 260.22 135.19 260.61
  Q 134.93 261.04 134.43 261.05
  C 130.70 261.08 126.96 261.19 123.29 260.43
  Q 121.92 260.15 120.25 260.13
  Q 114.67 260.06 106.67 259.02"
/>
<path stroke="#7f8c92" vector-effect="non-scaling-stroke" d="
  M 196.71 305.01
  L 301.02 305.01
  Q 301.67 305.01 301.41 304.42
  C 296.82 293.57 295.42 283.72 297.07 272.16"
/>
<path stroke="#63656a" vector-effect="non-scaling-stroke" d="
  M 297.07 272.16
  Q 298.37 265.61 301.77 259.55
  A 0.59 0.59 0.0 0 0 301.25 258.68
  Q 248.56 258.89 195.62 258.73
  C 193.13 258.72 190.31 259.06 187.87 259.69
  Q 176.43 262.66 168.50 263.23
  C 166.89 263.35 166.55 262.90 165.59 264.49
  C 162.45 269.64 155.59 274.15 150.53 277.35
  C 141.67 282.95 132.95 284.61 122.64 285.46
  Q 119.18 285.75 122.39 287.07
  Q 125.64 288.41 125.88 292.98
  C 126.29 300.82 119.76 300.57 113.50 300.80
  Q 104.65 301.12 96.52 300.34
  Q 95.03 300.20 96.28 301.01
  Q 99.30 302.98 102.80 304.20
  Q 105.66 305.19 109.85 305.18
  Q 153.29 305.04 196.71 305.01"
/>
<path stroke="#e1d2c8" vector-effect="non-scaling-stroke" d="
  M 297.07 272.16
  L 282.90 272.30"
/>
<path stroke="#636269" vector-effect="non-scaling-stroke" d="
  M 282.90 272.30
  C 282.87 263.55 270.10 263.15 268.94 272.31"
/>
<path stroke="#e1d2c8" vector-effect="non-scaling-stroke" d="
  M 268.94 272.31
  Q 264.04 273.30 258.27 272.81"
/>
<path stroke="#636269" vector-effect="non-scaling-stroke" d="
  M 258.27 272.81
  Q 258.26 269.24 255.91 267.59
  Q 254.41 266.53 250.89 266.52
  Q 227.11 266.47 203.33 266.71
  C 198.42 266.76 188.47 264.45 187.03 270.86
  C 186.05 275.23 189.78 277.83 193.84 277.86
  Q 205.77 277.95 217.27 277.76"
/>
<path stroke="#e1d2c8" vector-effect="non-scaling-stroke" d="
  M 217.27 277.76
  Q 217.69 283.17 216.67 288.48"
/>
<path stroke="#636269" vector-effect="non-scaling-stroke" d="
  M 216.67 288.48
  Q 180.64 288.54 144.50 288.45
  Q 137.74 288.43 137.73 294.76
  C 137.72 299.14 141.32 300.26 145.23 300.27
  Q 170.70 300.31 196.23 300.20"
/>
<path stroke="#e1d2c8" vector-effect="non-scaling-stroke" d="
  M 196.23 300.20
  Q 194.45 303.73 196.71 305.01"
/>
<path stroke="#7f8991" vector-effect="non-scaling-stroke" d="
  M 258.27 272.81
  Q 256.35 278.20 251.75 278.06
  Q 234.74 277.54 217.27 277.76"
/>
<path stroke="#7f8991" vector-effect="non-scaling-stroke" d="
  M 196.23 300.20
  Q 208.94 299.83 221.75 300.02
  C 225.81 300.08 228.87 297.27 228.17 293.13
  C 227.20 287.38 220.67 288.59 216.67 288.48"
/>
<path stroke="#7f8991" vector-effect="non-scaling-stroke" d="
  M 282.90 272.30
  C 280.20 279.11 270.97 280.24 268.94 272.31"
/>
<path stroke="#686d74" vector-effect="non-scaling-stroke" d="
  M 100.62 283.10
  A 1.04 1.04 0.0 0 0 101.41 282.84
  L 102.42 281.91
  A 1.04 1.04 0.0 0 0 102.20 280.22
  L 90.98 274.40
  A 1.04 1.04 0.0 0 0 89.79 274.57
  L 84.10 279.93
  A 1.04 1.04 0.0 0 0 84.72 281.72
  L 100.62 283.10"
/>
<path stroke="#e1d2c8" vector-effect="non-scaling-stroke" d="
  M 281.2143 294.2839
  A 6.02 5.72 -5.3 0 0 274.6916 289.1445
  A 6.02 5.72 -5.3 0 0 269.2257 295.3961
  A 6.02 5.72 -5.3 0 0 275.7484 300.5355
  A 6.02 5.72 -5.3 0 0 281.2143 294.2839"
/>
<path stroke="#e1d2c8" vector-effect="non-scaling-stroke" d="
  M 252.70 295.64
  A 3.83 3.83 0.0 0 0 248.87 291.81
  A 3.83 3.83 0.0 0 0 245.04 295.64
  A 3.83 3.83 0.0 0 0 248.87 299.47
  A 3.83 3.83 0.0 0 0 252.70 295.64"
/>
</g>
<path fill="#011f34" d="
  M 72.55 292.10
  C 71.89 292.70 70.88 292.98 70.17 293.64
  C 66.85 296.70 63.28 299.61 60.18 302.70
  Q 52.11 310.74 43.88 318.63
  C 43.17 319.31 42.29 319.76 41.64 320.40
  C 37.39 324.54 33.52 328.65 28.55 331.97
  Q 28.11 332.26 27.57 332.24
  Q 26.58 332.19 25.90 332.91
  Q 25.57 333.26 25.09 333.26
  L 16.78 333.35
  Q 16.32 333.35 15.93 333.10
  C 14.54 332.21 13.23 332.46 11.91 331.70
  C 2.74 326.41 -2.24 316.58 2.68 306.52
  C 3.87 304.08 6.53 300.88 8.56 298.85
  Q 22.22 285.23 35.85 271.59
  C 39.40 268.04 44.03 264.09 47.91 260.10
  Q 48.30 259.69 48.27 259.13
  Q 48.15 257.37 46.68 255.52
  Q 44.29 252.49 41.25 243.78
  C 38.25 235.20 38.55 222.80 47.85 218.62
  Q 49.61 217.83 50.54 217.23
  Q 51.01 216.93 50.92 216.38
  Q 50.49 213.83 51.10 211.43
  C 51.58 209.53 51.55 207.45 52.48 205.62
  C 52.85 204.88 52.60 204.42 52.85 203.74
  Q 56.27 194.28 63.32 187.24
  C 64.82 185.74 67.23 184.15 68.99 182.34
  Q 69.35 181.98 69.83 181.83
  Q 71.67 181.24 71.67 178.94
  Q 71.64 132.50 71.63 86.06
  Q 71.63 85.98 71.41 79.46
  C 71.10 70.55 71.99 60.66 71.52 52.50
  C 71.09 45.13 70.63 38.03 72.32 31.27
  Q 77.02 12.50 94.27 4.55
  C 102.42 0.79 111.94 0.14 120.98 0.76
  Q 121.87 0.83 124.45 1.41
  C 126.04 1.78 127.57 1.66 129.15 2.11
  Q 131.75 2.87 134.50 2.87
  Q 200.78 2.94 267.06 2.95
  Q 268.62 2.95 271.39 3.44
  C 273.37 3.79 275.23 3.61 277.14 4.22
  Q 278.92 4.79 280.72 5.28
  C 286.03 6.71 290.81 9.52 294.98 13.09
  Q 295.34 13.39 295.79 13.24
  Q 303.21 10.79 317.99 7.32
  C 319.94 6.86 321.72 6.72 323.30 6.23
  C 325.65 5.51 328.27 5.64 330.55 5.21
  Q 334.11 4.52 337.75 4.62
  C 339.40 4.66 341.05 4.11 342.75 4.04
  Q 357.08 3.46 371.41 4.13
  Q 371.59 4.14 371.90 4.30
  A 1.93 1.91 59.3 0 0 372.75 4.52
  C 375.39 4.61 378.85 4.34 381.30 5.31
  C 382.35 5.73 383.24 5.63 384.16 6.35
  C 386.04 7.83 387.23 9.34 387.36 11.89
  Q 387.63 17.42 386.97 20.00
  Q 386.17 23.18 386.11 24.73
  Q 386.10 25.24 385.89 25.69
  C 385.14 27.30 385.32 29.01 384.89 30.49
  Q 383.92 33.84 383.23 37.24
  Q 381.96 43.47 376.18 57.44
  Q 376.14 57.52 375.60 58.46
  C 375.23 59.11 375.35 59.78 375.02 60.47
  C 371.35 68.02 367.73 75.91 363.29 83.04
  Q 353.93 98.08 343.06 111.96
  Q 340.49 115.25 338.14 118.69
  Q 337.70 119.35 334.21 123.40
  Q 332.30 125.62 330.37 128.16
  C 327.17 132.38 324.59 134.75 322.22 138.07
  Q 321.19 139.52 321.19 141.73
  Q 321.12 190.79 321.21 240.55
  A 1.34 1.33 4.9 0 0 322.32 241.86
  C 332.77 243.64 331.32 256.88 321.62 257.21
  C 320.14 257.26 318.33 257.84 317.85 259.11
  Q 316.70 262.13 315.34 265.05
  C 313.58 268.80 313.65 272.29 312.94 276.21
  C 311.22 285.84 313.18 296.34 317.36 304.40
  Q 317.90 305.46 319.13 306.27
  Q 319.55 306.54 320.04 306.55
  C 324.89 306.64 328.89 309.82 328.27 314.98
  C 327.21 323.88 317.80 322.14 311.79 322.14
  Q 296.90 322.16 282.01 322.46
  Q 269.50 322.72 257.00 322.25
  C 254.62 322.16 252.17 322.50 250.00 322.44
  Q 235.41 322.01 220.83 322.09
  Q 202.39 322.20 183.95 322.22
  C 181.89 322.22 178.59 322.69 175.75 322.17
  C 174.85 322.00 173.21 322.53 172.08 322.49
  C 165.66 322.22 159.02 321.90 152.61 322.35
  C 151.44 322.44 150.19 322.19 149.13 322.19
  Q 129.82 322.24 110.50 322.19
  C 107.91 322.18 105.71 321.57 103.49 321.41
  Q 99.76 321.16 96.35 319.53
  Q 95.91 319.32 95.42 319.33
  C 94.64 319.34 94.23 318.85 93.72 318.64
  C 84.93 314.96 78.77 307.47 75.39 298.73
  Q 74.26 295.84 73.56 292.43
  Q 73.34 291.39 72.55 292.10
  Z
  M 86.34 38.83
  L 86.17 57.51
  A 0.31 0.30 -16.3 0 0 86.64 57.76
  L 94.56 52.48
  C 107.96 46.49 124.22 47.87 136.80 55.02
  A 0.60 0.60 0.0 0 0 137.69 54.49
  L 137.43 28.78
  L 137.68 24.81
  A 0.66 0.63 16.8 0 0 137.35 24.22
  C 131.36 20.91 124.84 18.03 118.23 17.32
  C 103.20 15.70 88.76 22.79 86.34 38.83
  Z
  M 181.98 28.22
  L 182.05 83.28
  Q 182.05 84.09 182.69 83.60
  Q 183.71 82.83 185.04 81.28
  C 204.95 58.06 232.69 40.57 260.68 27.79
  L 273.97 21.42
  Q 275.94 20.47 273.86 20.05
  Q 273.57 19.99 272.12 19.99
  Q 227.44 19.89 182.84 20.15
  A 0.85 0.85 0.0 0 0 182.00 20.99
  L 181.98 28.22
  Z
  M 153.52 28.33
  L 153.45 100.91
  A 0.18 0.18 0.0 0 0 153.75 101.05
  Q 159.71 95.54 166.80 91.57
  A 0.97 0.95 75.9 0 0 167.29 90.73
  L 166.91 28.73
  L 166.66 20.74
  A 0.76 0.75 88.4 0 0 165.90 20.01
  L 154.35 20.11
  Q 153.57 20.12 153.56 20.89
  L 153.52 28.33
  Z
  M 19.17 316.35
  Q 19.83 317.30 21.07 317.74
  A 0.91 0.90 -56.2 0 0 22.00 317.55
  L 110.88 234.30
  Q 123.44 223.27 136.82 212.32
  C 148.69 202.59 158.25 200.92 173.58 204.78
  Q 186.10 207.94 198.47 211.37
  L 221.47 216.21
  Q 222.06 216.33 222.52 215.94
  L 237.40 203.39
  A 0.60 0.60 0.0 0 0 237.07 202.34
  L 230.55 201.73
  Q 219.39 198.69 209.26 196.92
  C 200.29 195.36 202.56 184.26 210.75 183.09
  Q 212.27 182.87 216.01 183.01
  L 220.02 183.35
  L 224.64 183.89
  Q 238.76 185.81 253.05 186.11
  A 2.22 2.17 27.2 0 0 254.35 185.71
  Q 262.97 179.75 269.22 170.86
  L 270.70 169.06
  A 0.42 0.41 -71.9 0 0 270.36 168.38
  C 264.99 168.77 253.22 170.86 250.34 164.39
  C 248.00 159.11 253.57 154.45 258.26 153.44
  C 268.94 153.33 280.23 151.35 289.55 146.16
  C 300.80 139.90 309.98 129.41 317.43 118.71
  Q 318.12 117.72 318.45 116.71
  A 0.36 0.36 0.0 0 0 318.04 116.25
  L 303.54 118.68
  C 293.50 119.58 283.33 119.23 273.25 119.35
  C 269.50 119.40 266.30 114.51 267.30 111.03
  C 269.11 104.70 277.07 104.84 283.78 103.99
  Q 298.06 102.30 312.21 100.00
  C 324.40 98.03 333.22 95.16 341.34 85.81
  C 356.85 67.95 365.40 44.17 370.27 22.22
  Q 370.40 21.67 369.85 21.53
  Q 366.28 20.61 363.61 20.87
  Q 343.19 20.30 330.74 21.53
  Q 313.33 23.25 294.20 30.64
  C 266.84 41.20 240.77 55.33 217.58 73.34
  C 199.18 87.62 189.76 105.06 185.78 128.19
  C 184.72 134.33 179.29 140.27 172.74 135.99
  C 166.38 131.82 171.92 113.78 173.87 108.02
  Q 174.17 107.14 173.35 107.57
  C 158.19 115.52 147.15 130.00 139.65 144.99
  C 133.10 158.10 130.19 173.03 129.32 187.71
  Q 129.28 188.37 129.86 188.07
  Q 132.51 186.71 134.85 184.86
  C 159.18 165.67 183.78 146.85 208.04 127.58
  Q 241.49 101.01 274.92 74.42
  Q 285.06 66.35 294.93 57.96
  C 302.74 51.32 314.09 62.21 305.61 69.37
  C 290.75 81.90 275.27 93.80 260.28 105.88
  C 215.17 142.23 169.26 177.54 123.97 213.66
  Q 115.55 220.38 108.59 226.46
  Q 64.46 265.04 22.90 306.40
  Q 21.10 308.20 18.30 311.66
  C 16.79 313.52 17.44 315.10 19.17 316.35
  Z
  M 92.96 71.47
  C 90.54 73.21 86.36 76.20 86.31 79.50
  Q 86.22 85.80 86.28 88.25
  L 86.32 117.93
  Q 86.32 118.53 86.84 118.24
  L 93.99 114.29
  C 106.12 109.51 121.59 109.09 133.90 114.56
  C 135.19 115.14 135.83 115.93 136.97 116.82
  Q 137.60 117.31 137.59 116.51
  L 137.26 82.13
  L 137.73 74.87
  A 1.38 1.36 -67.8 0 0 137.27 73.76
  Q 129.42 66.77 119.37 65.35
  C 110.68 64.13 100.34 65.81 92.96 71.47
  Z
  M 94.20 131.47
  Q 90.60 134.04 87.75 136.76
  C 85.30 139.10 86.19 146.19 86.45 150.37
  Q 86.09 157.21 86.35 165.50
  Q 86.38 166.50 86.65 166.86
  Q 87.19 167.60 87.67 166.83
  L 94.51 155.94
  C 100.88 147.86 107.12 141.08 115.83 135.65
  Q 119.96 133.08 126.23 132.06
  Q 127.67 131.82 128.60 130.21
  Q 128.85 129.78 128.44 129.49
  Q 125.16 127.19 121.67 126.66
  Q 106.93 124.42 94.20 131.47
  Z
  M 246.84 242.15
  L 305.35 241.90
  Q 305.83 241.90 305.83 241.42
  L 305.84 183.28
  L 305.90 155.82
  Q 305.90 154.51 305.09 155.53
  C 300.88 160.86 295.91 165.96 291.83 170.98
  C 273.91 193.08 253.67 211.92 231.30 230.55
  Q 226.00 234.97 218.01 240.42
  Q 217.81 240.55 217.69 240.74
  Q 217.50 241.03 217.46 241.14
  Q 217.08 241.96 217.99 241.97
  L 246.84 242.15
  Z
  M 117.20 160.59
  Q 118.00 158.30 118.76 156.03
  A 0.27 0.27 0.0 0 0 118.41 155.69
  Q 116.46 156.44 114.86 157.85
  C 98.72 172.16 92.84 194.54 95.36 215.66
  A 0.80 0.80 0.0 0 0 96.66 216.19
  L 111.76 203.89
  A 2.18 2.16 69.4 0 0 112.55 202.13
  C 112.06 188.72 112.73 173.50 117.20 160.59
  Z
  M 70.38 222.45
  Q 72.20 228.78 76.57 234.84
  A 0.20 0.20 0.0 0 0 76.88 234.87
  L 81.85 230.01
  A 2.34 2.34 0.0 0 0 82.40 227.51
  L 78.73 217.82
  Q 77.93 213.74 77.04 209.85
  C 76.40 207.00 76.30 204.05 75.91 201.06
  A 0.94 0.94 0.0 0 0 74.45 200.40
  C 66.97 205.43 67.62 213.87 70.38 222.45
  Z
  M 129.25 237.50
  Q 127.77 238.53 126.81 239.89
  A 0.41 0.41 0.0 0 0 127.04 240.52
  Q 134.09 242.35 140.85 244.49
  C 159.14 250.28 182.35 246.86 197.53 234.71
  Q 199.77 232.92 202.07 231.07
  A 0.51 0.50 -56.7 0 0 201.89 230.19
  L 192.87 227.75
  C 181.03 224.03 158.47 215.81 150.48 220.65
  C 145.23 223.84 139.99 229.06 134.77 233.17
  Q 132.01 235.34 129.25 237.50
  Z
  M 61.61 246.79
  L 62.86 246.08
  A 0.44 0.44 0.0 0 0 63.02 245.48
  L 59.39 239.09
  A 3.15 1.08 60.4 0 0 56.90 236.88
  L 56.76 236.96
  A 3.15 1.08 60.4 0 0 57.38 240.24
  L 61.01 246.63
  A 0.44 0.44 0.0 0 0 61.61 246.79
  Z
  M 106.67 259.02
  L 102.94 261.97
  A 0.73 0.73 0.0 0 0 103.13 263.22
  C 115.65 268.06 128.96 270.05 141.13 262.72
  A 0.88 0.87 36.5 0 0 140.89 261.12
  L 135.08 259.69
  Q 125.56 256.85 116.47 252.86
  C 113.75 251.66 109.61 256.21 106.67 259.02
  Z
  M 196.71 305.01
  L 301.02 305.01
  Q 301.67 305.01 301.41 304.42
  C 296.82 293.57 295.42 283.72 297.07 272.16
  Q 298.37 265.61 301.77 259.55
  A 0.59 0.59 0.0 0 0 301.25 258.68
  Q 248.56 258.89 195.62 258.73
  C 193.13 258.72 190.31 259.06 187.87 259.69
  Q 176.43 262.66 168.50 263.23
  C 166.89 263.35 166.55 262.90 165.59 264.49
  C 162.45 269.64 155.59 274.15 150.53 277.35
  C 141.67 282.95 132.95 284.61 122.64 285.46
  Q 119.18 285.75 122.39 287.07
  Q 125.64 288.41 125.88 292.98
  C 126.29 300.82 119.76 300.57 113.50 300.80
  Q 104.65 301.12 96.52 300.34
  Q 95.03 300.20 96.28 301.01
  Q 99.30 302.98 102.80 304.20
  Q 105.66 305.19 109.85 305.18
  Q 153.29 305.04 196.71 305.01
  Z
  M 100.62 283.10
  A 1.04 1.04 0.0 0 0 101.41 282.84
  L 102.42 281.91
  A 1.04 1.04 0.0 0 0 102.20 280.22
  L 90.98 274.40
  A 1.04 1.04 0.0 0 0 89.79 274.57
  L 84.10 279.93
  A 1.04 1.04 0.0 0 0 84.72 281.72
  L 100.62 283.10
  Z"
/>
<path fill="#fdf9f0" d="
  M 137.43 28.78
  Q 137.40 29.64 137.02 29.95
  Q 136.76 30.17 136.50 29.96
  L 136.25 29.75
  Q 136.01 29.56 135.72 29.50
  Q 131.05 28.57 126.38 27.65
  Q 126.28 27.63 126.13 27.65
  Q 125.89 27.67 125.79 27.47
  A 0.30 0.29 80.6 0 0 125.56 27.30
  Q 115.96 26.08 106.39 27.43
  Q 99.01 28.47 94.13 32.21
  L 86.34 38.83
  C 88.76 22.79 103.20 15.70 118.23 17.32
  C 124.84 18.03 131.36 20.91 137.35 24.22
  A 0.66 0.63 16.8 0 1 137.68 24.81
  L 137.43 28.78
  Z"
/>
<path fill="#fdf9f0" d="
  M 260.68 27.79
  Q 256.91 27.23 253.30 27.83
  C 249.96 28.38 245.56 28.43 242.40 28.38
  Q 212.31 27.92 181.98 28.22
  L 182.00 20.99
  A 0.85 0.85 0.0 0 1 182.84 20.15
  Q 227.44 19.89 272.12 19.99
  Q 273.57 19.99 273.86 20.05
  Q 275.94 20.47 273.97 21.42
  L 260.68 27.79
  Z"
/>
<path fill="#fdf9f0" d="
  M 166.91 28.73
  L 153.52 28.33
  L 153.56 20.89
  Q 153.57 20.12 154.35 20.11
  L 165.90 20.01
  A 0.76 0.75 88.4 0 1 166.66 20.74
  L 166.91 28.73
  Z"
/>
<path fill="#fdf9f0" d="
  M 363.61 20.87
  Q 362.96 25.97 361.65 31.08
  Q 356.11 52.70 342.81 70.58
  C 331.74 85.48 317.88 94.92 299.94 99.64
  C 299.20 99.84 298.50 100.61 297.75 100.77
  Q 290.78 102.36 283.78 103.99
  C 277.07 104.84 269.11 104.70 267.30 111.03
  C 266.30 114.51 269.50 119.40 273.25 119.35
  C 283.33 119.23 293.50 119.58 303.54 118.68
  Q 304.31 118.49 304.76 118.78
  Q 305.20 119.05 304.94 119.50
  C 298.09 131.06 289.04 139.29 277.33 145.65
  C 270.55 149.33 265.77 151.53 258.26 153.44
  C 253.57 154.45 248.00 159.11 250.34 164.39
  C 253.22 170.86 264.99 168.77 270.36 168.38
  A 0.42 0.41 -71.9 0 1 270.70 169.06
  L 269.22 170.86
  Q 254.98 176.89 250.87 178.12
  Q 242.56 180.62 228.97 182.38
  C 224.68 182.93 220.39 182.92 216.01 183.01
  Q 212.27 182.87 210.75 183.09
  C 202.56 184.26 200.29 195.36 209.26 196.92
  Q 219.39 198.69 230.55 201.73
  Q 225.57 203.85 220.90 205.68
  C 213.83 208.46 206.00 209.57 198.47 211.37
  Q 186.10 207.94 173.58 204.78
  C 158.25 200.92 148.69 202.59 136.82 212.32
  Q 123.44 223.27 110.88 234.30
  Q 100.55 238.90 91.90 247.15
  C 68.73 269.23 45.16 290.85 21.96 312.90
  C 20.82 313.98 20.16 315.14 19.17 316.35
  C 17.44 315.10 16.79 313.52 18.30 311.66
  Q 21.10 308.20 22.90 306.40
  Q 64.46 265.04 108.59 226.46
  Q 115.55 220.38 123.97 213.66
  C 169.26 177.54 215.17 142.23 260.28 105.88
  C 275.27 93.80 290.75 81.90 305.61 69.37
  C 314.09 62.21 302.74 51.32 294.93 57.96
  Q 285.06 66.35 274.92 74.42
  Q 241.49 101.01 208.04 127.58
  C 183.78 146.85 159.18 165.67 134.85 184.86
  Q 132.51 186.71 129.86 188.07
  Q 129.28 188.37 129.32 187.71
  C 130.19 173.03 133.10 158.10 139.65 144.99
  C 147.15 130.00 158.19 115.52 173.35 107.57
  Q 174.17 107.14 173.87 108.02
  C 171.92 113.78 166.38 131.82 172.74 135.99
  C 179.29 140.27 184.72 134.33 185.78 128.19
  C 189.76 105.06 199.18 87.62 217.58 73.34
  C 240.77 55.33 266.84 41.20 294.20 30.64
  Q 313.33 23.25 330.74 21.53
  Q 343.19 20.30 363.61 20.87
  Z"
/>
<path fill="#cfbbb3" d="
  M 363.61 20.87
  Q 366.28 20.61 369.85 21.53
  Q 370.40 21.67 370.27 22.22
  C 365.40 44.17 356.85 67.95 341.34 85.81
  C 333.22 95.16 324.40 98.03 312.21 100.00
  Q 298.06 102.30 283.78 103.99
  Q 290.78 102.36 297.75 100.77
  C 298.50 100.61 299.20 99.84 299.94 99.64
  C 317.88 94.92 331.74 85.48 342.81 70.58
  Q 356.11 52.70 361.65 31.08
  Q 362.96 25.97 363.61 20.87
  Z"
/>
<path fill="#ed7b35" d="
  M 137.43 28.78
  L 137.69 54.49
  A 0.60 0.60 0.0 0 1 136.80 55.02
  C 124.22 47.87 107.96 46.49 94.56 52.48
  Q 93.58 42.75 94.13 32.21
  Q 99.01 28.47 106.39 27.43
  Q 115.96 26.08 125.56 27.30
  A 0.30 0.29 80.6 0 1 125.79 27.47
  Q 125.89 27.67 126.13 27.65
  Q 126.28 27.63 126.38 27.65
  Q 131.05 28.57 135.72 29.50
  Q 136.01 29.56 136.25 29.75
  L 136.50 29.96
  Q 136.76 30.17 137.02 29.95
  Q 137.40 29.64 137.43 28.78
  Z"
/>
<path fill="#ed7b35" d="
  M 260.68 27.79
  C 232.69 40.57 204.95 58.06 185.04 81.28
  Q 183.71 82.83 182.69 83.60
  Q 182.05 84.09 182.05 83.28
  L 181.98 28.22
  Q 212.31 27.92 242.40 28.38
  C 245.56 28.43 249.96 28.38 253.30 27.83
  Q 256.91 27.23 260.68 27.79
  Z"
/>
<path fill="#ed7b35" d="
  M 153.52 28.33
  L 166.91 28.73
  L 167.29 90.73
  A 0.97 0.95 75.9 0 1 166.80 91.57
  Q 159.71 95.54 153.75 101.05
  A 0.18 0.18 0.0 0 1 153.45 100.91
  L 153.52 28.33
  Z"
/>
<path fill="#b67a5c" d="
  M 94.13 32.21
  Q 93.58 42.75 94.56 52.48
  L 86.64 57.76
  A 0.31 0.30 -16.3 0 1 86.17 57.51
  L 86.34 38.83
  L 94.13 32.21
  Z"
/>
<path fill="#ed7b35" d="
  M 40.27 57.00
  Q 38.38 55.73 36.20 54.72
  A 1.66 1.65 -48.8 0 1 36.01 51.82
  C 38.64 50.15 41.53 49.32 43.87 47.22
  C 45.75 45.54 46.21 42.88 49.77 42.02
  Q 50.23 41.90 50.63 42.17
  C 52.75 43.62 53.47 45.93 55.04 47.38
  Q 58.10 50.19 61.69 52.05
  A 1.04 1.04 0.0 0 1 61.60 53.94
  C 57.76 55.48 52.89 60.20 51.55 62.53
  C 50.16 64.96 48.52 65.06 46.52 63.19
  C 44.33 61.15 42.53 58.52 40.27 57.00
  Z"
/>
<path fill="#fdf9f0" d="
  M 137.26 82.13
  Q 135.38 79.26 134.48 78.57
  Q 129.70 74.89 124.50 74.23
  C 115.29 73.06 104.12 73.83 95.68 78.89
  L 94.64 79.36
  L 93.79 79.20
  Q 93.37 79.12 93.53 78.72
  Q 95.11 74.93 92.96 71.47
  C 100.34 65.81 110.68 64.13 119.37 65.35
  Q 129.42 66.77 137.27 73.76
  A 1.38 1.36 -67.8 0 1 137.73 74.87
  L 137.26 82.13
  Z"
/>
<path fill="#cfbbb3" d="
  M 92.96 71.47
  Q 95.11 74.93 93.53 78.72
  Q 93.37 79.12 93.79 79.20
  L 94.64 79.36
  Q 90.01 82.25 86.28 88.25
  Q 86.22 85.80 86.31 79.50
  C 86.36 76.20 90.54 73.21 92.96 71.47
  Z"
/>
<path fill="#ed7b35" d="
  M 137.26 82.13
  L 137.59 116.51
  Q 137.60 117.31 136.97 116.82
  C 135.83 115.93 135.19 115.14 133.90 114.56
  C 121.59 109.09 106.12 109.51 93.99 114.29
  Q 93.57 113.36 94.17 112.51
  Q 94.45 112.12 94.37 111.64
  C 94.23 110.78 93.97 109.93 93.99 109.06
  Q 94.36 95.40 94.51 81.74
  Q 94.51 81.27 94.81 80.89
  Q 95.45 80.10 95.68 78.89
  C 104.12 73.83 115.29 73.06 124.50 74.23
  Q 129.70 74.89 134.48 78.57
  Q 135.38 79.26 137.26 82.13
  Z"
/>
<path fill="#b67a5c" d="
  M 95.68 78.89
  Q 95.45 80.10 94.81 80.89
  Q 94.51 81.27 94.51 81.74
  Q 94.36 95.40 93.99 109.06
  C 93.97 109.93 94.23 110.78 94.37 111.64
  Q 94.45 112.12 94.17 112.51
  Q 93.57 113.36 93.99 114.29
  L 86.84 118.24
  Q 86.32 118.53 86.32 117.93
  L 86.28 88.25
  Q 90.01 82.25 94.64 79.36
  L 95.68 78.89
  Z"
/>
<path fill="#cfbbb3" d="
  M 258.26 153.44
  C 265.77 151.53 270.55 149.33 277.33 145.65
  C 289.04 139.29 298.09 131.06 304.94 119.50
  Q 305.20 119.05 304.76 118.78
  Q 304.31 118.49 303.54 118.68
  L 318.04 116.25
  A 0.36 0.36 0.0 0 1 318.45 116.71
  Q 318.12 117.72 317.43 118.71
  C 309.98 129.41 300.80 139.90 289.55 146.16
  C 280.23 151.35 268.94 153.33 258.26 153.44
  Z"
/>
<path fill="#fdf9f0" d="
  M 115.83 135.65
  Q 111.48 134.48 106.51 135.91
  Q 99.29 137.98 93.96 141.45
  Q 93.87 141.56 93.73 141.50
  Q 93.62 141.45 93.62 141.34
  L 94.20 131.47
  Q 106.93 124.42 121.67 126.66
  Q 125.16 127.19 128.44 129.49
  Q 128.85 129.78 128.60 130.21
  Q 127.67 131.82 126.23 132.06
  Q 119.96 133.08 115.83 135.65
  Z"
/>
<path fill="#cfbbb3" d="
  M 94.20 131.47
  L 93.62 141.34
  Q 93.62 141.45 93.73 141.50
  Q 93.87 141.56 93.96 141.45
  Q 93.94 141.95 93.62 141.80
  L 86.45 150.37
  C 86.19 146.19 85.30 139.10 87.75 136.76
  Q 90.60 134.04 94.20 131.47
  Z"
/>
<path fill="#ed7b35" d="
  M 115.83 135.65
  C 107.12 141.08 100.88 147.86 94.51 155.94
  Q 94.30 151.19 94.14 147.50
  Q 94.03 144.86 94.33 142.25
  Q 94.36 141.92 93.62 141.80
  Q 93.94 141.95 93.96 141.45
  Q 99.29 137.98 106.51 135.91
  Q 111.48 134.48 115.83 135.65
  Z"
/>
<path fill="#b67a5c" d="
  M 93.62 141.80
  Q 94.36 141.92 94.33 142.25
  Q 94.03 144.86 94.14 147.50
  Q 94.30 151.19 94.51 155.94
  L 87.67 166.83
  Q 87.19 167.60 86.65 166.86
  Q 86.38 166.50 86.35 165.50
  Q 86.09 157.21 86.45 150.37
  L 93.62 141.80
  Z"
/>
<path fill="#b67a5c" d="
  M 305.84 183.28
  Q 304.18 183.67 302.74 185.48
  Q 283.49 209.69 260.08 229.89
  C 257.94 231.74 253.73 234.56 251.04 237.61
  Q 250.20 238.56 248.74 239.61
  Q 246.96 240.88 246.84 242.15
  L 217.99 241.97
  Q 217.08 241.96 217.46 241.14
  Q 217.50 241.03 217.69 240.74
  Q 217.81 240.55 218.01 240.42
  Q 226.00 234.97 231.30 230.55
  C 253.67 211.92 273.91 193.08 291.83 170.98
  C 295.91 165.96 300.88 160.86 305.09 155.53
  Q 305.90 154.51 305.90 155.82
  L 305.84 183.28
  Z"
/>
<path fill="#fdf9f0" d="
  M 117.20 160.59
  C 112.73 173.50 112.06 188.72 112.55 202.13
  A 2.18 2.16 69.4 0 1 111.76 203.89
  L 96.66 216.19
  A 0.80 0.80 0.0 0 1 95.36 215.66
  C 92.84 194.54 98.72 172.16 114.86 157.85
  Q 116.46 156.44 118.41 155.69
  A 0.27 0.27 0.0 0 1 118.76 156.03
  Q 118.00 158.30 117.20 160.59
  Z"
/>
<rect fill="#ed7b35" x="-7.43" y="-7.25" transform="translate(41.33,168.68) rotate(44.1)" width="14.86" height="14.50" rx="6.13"/>
<path fill="#cfbbb3" d="
  M 269.22 170.86
  Q 262.97 179.75 254.35 185.71
  A 2.22 2.17 27.2 0 1 253.05 186.11
  Q 238.76 185.81 224.64 183.89
  Q 223.36 182.81 220.02 183.35
  L 216.01 183.01
  C 220.39 182.92 224.68 182.93 228.97 182.38
  Q 242.56 180.62 250.87 178.12
  Q 254.98 176.89 269.22 170.86
  Z"
/>
<path fill="#c4aa9f" d="
  M 220.02 183.35
  Q 223.36 182.81 224.64 183.89
  L 220.02 183.35
  Z"
/>
<path fill="#ed7b35" d="
  M 305.84 183.28
  L 305.83 241.42
  Q 305.83 241.90 305.35 241.90
  L 246.84 242.15
  Q 246.96 240.88 248.74 239.61
  Q 250.20 238.56 251.04 237.61
  C 253.73 234.56 257.94 231.74 260.08 229.89
  Q 283.49 209.69 302.74 185.48
  Q 304.18 183.67 305.84 183.28
  Z"
/>
<path fill="#fdf9f0" d="
  M 78.73 217.82
  C 74.92 218.29 73.53 220.97 70.38 222.45
  C 67.62 213.87 66.97 205.43 74.45 200.40
  A 0.94 0.94 0.0 0 1 75.91 201.06
  C 76.30 204.05 76.40 207.00 77.04 209.85
  Q 77.93 213.74 78.73 217.82
  Z"
/>
<path fill="#cfbbb3" d="
  M 230.55 201.73
  L 237.07 202.34
  A 0.60 0.60 0.0 0 1 237.40 203.39
  L 222.52 215.94
  Q 222.06 216.33 221.47 216.21
  L 198.47 211.37
  C 206.00 209.57 213.83 208.46 220.90 205.68
  Q 225.57 203.85 230.55 201.73
  Z"
/>
<path fill="#cfbbb3" d="
  M 78.73 217.82
  L 82.40 227.51
  A 2.34 2.34 0.0 0 1 81.85 230.01
  L 76.88 234.87
  A 0.20 0.20 0.0 0 1 76.57 234.84
  Q 72.20 228.78 70.38 222.45
  C 73.53 220.97 74.92 218.29 78.73 217.82
  Z"
/>
<path fill="#fdf9f0" d="
  M 192.87 227.75
  Q 189.01 229.82 185.63 231.55
  Q 171.80 238.62 156.24 239.36
  Q 150.10 239.65 130.44 237.91
  Q 130.18 237.89 129.97 238.04
  Q 129.85 238.12 129.71 238.15
  Q 129.40 238.19 129.38 237.89
  Q 129.37 237.67 129.25 237.50
  Q 132.01 235.34 134.77 233.17
  C 139.99 229.06 145.23 223.84 150.48 220.65
  C 158.47 215.81 181.03 224.03 192.87 227.75
  Z"
/>
<path fill="#cfbbb3" d="
  M 192.87 227.75
  L 201.89 230.19
  A 0.51 0.50 -56.7 0 1 202.07 231.07
  Q 199.77 232.92 197.53 234.71
  C 182.35 246.86 159.14 250.28 140.85 244.49
  Q 134.09 242.35 127.04 240.52
  A 0.41 0.41 0.0 0 1 126.81 239.89
  Q 127.77 238.53 129.25 237.50
  Q 129.37 237.67 129.38 237.89
  Q 129.40 238.19 129.71 238.15
  Q 129.85 238.12 129.97 238.04
  Q 130.18 237.89 130.44 237.91
  Q 150.10 239.65 156.24 239.36
  Q 171.80 238.62 185.63 231.55
  Q 189.01 229.82 192.87 227.75
  Z"
/>
<path fill="#cfbbb3" d="
  M 110.88 234.30
  L 22.00 317.55
  A 0.91 0.90 -56.2 0 1 21.07 317.74
  Q 19.83 317.30 19.17 316.35
  C 20.16 315.14 20.82 313.98 21.96 312.90
  C 45.16 290.85 68.73 269.23 91.90 247.15
  Q 100.55 238.90 110.88 234.30
  Z"
/>
<path fill="#fdf9f0" d="
  M 61.61 246.79
  A 0.44 0.44 0.0 0 1 61.01 246.63
  L 57.38 240.24
  A 3.15 1.08 60.4 0 1 56.76 236.96
  L 56.90 236.88
  A 3.15 1.08 60.4 0 1 59.39 239.09
  L 63.02 245.48
  A 0.44 0.44 0.0 0 1 62.86 246.08
  L 61.61 246.79
  Z"
/>
<path fill="#fdf9f0" d="
  M 135.08 259.69
  Q 135.42 260.22 135.19 260.61
  Q 134.93 261.04 134.43 261.05
  C 130.70 261.08 126.96 261.19 123.29 260.43
  Q 121.92 260.15 120.25 260.13
  Q 114.67 260.06 106.67 259.02
  C 109.61 256.21 113.75 251.66 116.47 252.86
  Q 125.56 256.85 135.08 259.69
  Z"
/>
<path fill="#cfbbb3" d="
  M 106.67 259.02
  Q 114.67 260.06 120.25 260.13
  Q 121.92 260.15 123.29 260.43
  C 126.96 261.19 130.70 261.08 134.43 261.05
  Q 134.93 261.04 135.19 260.61
  Q 135.42 260.22 135.08 259.69
  L 140.89 261.12
  A 0.88 0.87 36.5 0 1 141.13 262.72
  C 128.96 270.05 115.65 268.06 103.13 263.22
  A 0.73 0.73 0.0 0 1 102.94 261.97
  L 106.67 259.02
  Z"
/>
<path fill="#c4aa9f" d="
  M 297.07 272.16
  L 282.90 272.30
  C 282.87 263.55 270.10 263.15 268.94 272.31
  Q 264.04 273.30 258.27 272.81
  Q 258.26 269.24 255.91 267.59
  Q 254.41 266.53 250.89 266.52
  Q 227.11 266.47 203.33 266.71
  C 198.42 266.76 188.47 264.45 187.03 270.86
  C 186.05 275.23 189.78 277.83 193.84 277.86
  Q 205.77 277.95 217.27 277.76
  Q 217.69 283.17 216.67 288.48
  Q 180.64 288.54 144.50 288.45
  Q 137.74 288.43 137.73 294.76
  C 137.72 299.14 141.32 300.26 145.23 300.27
  Q 170.70 300.31 196.23 300.20
  Q 194.45 303.73 196.71 305.01
  Q 153.29 305.04 109.85 305.18
  Q 105.66 305.19 102.80 304.20
  Q 99.30 302.98 96.28 301.01
  Q 95.03 300.20 96.52 300.34
  Q 104.65 301.12 113.50 300.80
  C 119.76 300.57 126.29 300.82 125.88 292.98
  Q 125.64 288.41 122.39 287.07
  Q 119.18 285.75 122.64 285.46
  C 132.95 284.61 141.67 282.95 150.53 277.35
  C 155.59 274.15 162.45 269.64 165.59 264.49
  C 166.55 262.90 166.89 263.35 168.50 263.23
  Q 176.43 262.66 187.87 259.69
  C 190.31 259.06 193.13 258.72 195.62 258.73
  Q 248.56 258.89 301.25 258.68
  A 0.59 0.59 0.0 0 1 301.77 259.55
  Q 298.37 265.61 297.07 272.16
  Z"
/>
<path fill="#011932" d="
  M 282.90 272.30
  C 280.20 279.11 270.97 280.24 268.94 272.31
  C 270.10 263.15 282.87 263.55 282.90 272.30
  Z"
/>
<path fill="#011932" d="
  M 258.27 272.81
  Q 256.35 278.20 251.75 278.06
  Q 234.74 277.54 217.27 277.76
  Q 205.77 277.95 193.84 277.86
  C 189.78 277.83 186.05 275.23 187.03 270.86
  C 188.47 264.45 198.42 266.76 203.33 266.71
  Q 227.11 266.47 250.89 266.52
  Q 254.41 266.53 255.91 267.59
  Q 258.26 269.24 258.27 272.81
  Z"
/>
<path fill="#fdf9f0" d="
  M 297.07 272.16
  C 295.42 283.72 296.82 293.57 301.41 304.42
  Q 301.67 305.01 301.02 305.01
  L 196.71 305.01
  Q 194.45 303.73 196.23 300.20
  Q 208.94 299.83 221.75 300.02
  C 225.81 300.08 228.87 297.27 228.17 293.13
  C 227.20 287.38 220.67 288.59 216.67 288.48
  Q 217.69 283.17 217.27 277.76
  Q 234.74 277.54 251.75 278.06
  Q 256.35 278.20 258.27 272.81
  Q 264.04 273.30 268.94 272.31
  C 270.97 280.24 280.20 279.11 282.90 272.30
  L 297.07 272.16
  Z
  M 281.2143 294.2839
  A 6.02 5.72 -5.3 0 0 274.6916 289.1445
  A 6.02 5.72 -5.3 0 0 269.2257 295.3961
  A 6.02 5.72 -5.3 0 0 275.7484 300.5355
  A 6.02 5.72 -5.3 0 0 281.2143 294.2839
  Z
  M 252.70 295.64
  A 3.83 3.83 0.0 0 0 248.87 291.81
  A 3.83 3.83 0.0 0 0 245.04 295.64
  A 3.83 3.83 0.0 0 0 248.87 299.47
  A 3.83 3.83 0.0 0 0 252.70 295.64
  Z"
/>
<path fill="#cfbbb3" d="
  M 100.62 283.10
  L 84.72 281.72
  A 1.04 1.04 0.0 0 1 84.10 279.93
  L 89.79 274.57
  A 1.04 1.04 0.0 0 1 90.98 274.40
  L 102.20 280.22
  A 1.04 1.04 0.0 0 1 102.42 281.91
  L 101.41 282.84
  A 1.04 1.04 0.0 0 1 100.62 283.10
  Z"
/>
<path fill="#011932" d="
  M 216.67 288.48
  C 220.67 288.59 227.20 287.38 228.17 293.13
  C 228.87 297.27 225.81 300.08 221.75 300.02
  Q 208.94 299.83 196.23 300.20
  Q 170.70 300.31 145.23 300.27
  C 141.32 300.26 137.72 299.14 137.73 294.76
  Q 137.74 288.43 144.50 288.45
  Q 180.64 288.54 216.67 288.48
  Z"
/>
<ellipse fill="#c4aa9f" cx="0.00" cy="0.00" transform="translate(275.22,294.84) rotate(-5.3)" rx="6.02" ry="5.72"/>
<circle fill="#c4aa9f" cx="248.87" cy="295.64" r="3.83"/>
</svg>
