<?xml version="1.0" encoding="UTF-8" standalone="no"?>
<!DOCTYPE svg PUBLIC "-//W3C//DTD SVG 1.1//EN" "http://www.w3.org/Graphics/SVG/1.1/DTD/svg11.dtd">
<svg xmlns="http://www.w3.org/2000/svg" version="1.1" viewBox="0.00 0.00 357.00 340.00">
<g stroke-width="2.00" fill="none" stroke-linecap="butt">
<path stroke="#5a4f4e" vector-effect="non-scaling-stroke" d="
  M 137.08 31.13
  L 137.41 38.24
  A 1.06 1.05 -0.9 0 0 138.45 39.24
  L 151.32 39.40
  A 0.66 0.65 90.0 0 0 151.98 38.73
  L 151.87 30.67"
/>
<path stroke="#774c33" vector-effect="non-scaling-stroke" d="
  M 151.87 30.67
  L 152.73 17.04
  A 0.36 0.36 0.0 0 0 152.37 16.66
  Q 147.01 16.66 141.63 16.93
  Q 137.22 17.15 137.17 21.48
  Q 137.12 25.90 137.08 31.13"
/>
<path stroke="#d07d4e" vector-effect="non-scaling-stroke" d="
  M 151.87 30.67
  L 137.08 31.13"
/>
<path stroke="#5a4f4e" vector-effect="non-scaling-stroke" d="
  M 166.77 31.01
  L 166.79 38.53
  Q 166.80 39.15 167.41 39.15
  L 191.04 39.20
  Q 191.55 39.20 191.55 38.69
  L 191.47 30.99"
/>
<path stroke="#774c33" vector-effect="non-scaling-stroke" d="
  M 191.47 30.99
  L 191.47 17.06
  Q 191.47 16.54 190.95 16.54
  L 167.29 16.59
  A 0.53 0.53 0.0 0 0 166.76 17.12
  L 166.77 31.01"
/>
<path stroke="#d07d4e" vector-effect="non-scaling-stroke" d="
  M 191.47 30.99
  L 166.77 31.01"
/>
<path stroke="#774c33" vector-effect="non-scaling-stroke" d="
  M 206.62 17.16
  L 206.34 39.26
  A 0.43 0.42 0.7 0 0 206.76 39.68
  L 219.88 39.71
  A 0.66 0.65 -89.6 0 0 220.54 39.05
  L 220.48 18.85
  A 2.09 2.08 0.3 0 0 218.41 16.77
  L 207.09 16.70
  Q 206.62 16.70 206.62 17.16"
/>
<path stroke="#7f8c92" vector-effect="non-scaling-stroke" d="
  M 147.75 67.50
  Q 145.11 77.14 135.76 82.85
  Q 134.62 83.55 131.43 84.29
  C 118.39 87.32 110.37 100.09 110.34 113.00
  Q 110.26 149.10 110.24 185.20
  Q 110.23 191.39 111.50 195.14
  C 115.59 207.19 126.14 213.29 139.17 213.30
  Q 178.46 213.34 217.75 213.30
  C 231.56 213.29 243.36 206.79 246.60 192.49"
/>
<path stroke="#6e7278" vector-effect="non-scaling-stroke" d="
  M 246.60 192.49
  C 246.84 190.85 247.23 189.13 247.23 187.49
  Q 247.29 150.24 247.20 113.01
  Q 247.17 102.93 241.71 95.11"
/>
<path stroke="#7f8c92" vector-effect="non-scaling-stroke" d="
  M 241.71 95.11
  Q 237.29 88.92 230.65 86.15
  C 227.46 84.81 223.65 83.82 220.96 82.27
  Q 212.13 77.16 209.79 67.46"
/>
<path stroke="#6e7278" vector-effect="non-scaling-stroke" d="
  M 209.79 67.46
  L 209.68 57.28
  A 0.72 0.72 0.0 0 0 208.96 56.56
  L 148.28 56.48
  Q 147.81 56.48 147.81 56.94
  L 147.75 67.50"
/>
<path stroke="#ece0d7" vector-effect="non-scaling-stroke" d="
  M 209.79 67.46
  L 147.75 67.50"
/>
<path stroke="#ece0d7" vector-effect="non-scaling-stroke" d="
  M 241.71 95.11
  Q 241.44 97.31 238.67 93.25
  A 1.00 1.00 0.0 0 0 236.90 93.51
  Q 234.48 100.96 234.38 109.25
  Q 234.08 135.50 234.52 161.75
  Q 234.70 172.42 233.50 177.67"
/>
<path stroke="#d8bcac" vector-effect="non-scaling-stroke" d="
  M 233.50 177.67
  Q 230.10 179.20 228.93 181.32"
/>
<path stroke="#f5ba92" vector-effect="non-scaling-stroke" d="
  M 228.93 181.32
  L 193.45 181.94"
/>
<path stroke="#7f8c92" vector-effect="non-scaling-stroke" d="
  M 193.45 181.94
  Q 204.00 177.51 210.73 169.47
  C 214.72 164.71 216.27 158.76 209.98 155.32
  C 204.40 152.26 201.23 156.70 197.88 160.18
  C 194.83 163.36 191.65 165.36 187.45 166.38
  C 183.12 167.44 178.18 165.88 173.68 164.96
  C 171.85 164.58 169.92 164.88 167.97 164.71
  Q 167.22 164.65 167.75 164.11
  Q 178.18 153.74 181.30 139.28
  Q 181.50 138.33 182.47 138.33
  Q 189.12 138.30 195.45 138.36
  Q 198.62 138.39 200.27 137.15
  C 203.78 134.50 203.59 129.52 200.20 126.80
  C 196.51 123.85 188.49 125.03 183.80 124.74
  A 0.57 0.57 0.0 0 1 183.26 124.19
  C 183.04 117.80 185.02 106.06 191.72 102.91
  C 199.84 99.09 200.71 113.67 210.70 111.41
  Q 214.82 110.48 215.74 105.23
  C 216.69 99.80 210.88 94.11 206.39 91.35
  C 193.04 83.11 172.66 82.38 158.48 88.63
  C 151.53 91.69 135.28 102.12 144.63 110.38
  C 149.22 114.44 151.82 111.87 155.70 108.26
  Q 163.74 100.79 174.93 99.28
  Q 175.60 99.19 175.17 99.70
  Q 166.50 110.18 167.63 124.02
  A 0.88 0.87 90.0 0 1 166.69 124.97
  C 162.85 124.71 157.20 123.91 154.37 127.47
  Q 152.40 129.95 152.54 132.90
  C 152.87 139.69 161.01 138.42 165.43 138.28
  A 0.55 0.55 0.0 0 1 165.95 139.03
  C 162.65 147.44 157.66 154.23 150.30 159.37
  C 144.45 163.47 136.34 168.44 142.23 176.98
  Q 145.37 181.52 151.49 180.59
  Q 163.85 178.72 173.72 182.00"
/>
<path stroke="#f5ba92" vector-effect="non-scaling-stroke" d="
  M 173.72 182.00
  Q 168.82 182.04 164.10 181.58
  C 157.97 180.98 152.25 182.16 145.84 181.67
  C 138.59 181.11 131.88 182.40 125.26 178.90
  Q 124.28 178.39 123.62 179.28
  C 119.99 184.23 119.98 188.96 123.13 194.25
  Q 128.73 203.67 141.50 203.80
  Q 171.65 204.13 200.26 203.64"
/>
<path stroke="#d8bcac" vector-effect="non-scaling-stroke" d="
  M 200.26 203.64
  Q 202.67 204.19 203.75 204.18
  C 211.35 204.10 218.48 204.38 225.81 202.42"
/>
<path stroke="#ece0d7" vector-effect="non-scaling-stroke" d="
  M 225.81 202.42
  L 228.77 202.97
  A 1.17 1.14 -10.8 0 1 229.54 203.48
  Q 230.31 204.69 231.53 205.39
  Q 232.01 205.66 232.09 206.21
  Q 232.21 207.04 233.03 207.16
  Q 233.60 207.24 234.39 206.74
  C 237.03 205.06 241.27 203.37 242.38 200.09
  Q 243.84 195.80 245.23 191.49
  Q 245.33 191.16 245.63 191.10
  A 0.53 0.52 -15.5 0 1 246.24 191.44
  L 246.60 192.49"
/>
<path stroke="#c6a393" vector-effect="non-scaling-stroke" d="
  M 225.81 202.42
  Q 236.60 198.59 238.63 187.41
  Q 239.77 181.13 233.50 177.67"
/>
<path stroke="#774c33" vector-effect="non-scaling-stroke" d="
  M 193.45 181.94
  Q 188.07 183.32 184.25 183.21
  Q 181.97 183.15 173.72 182.00"
/>
<path stroke="#d07d4e" vector-effect="non-scaling-stroke" d="
  M 200.26 203.64
  Q 209.23 199.33 217.27 195.93
  Q 221.64 194.08 225.10 190.86
  Q 230.06 186.25 228.93 181.32"
/>
<path stroke="#6e7278" vector-effect="non-scaling-stroke" d="
  M 163.32 259.32
  L 170.08 264.78
  Q 170.62 265.22 170.63 264.51
  L 170.71 244.74"
/>
<path stroke="#5d646b" vector-effect="non-scaling-stroke" d="
  M 170.71 244.74
  L 170.83 231.54
  Q 170.83 230.80 170.09 230.79
  Q 157.06 230.67 143.75 230.79
  Q 131.96 230.90 120.02 227.41"
/>
<path stroke="#7f8c92" vector-effect="non-scaling-stroke" d="
  M 120.02 227.41
  Q 99.99 217.96 94.51 196.38
  Q 93.40 192.02 93.42 187.50
  Q 93.53 149.92 93.44 112.35
  C 93.43 108.93 94.00 106.18 95.14 103.16
  A 0.26 0.25 6.1 0 0 94.86 102.82
  C 74.08 105.71 53.89 113.86 34.98 122.70
  Q 33.26 123.50 33.26 125.00
  Q 33.29 195.25 33.28 265.30
  A 0.47 0.47 0.0 0 0 33.96 265.72
  C 45.76 259.54 54.87 255.75 71.18 249.90
  C 100.41 239.41 136.64 241.06 163.32 259.32"
/>
<path stroke="#dbd1ca" vector-effect="non-scaling-stroke" d="
  M 120.02 227.41
  Q 128.75 234.09 140.15 237.20
  C 145.44 238.65 149.85 237.62 156.51 236.46
  Q 159.09 236.01 162.10 238.70"
/>
<path stroke="#ece0d7" vector-effect="non-scaling-stroke" d="
  M 162.10 238.70
  C 161.42 239.39 160.97 239.85 160.91 240.89
  C 160.67 244.71 160.16 253.85 162.16 257.07
  Q 162.84 258.17 163.32 259.32"
/>
<path stroke="#cab8b0" vector-effect="non-scaling-stroke" d="
  M 170.71 244.74
  C 168.25 242.48 165.50 239.44 162.10 238.70"
/>
<path stroke="#5d646b" vector-effect="non-scaling-stroke" d="
  M 243.83 223.97
  Q 241.53 224.85 239.40 225.93
  C 232.07 229.65 223.15 230.81 215.00 230.69
  Q 201.23 230.49 187.46 230.42
  Q 186.87 230.41 186.87 231.00
  L 186.90 244.17"
/>
<path stroke="#6e7278" vector-effect="non-scaling-stroke" d="
  M 186.90 244.17
  L 186.69 265.13
  A 0.32 0.31 -19.9 0 0 187.21 265.37
  L 196.79 257.32"
/>
<path stroke="#7f8c92" vector-effect="non-scaling-stroke" d="
  M 196.79 257.32
  C 238.78 233.22 282.48 243.88 322.71 265.43
  A 1.03 1.02 14.0 0 0 324.22 264.53
  L 323.96 124.67
  A 1.34 1.32 12.7 0 0 323.19 123.47
  Q 303.84 114.59 283.50 107.66
  Q 274.09 104.45 262.79 103.22
  Q 262.20 103.16 262.32 103.74
  C 263.09 107.56 263.53 110.98 263.53 114.97
  Q 263.46 151.73 263.47 188.50
  C 263.47 202.55 254.87 215.86 243.83 223.97"
/>
<path stroke="#ece0d7" vector-effect="non-scaling-stroke" d="
  M 196.79 257.32
  L 196.50 239.18"
/>
<path stroke="#dbd1ca" vector-effect="non-scaling-stroke" d="
  M 196.50 239.18
  C 196.54 236.84 198.02 235.96 200.25 236.56
  C 213.94 240.24 228.56 234.33 240.44 227.43
  Q 242.48 226.25 243.83 223.97"
/>
<path stroke="#cab8b0" vector-effect="non-scaling-stroke" d="
  M 196.50 239.18
  Q 196.02 239.81 194.06 239.59
  A 1.32 1.27 -57.8 0 0 193.17 239.81
  L 186.90 244.17"
/>
<path stroke="#5a4f4e" vector-effect="non-scaling-stroke" d="
  M 25.75 299.72
  L 22.27 305.17
  A 0.36 0.35 -71.7 0 0 22.54 305.72
  C 29.23 306.21 37.74 305.75 42.49 305.73
  Q 92.11 305.60 141.74 305.46
  Q 141.85 305.46 144.75 305.55
  Q 149.24 305.70 151.40 303.84"
/>
<path stroke="#7f8c92" vector-effect="non-scaling-stroke" d="
  M 151.40 303.84
  L 154.44 299.59
  Q 154.74 299.16 154.35 298.82
  C 147.54 292.73 137.97 289.20 129.34 286.60
  C 124.41 285.12 122.27 280.72 125.60 276.33
  C 128.37 272.69 133.96 274.81 137.75 275.90
  C 147.89 278.82 155.31 283.46 163.57 289.62
  A 1.26 1.25 -31.4 0 0 164.53 289.85
  Q 167.27 289.34 169.71 287.92
  A 0.86 0.85 59.1 0 0 170.01 286.72
  C 164.62 278.23 153.48 270.98 144.58 266.88
  C 122.17 256.54 95.85 258.69 72.80 265.72
  Q 71.50 266.11 70.86 267.02
  A 0.53 0.53 0.0 0 0 71.30 267.86
  Q 79.37 267.77 87.00 267.55
  Q 92.57 267.38 94.84 271.04
  C 96.56 273.80 95.90 277.13 93.34 279.07
  Q 91.72 280.31 88.32 280.26
  Q 77.52 280.11 66.74 280.74
  C 56.24 281.35 46.79 281.19 36.77 281.36
  C 35.04 281.39 33.19 280.98 32.50 282.97
  Q 29.20 292.65 25.75 299.72"
/>
<path stroke="#d8bcac" vector-effect="non-scaling-stroke" d="
  M 151.40 303.84
  Q 149.06 301.53 147.18 300.78
  Q 125.38 292.09 102.24 292.57
  Q 64.64 293.34 25.75 299.72"
/>
<path stroke="#5a4f4e" vector-effect="non-scaling-stroke" d="
  M 206.88 305.17
  L 334.55 305.78
  A 0.30 0.29 -15.0 0 0 334.81 305.34
  L 331.75 300.06"
/>
<path stroke="#7f8c92" vector-effect="non-scaling-stroke" d="
  M 331.75 300.06
  Q 326.45 290.89 323.47 281.97
  A 1.07 1.07 0.0 0 0 322.46 281.25
  C 312.67 281.29 303.87 281.32 293.21 280.75
  Q 280.99 280.10 268.75 280.44
  C 261.98 280.64 257.64 273.49 264.00 269.06
  Q 265.81 267.80 269.80 267.77
  Q 277.73 267.71 286.05 267.79
  A 0.57 0.57 0.0 0 0 286.57 266.98
  Q 286.35 266.51 285.53 266.23
  C 261.90 258.08 235.93 256.82 212.64 266.83
  C 202.35 271.26 194.03 278.79 186.09 286.89
  A 0.25 0.25 0.0 0 0 186.18 287.29
  L 192.20 289.71
  A 0.53 0.51 -53.6 0 0 192.72 289.62
  Q 205.27 278.79 220.28 275.19
  Q 225.06 274.05 226.51 274.51
  C 232.78 276.48 231.50 284.50 225.99 286.46
  C 217.64 289.43 210.12 292.55 203.07 298.09
  Q 202.67 298.40 202.94 298.84
  L 206.88 305.17"
/>
<path stroke="#d8bcac" vector-effect="non-scaling-stroke" d="
  M 331.75 300.06
  Q 321.94 298.16 312.75 297.00
  C 290.37 294.18 267.14 291.86 244.50 292.80
  Q 225.64 293.57 208.81 302.06
  Q 207.78 302.58 206.88 305.17"
/>
<path stroke="#774c33" vector-effect="non-scaling-stroke" d="
  M 181.50 321.80
  C 184.40 321.48 194.84 318.09 193.05 313.49
  C 188.84 302.64 173.49 298.70 166.43 309.28
  C 164.37 312.37 162.87 315.67 166.55 318.22
  Q 173.04 322.73 181.50 321.80"
/>
<path stroke="#7f8c92" vector-effect="non-scaling-stroke" d="
  M 51.20 140.67
  C 43.70 143.66 44.72 156.00 53.97 152.14
  C 61.75 148.89 67.66 146.02 77.29 143.96
  C 82.46 142.85 85.32 136.45 80.99 132.91
  C 78.67 131.02 75.61 131.84 73.00 132.71
  Q 61.98 136.38 51.20 140.67"
/>
<path stroke="#7f8c92" vector-effect="non-scaling-stroke" d="
  M 82.6744 160.4871
  A 7.63 6.26 -22.2 0 0 73.2447 157.5741
  A 7.63 6.26 -22.2 0 0 68.5456 166.2529
  A 7.63 6.26 -22.2 0 0 77.9753 169.1659
  A 7.63 6.26 -22.2 0 0 82.6744 160.4871"
/>
<path stroke="#808790" vector-effect="non-scaling-stroke" d="
  M 56.7305 167.7461
  A 5.91 5.43 -26.9 0 0 49.0033 165.5775
  A 5.91 5.43 -26.9 0 0 46.1895 173.0939
  A 5.91 5.43 -26.9 0 0 53.9167 175.2625
  A 5.91 5.43 -26.9 0 0 56.7305 167.7461"
/>
<path stroke="#7f8c92" vector-effect="non-scaling-stroke" d="
  M 61.17 194.35
  C 57.56 195.74 49.06 198.20 47.48 201.47
  C 44.29 208.12 49.51 212.44 55.59 209.33
  C 63.07 205.51 71.93 202.91 80.13 199.83
  Q 84.49 198.19 83.67 193.80
  C 81.96 184.56 65.88 192.53 61.17 194.35"
/>
<path stroke="#808790" vector-effect="non-scaling-stroke" d="
  M 92.6522 217.6819
  A 5.79 5.79 0.0 0 0 85.5396 213.6249
  L 76.8200 216.0103
  A 5.79 5.79 0.0 0 0 72.7631 223.1229
  L 72.9478 223.7981
  A 5.79 5.79 0.0 0 0 80.0604 227.8551
  L 88.7800 225.4697
  A 5.79 5.79 0.0 0 0 92.8369 218.3571
  L 92.6522 217.6819"
/>
<path stroke="#808790" vector-effect="non-scaling-stroke" d="
  M 61.3086 224.1250
  A 8.37 6.12 -30.0 0 0 51.0000 223.0099
  A 8.37 6.12 -30.0 0 0 46.8114 232.4950
  A 8.37 6.12 -30.0 0 0 57.1200 233.6101
  A 8.37 6.12 -30.0 0 0 61.3086 224.1250"
/>
<path stroke="#808790" vector-effect="non-scaling-stroke" d="
  M 279.57 143.93
  C 289.27 146.81 295.76 148.97 303.65 152.58
  Q 307.58 154.38 309.95 151.51
  C 314.16 146.42 308.55 141.88 304.24 139.97
  C 299.68 137.96 282.80 130.50 278.57 132.30
  C 272.45 134.91 273.54 142.13 279.57 143.93"
/>
<path stroke="#808790" vector-effect="non-scaling-stroke" d="
  M 288.6359 166.0837
  A 7.24 6.05 20.4 0 0 283.9589 157.8894
  A 7.24 6.05 20.4 0 0 275.0641 161.0363
  A 7.24 6.05 20.4 0 0 279.7411 169.2306
  A 7.24 6.05 20.4 0 0 288.6359 166.0837"
/>
<path stroke="#808790" vector-effect="non-scaling-stroke" d="
  M 310.2313 174.2037
  A 6.02 5.73 40.3 0 0 309.3461 165.9399
  A 6.02 5.73 40.3 0 0 301.0487 166.4163
  A 6.02 5.73 40.3 0 0 301.9339 174.6801
  A 6.02 5.73 40.3 0 0 310.2313 174.2037"
/>
<path stroke="#808790" vector-effect="non-scaling-stroke" d="
  M 278.18 200.58
  Q 293.23 205.54 303.14 209.59
  C 306.13 210.81 308.78 211.31 310.42 208.13
  C 313.85 201.52 306.73 198.56 301.52 196.49
  Q 290.47 192.08 282.36 190.16
  C 274.69 188.35 271.42 198.36 278.18 200.58"
/>
<path stroke="#808790" vector-effect="non-scaling-stroke" d="
  M 284.5934 223.2706
  A 5.31 5.31 0.0 0 0 280.9527 216.7027
  L 271.3785 213.9574
  A 5.31 5.31 0.0 0 0 264.8106 217.5980
  L 264.6066 218.3094
  A 5.31 5.31 0.0 0 0 268.2473 224.8773
  L 277.8215 227.6226
  A 5.31 5.31 0.0 0 0 284.3894 223.9820
  L 284.5934 223.2706"
/>
<path stroke="#808790" vector-effect="non-scaling-stroke" d="
  M 310.6963 231.6708
  A 8.14 6.12 24.0 0 0 305.7492 222.7691
  A 8.14 6.12 24.0 0 0 295.8237 225.0492
  A 8.14 6.12 24.0 0 0 300.7708 233.9509
  A 8.14 6.12 24.0 0 0 310.6963 231.6708"
/>
</g>
<path fill="#011e33" d="
  M 169.63 337.58
  Q 167.04 337.41 164.72 336.41
  C 163.09 335.70 161.32 335.19 159.93 334.15
  Q 157.96 332.67 156.01 331.16
  C 154.15 329.74 153.02 327.76 151.23 326.11
  Q 150.86 325.76 150.68 325.28
  C 149.77 322.91 147.95 322.22 145.39 322.23
  Q 75.91 322.48 6.44 322.36
  Q 5.95 322.36 5.53 322.10
  Q 4.70 321.57 3.89 321.16
  C 1.54 319.94 0.82 316.43 1.12 314.12
  Q 1.36 312.21 3.42 308.97
  Q 10.34 298.09 15.45 286.24
  C 16.78 283.15 17.78 279.63 17.78 276.25
  Q 17.79 196.77 17.81 117.28
  Q 17.81 114.65 18.99 113.04
  C 21.97 108.98 25.71 109.42 29.48 107.76
  C 46.08 100.43 57.40 96.09 72.01 91.76
  C 74.32 91.08 76.77 90.68 78.97 90.06
  Q 89.15 87.18 99.74 86.62
  C 103.85 86.40 106.26 80.70 109.15 78.20
  C 113.75 74.22 119.55 70.39 125.52 68.57
  Q 129.17 67.45 131.56 64.99
  A 1.13 1.10 68.3 0 0 131.87 64.24
  L 132.03 56.08
  Q 132.04 55.54 131.52 55.42
  Q 125.71 54.10 122.92 49.36
  Q 121.71 47.30 121.72 43.88
  Q 121.74 30.44 121.71 17.02
  Q 121.71 13.23 122.87 10.69
  Q 124.26 7.64 126.43 5.07
  C 127.48 3.83 128.89 3.37 130.12 2.17
  Q 130.46 1.85 130.93 1.85
  Q 132.26 1.87 133.31 1.10
  A 1.45 1.43 24.6 0 1 134.05 0.83
  Q 137.04 0.66 139.99 0.69
  Q 180.25 0.99 220.50 0.68
  Q 224.21 0.65 226.37 1.45
  C 233.24 3.97 236.72 12.09 236.41 19.04
  C 236.01 28.11 236.21 37.26 236.29 46.34
  Q 236.29 46.91 236.04 47.43
  L 233.91 51.81
  Q 233.65 52.33 233.15 52.61
  L 228.34 55.29
  Q 227.90 55.54 227.40 55.47
  C 226.23 55.32 225.43 55.99 225.43 57.21
  Q 225.45 61.46 226.15 65.68
  Q 226.23 66.18 226.70 66.37
  C 236.03 70.08 244.29 72.15 250.97 80.91
  C 252.63 83.09 255.21 86.49 258.07 86.68
  C 266.75 87.25 276.45 89.62 284.22 91.89
  Q 304.06 97.67 322.99 105.92
  Q 326.10 107.27 329.46 108.48
  C 333.72 110.01 339.19 111.53 339.19 116.51
  Q 339.18 196.07 339.29 275.63
  Q 339.29 278.78 340.31 281.70
  Q 343.27 290.09 344.66 292.84
  Q 347.84 299.13 354.77 309.74
  C 357.85 314.46 356.12 322.41 349.28 322.40
  Q 279.64 322.32 210.00 322.25
  Q 208.85 322.25 208.27 323.53
  C 205.82 328.92 198.88 333.69 193.59 335.94
  C 192.80 336.28 191.53 336.26 190.62 336.99
  Q 190.21 337.31 189.70 337.25
  Q 188.60 337.14 187.77 337.82
  Q 187.38 338.14 186.88 338.18
  C 184.46 338.38 182.59 338.43 179.79 338.89
  C 176.34 339.46 173.56 338.10 170.16 338.13
  Q 169.87 338.13 169.77 337.86
  Q 169.73 337.74 169.68 337.62
  Q 169.66 337.59 169.63 337.58
  Z
  M 137.08 31.13
  L 137.41 38.24
  A 1.06 1.05 -0.9 0 0 138.45 39.24
  L 151.32 39.40
  A 0.66 0.65 90.0 0 0 151.98 38.73
  L 151.87 30.67
  L 152.73 17.04
  A 0.36 0.36 0.0 0 0 152.37 16.66
  Q 147.01 16.66 141.63 16.93
  Q 137.22 17.15 137.17 21.48
  Q 137.12 25.90 137.08 31.13
  Z
  M 166.77 31.01
  L 166.79 38.53
  Q 166.80 39.15 167.41 39.15
  L 191.04 39.20
  Q 191.55 39.20 191.55 38.69
  L 191.47 30.99
  L 191.47 17.06
  Q 191.47 16.54 190.95 16.54
  L 167.29 16.59
  A 0.53 0.53 0.0 0 0 166.76 17.12
  L 166.77 31.01
  Z
  M 206.62 17.16
  L 206.34 39.26
  A 0.43 0.42 0.7 0 0 206.76 39.68
  L 219.88 39.71
  A 0.66 0.65 -89.6 0 0 220.54 39.05
  L 220.48 18.85
  A 2.09 2.08 0.3 0 0 218.41 16.77
  L 207.09 16.70
  Q 206.62 16.70 206.62 17.16
  Z
  M 147.75 67.50
  Q 145.11 77.14 135.76 82.85
  Q 134.62 83.55 131.43 84.29
  C 118.39 87.32 110.37 100.09 110.34 113.00
  Q 110.26 149.10 110.24 185.20
  Q 110.23 191.39 111.50 195.14
  C 115.59 207.19 126.14 213.29 139.17 213.30
  Q 178.46 213.34 217.75 213.30
  C 231.56 213.29 243.36 206.79 246.60 192.49
  C 246.84 190.85 247.23 189.13 247.23 187.49
  Q 247.29 150.24 247.20 113.01
  Q 247.17 102.93 241.71 95.11
  Q 237.29 88.92 230.65 86.15
  C 227.46 84.81 223.65 83.82 220.96 82.27
  Q 212.13 77.16 209.79 67.46
  L 209.68 57.28
  A 0.72 0.72 0.0 0 0 208.96 56.56
  L 148.28 56.48
  Q 147.81 56.48 147.81 56.94
  L 147.75 67.50
  Z
  M 163.32 259.32
  L 170.08 264.78
  Q 170.62 265.22 170.63 264.51
  L 170.71 244.74
  L 170.83 231.54
  Q 170.83 230.80 170.09 230.79
  Q 157.06 230.67 143.75 230.79
  Q 131.96 230.90 120.02 227.41
  Q 99.99 217.96 94.51 196.38
  Q 93.40 192.02 93.42 187.50
  Q 93.53 149.92 93.44 112.35
  C 93.43 108.93 94.00 106.18 95.14 103.16
  A 0.26 0.25 6.1 0 0 94.86 102.82
  C 74.08 105.71 53.89 113.86 34.98 122.70
  Q 33.26 123.50 33.26 125.00
  Q 33.29 195.25 33.28 265.30
  A 0.47 0.47 0.0 0 0 33.96 265.72
  C 45.76 259.54 54.87 255.75 71.18 249.90
  C 100.41 239.41 136.64 241.06 163.32 259.32
  Z
  M 243.83 223.97
  Q 241.53 224.85 239.40 225.93
  C 232.07 229.65 223.15 230.81 215.00 230.69
  Q 201.23 230.49 187.46 230.42
  Q 186.87 230.41 186.87 231.00
  L 186.90 244.17
  L 186.69 265.13
  A 0.32 0.31 -19.9 0 0 187.21 265.37
  L 196.79 257.32
  C 238.78 233.22 282.48 243.88 322.71 265.43
  A 1.03 1.02 14.0 0 0 324.22 264.53
  L 323.96 124.67
  A 1.34 1.32 12.7 0 0 323.19 123.47
  Q 303.84 114.59 283.50 107.66
  Q 274.09 104.45 262.79 103.22
  Q 262.20 103.16 262.32 103.74
  C 263.09 107.56 263.53 110.98 263.53 114.97
  Q 263.46 151.73 263.47 188.50
  C 263.47 202.55 254.87 215.86 243.83 223.97
  Z
  M 25.75 299.72
  L 22.27 305.17
  A 0.36 0.35 -71.7 0 0 22.54 305.72
  C 29.23 306.21 37.74 305.75 42.49 305.73
  Q 92.11 305.60 141.74 305.46
  Q 141.85 305.46 144.75 305.55
  Q 149.24 305.70 151.40 303.84
  L 154.44 299.59
  Q 154.74 299.16 154.35 298.82
  C 147.54 292.73 137.97 289.20 129.34 286.60
  C 124.41 285.12 122.27 280.72 125.60 276.33
  C 128.37 272.69 133.96 274.81 137.75 275.90
  C 147.89 278.82 155.31 283.46 163.57 289.62
  A 1.26 1.25 -31.4 0 0 164.53 289.85
  Q 167.27 289.34 169.71 287.92
  A 0.86 0.85 59.1 0 0 170.01 286.72
  C 164.62 278.23 153.48 270.98 144.58 266.88
  C 122.17 256.54 95.85 258.69 72.80 265.72
  Q 71.50 266.11 70.86 267.02
  A 0.53 0.53 0.0 0 0 71.30 267.86
  Q 79.37 267.77 87.00 267.55
  Q 92.57 267.38 94.84 271.04
  C 96.56 273.80 95.90 277.13 93.34 279.07
  Q 91.72 280.31 88.32 280.26
  Q 77.52 280.11 66.74 280.74
  C 56.24 281.35 46.79 281.19 36.77 281.36
  C 35.04 281.39 33.19 280.98 32.50 282.97
  Q 29.20 292.65 25.75 299.72
  Z
  M 206.88 305.17
  L 334.55 305.78
  A 0.30 0.29 -15.0 0 0 334.81 305.34
  L 331.75 300.06
  Q 326.45 290.89 323.47 281.97
  A 1.07 1.07 0.0 0 0 322.46 281.25
  C 312.67 281.29 303.87 281.32 293.21 280.75
  Q 280.99 280.10 268.75 280.44
  C 261.98 280.64 257.64 273.49 264.00 269.06
  Q 265.81 267.80 269.80 267.77
  Q 277.73 267.71 286.05 267.79
  A 0.57 0.57 0.0 0 0 286.57 266.98
  Q 286.35 266.51 285.53 266.23
  C 261.90 258.08 235.93 256.82 212.64 266.83
  C 202.35 271.26 194.03 278.79 186.09 286.89
  A 0.25 0.25 0.0 0 0 186.18 287.29
  L 192.20 289.71
  A 0.53 0.51 -53.6 0 0 192.72 289.62
  Q 205.27 278.79 220.28 275.19
  Q 225.06 274.05 226.51 274.51
  C 232.78 276.48 231.50 284.50 225.99 286.46
  C 217.64 289.43 210.12 292.55 203.07 298.09
  Q 202.67 298.40 202.94 298.84
  L 206.88 305.17
  Z
  M 181.50 321.80
  C 184.40 321.48 194.84 318.09 193.05 313.49
  C 188.84 302.64 173.49 298.70 166.43 309.28
  C 164.37 312.37 162.87 315.67 166.55 318.22
  Q 173.04 322.73 181.50 321.80
  Z"
/>
<path fill="#ed7a33" d="
  M 151.87 30.67
  L 137.08 31.13
  Q 137.12 25.90 137.17 21.48
  Q 137.22 17.15 141.63 16.93
  Q 147.01 16.66 152.37 16.66
  A 0.36 0.36 0.0 0 1 152.73 17.04
  L 151.87 30.67
  Z"
/>
<path fill="#ed7a33" d="
  M 191.47 30.99
  L 166.77 31.01
  L 166.76 17.12
  A 0.53 0.53 0.0 0 1 167.29 16.59
  L 190.95 16.54
  Q 191.47 16.54 191.47 17.06
  L 191.47 30.99
  Z"
/>
<path fill="#ed7a33" d="
  M 206.34 39.26
  L 206.62 17.16
  Q 206.62 16.70 207.09 16.70
  L 218.41 16.77
  A 2.09 2.08 0.3 0 1 220.48 18.85
  L 220.54 39.05
  A 0.66 0.65 -89.6 0 1 219.88 39.71
  L 206.76 39.68
  A 0.43 0.42 0.7 0 1 206.34 39.26
  Z"
/>
<ellipse fill="#011e33" cx="0.00" cy="0.00" transform="translate(48.43,36.14) rotate(123.0)" rx="7.85" ry="7.41"/>
<circle fill="#02142f" cx="308.46" cy="36.08" r="7.58"/>
<path fill="#b27f68" d="
  M 151.87 30.67
  L 151.98 38.73
  A 0.66 0.65 90.0 0 1 151.32 39.40
  L 138.45 39.24
  A 1.06 1.05 -0.9 0 1 137.41 38.24
  L 137.08 31.13
  L 151.87 30.67
  Z"
/>
<path fill="#b27f68" d="
  M 166.77 31.01
  L 191.47 30.99
  L 191.55 38.69
  Q 191.55 39.20 191.04 39.20
  L 167.41 39.15
  Q 166.80 39.15 166.79 38.53
  L 166.77 31.01
  Z"
/>
<ellipse fill="#ed7a33" cx="0.00" cy="0.00" transform="translate(80.39,55.73) rotate(87.3)" rx="7.66" ry="7.30"/>
<circle fill="#ed7a33" cx="277.19" cy="55.96" r="7.76"/>
<path fill="#dac6bd" d="
  M 209.79 67.46
  L 147.75 67.50
  L 147.81 56.94
  Q 147.81 56.48 148.28 56.48
  L 208.96 56.56
  A 0.72 0.72 0.0 0 1 209.68 57.28
  L 209.79 67.46
  Z"
/>
<ellipse fill="#ed7a33" cx="0.00" cy="0.00" transform="translate(55.50,73.55) rotate(103.5)" rx="7.97" ry="7.68"/>
<ellipse fill="#ed7a33" cx="0.00" cy="0.00" transform="translate(301.15,73.64) rotate(82.4)" rx="7.57" ry="7.17"/>
<path fill="#fdf9f0" d="
  M 147.75 67.50
  L 209.79 67.46
  Q 212.13 77.16 220.96 82.27
  C 223.65 83.82 227.46 84.81 230.65 86.15
  Q 237.29 88.92 241.71 95.11
  Q 241.44 97.31 238.67 93.25
  A 1.00 1.00 0.0 0 0 236.90 93.51
  Q 234.48 100.96 234.38 109.25
  Q 234.08 135.50 234.52 161.75
  Q 234.70 172.42 233.50 177.67
  Q 230.10 179.20 228.93 181.32
  L 193.45 181.94
  Q 204.00 177.51 210.73 169.47
  C 214.72 164.71 216.27 158.76 209.98 155.32
  C 204.40 152.26 201.23 156.70 197.88 160.18
  C 194.83 163.36 191.65 165.36 187.45 166.38
  C 183.12 167.44 178.18 165.88 173.68 164.96
  C 171.85 164.58 169.92 164.88 167.97 164.71
  Q 167.22 164.65 167.75 164.11
  Q 178.18 153.74 181.30 139.28
  Q 181.50 138.33 182.47 138.33
  Q 189.12 138.30 195.45 138.36
  Q 198.62 138.39 200.27 137.15
  C 203.78 134.50 203.59 129.52 200.20 126.80
  C 196.51 123.85 188.49 125.03 183.80 124.74
  A 0.57 0.57 0.0 0 1 183.26 124.19
  C 183.04 117.80 185.02 106.06 191.72 102.91
  C 199.84 99.09 200.71 113.67 210.70 111.41
  Q 214.82 110.48 215.74 105.23
  C 216.69 99.80 210.88 94.11 206.39 91.35
  C 193.04 83.11 172.66 82.38 158.48 88.63
  C 151.53 91.69 135.28 102.12 144.63 110.38
  C 149.22 114.44 151.82 111.87 155.70 108.26
  Q 163.74 100.79 174.93 99.28
  Q 175.60 99.19 175.17 99.70
  Q 166.50 110.18 167.63 124.02
  A 0.88 0.87 90.0 0 1 166.69 124.97
  C 162.85 124.71 157.20 123.91 154.37 127.47
  Q 152.40 129.95 152.54 132.90
  C 152.87 139.69 161.01 138.42 165.43 138.28
  A 0.55 0.55 0.0 0 1 165.95 139.03
  C 162.65 147.44 157.66 154.23 150.30 159.37
  C 144.45 163.47 136.34 168.44 142.23 176.98
  Q 145.37 181.52 151.49 180.59
  Q 163.85 178.72 173.72 182.00
  Q 168.82 182.04 164.10 181.58
  C 157.97 180.98 152.25 182.16 145.84 181.67
  C 138.59 181.11 131.88 182.40 125.26 178.90
  Q 124.28 178.39 123.62 179.28
  C 119.99 184.23 119.98 188.96 123.13 194.25
  Q 128.73 203.67 141.50 203.80
  Q 171.65 204.13 200.26 203.64
  Q 202.67 204.19 203.75 204.18
  C 211.35 204.10 218.48 204.38 225.81 202.42
  L 228.77 202.97
  A 1.17 1.14 -10.8 0 1 229.54 203.48
  Q 230.31 204.69 231.53 205.39
  Q 232.01 205.66 232.09 206.21
  Q 232.21 207.04 233.03 207.16
  Q 233.60 207.24 234.39 206.74
  C 237.03 205.06 241.27 203.37 242.38 200.09
  Q 243.84 195.80 245.23 191.49
  Q 245.33 191.16 245.63 191.10
  A 0.53 0.52 -15.5 0 1 246.24 191.44
  L 246.60 192.49
  C 243.36 206.79 231.56 213.29 217.75 213.30
  Q 178.46 213.34 139.17 213.30
  C 126.14 213.29 115.59 207.19 111.50 195.14
  Q 110.23 191.39 110.24 185.20
  Q 110.26 149.10 110.34 113.00
  C 110.37 100.09 118.39 87.32 131.43 84.29
  Q 134.62 83.55 135.76 82.85
  Q 145.11 77.14 147.75 67.50
  Z"
/>
<path fill="#011e33" d="
  M 193.45 181.94
  Q 188.07 183.32 184.25 183.21
  Q 181.97 183.15 173.72 182.00
  Q 163.85 178.72 151.49 180.59
  Q 145.37 181.52 142.23 176.98
  C 136.34 168.44 144.45 163.47 150.30 159.37
  C 157.66 154.23 162.65 147.44 165.95 139.03
  A 0.55 0.55 0.0 0 0 165.43 138.28
  C 161.01 138.42 152.87 139.69 152.54 132.90
  Q 152.40 129.95 154.37 127.47
  C 157.20 123.91 162.85 124.71 166.69 124.97
  A 0.88 0.87 90.0 0 0 167.63 124.02
  Q 166.50 110.18 175.17 99.70
  Q 175.60 99.19 174.93 99.28
  Q 163.74 100.79 155.70 108.26
  C 151.82 111.87 149.22 114.44 144.63 110.38
  C 135.28 102.12 151.53 91.69 158.48 88.63
  C 172.66 82.38 193.04 83.11 206.39 91.35
  C 210.88 94.11 216.69 99.80 215.74 105.23
  Q 214.82 110.48 210.70 111.41
  C 200.71 113.67 199.84 99.09 191.72 102.91
  C 185.02 106.06 183.04 117.80 183.26 124.19
  A 0.57 0.57 0.0 0 0 183.80 124.74
  C 188.49 125.03 196.51 123.85 200.20 126.80
  C 203.59 129.52 203.78 134.50 200.27 137.15
  Q 198.62 138.39 195.45 138.36
  Q 189.12 138.30 182.47 138.33
  Q 181.50 138.33 181.30 139.28
  Q 178.18 153.74 167.75 164.11
  Q 167.22 164.65 167.97 164.71
  C 169.92 164.88 171.85 164.58 173.68 164.96
  C 178.18 165.88 183.12 167.44 187.45 166.38
  C 191.65 165.36 194.83 163.36 197.88 160.18
  C 201.23 156.70 204.40 152.26 209.98 155.32
  C 216.27 158.76 214.72 164.71 210.73 169.47
  Q 204.00 177.51 193.45 181.94
  Z"
/>
<path fill="#dac6bd" d="
  M 241.71 95.11
  Q 247.17 102.93 247.20 113.01
  Q 247.29 150.24 247.23 187.49
  C 247.23 189.13 246.84 190.85 246.60 192.49
  L 246.24 191.44
  A 0.53 0.52 -15.5 0 0 245.63 191.10
  Q 245.33 191.16 245.23 191.49
  Q 243.84 195.80 242.38 200.09
  C 241.27 203.37 237.03 205.06 234.39 206.74
  Q 233.60 207.24 233.03 207.16
  Q 232.21 207.04 232.09 206.21
  Q 232.01 205.66 231.53 205.39
  Q 230.31 204.69 229.54 203.48
  A 1.17 1.14 -10.8 0 0 228.77 202.97
  L 225.81 202.42
  Q 236.60 198.59 238.63 187.41
  Q 239.77 181.13 233.50 177.67
  Q 234.70 172.42 234.52 161.75
  Q 234.08 135.50 234.38 109.25
  Q 234.48 100.96 236.90 93.51
  A 1.00 1.00 0.0 0 1 238.67 93.25
  Q 241.44 97.31 241.71 95.11
  Z"
/>
<path fill="#fdf9f0" d="
  M 120.02 227.41
  Q 128.75 234.09 140.15 237.20
  C 145.44 238.65 149.85 237.62 156.51 236.46
  Q 159.09 236.01 162.10 238.70
  C 161.42 239.39 160.97 239.85 160.91 240.89
  C 160.67 244.71 160.16 253.85 162.16 257.07
  Q 162.84 258.17 163.32 259.32
  C 136.64 241.06 100.41 239.41 71.18 249.90
  C 54.87 255.75 45.76 259.54 33.96 265.72
  A 0.47 0.47 0.0 0 1 33.28 265.30
  Q 33.29 195.25 33.26 125.00
  Q 33.26 123.50 34.98 122.70
  C 53.89 113.86 74.08 105.71 94.86 102.82
  A 0.26 0.25 6.1 0 1 95.14 103.16
  C 94.00 106.18 93.43 108.93 93.44 112.35
  Q 93.53 149.92 93.42 187.50
  Q 93.40 192.02 94.51 196.38
  Q 99.99 217.96 120.02 227.41
  Z
  M 51.20 140.67
  C 43.70 143.66 44.72 156.00 53.97 152.14
  C 61.75 148.89 67.66 146.02 77.29 143.96
  C 82.46 142.85 85.32 136.45 80.99 132.91
  C 78.67 131.02 75.61 131.84 73.00 132.71
  Q 61.98 136.38 51.20 140.67
  Z
  M 82.6744 160.4871
  A 7.63 6.26 -22.2 0 0 73.2447 157.5741
  A 7.63 6.26 -22.2 0 0 68.5456 166.2529
  A 7.63 6.26 -22.2 0 0 77.9753 169.1659
  A 7.63 6.26 -22.2 0 0 82.6744 160.4871
  Z
  M 56.7305 167.7461
  A 5.91 5.43 -26.9 0 0 49.0033 165.5775
  A 5.91 5.43 -26.9 0 0 46.1895 173.0939
  A 5.91 5.43 -26.9 0 0 53.9167 175.2625
  A 5.91 5.43 -26.9 0 0 56.7305 167.7461
  Z
  M 61.17 194.35
  C 57.56 195.74 49.06 198.20 47.48 201.47
  C 44.29 208.12 49.51 212.44 55.59 209.33
  C 63.07 205.51 71.93 202.91 80.13 199.83
  Q 84.49 198.19 83.67 193.80
  C 81.96 184.56 65.88 192.53 61.17 194.35
  Z
  M 92.6522 217.6819
  A 5.79 5.79 0.0 0 0 85.5396 213.6249
  L 76.8200 216.0103
  A 5.79 5.79 0.0 0 0 72.7631 223.1229
  L 72.9478 223.7981
  A 5.79 5.79 0.0 0 0 80.0604 227.8551
  L 88.7800 225.4697
  A 5.79 5.79 0.0 0 0 92.8369 218.3571
  L 92.6522 217.6819
  Z
  M 61.3086 224.1250
  A 8.37 6.12 -30.0 0 0 51.0000 223.0099
  A 8.37 6.12 -30.0 0 0 46.8114 232.4950
  A 8.37 6.12 -30.0 0 0 57.1200 233.6101
  A 8.37 6.12 -30.0 0 0 61.3086 224.1250
  Z"
/>
<path fill="#fdf9f0" d="
  M 196.79 257.32
  L 196.50 239.18
  C 196.54 236.84 198.02 235.96 200.25 236.56
  C 213.94 240.24 228.56 234.33 240.44 227.43
  Q 242.48 226.25 243.83 223.97
  C 254.87 215.86 263.47 202.55 263.47 188.50
  Q 263.46 151.73 263.53 114.97
  C 263.53 110.98 263.09 107.56 262.32 103.74
  Q 262.20 103.16 262.79 103.22
  Q 274.09 104.45 283.50 107.66
  Q 303.84 114.59 323.19 123.47
  A 1.34 1.32 12.7 0 1 323.96 124.67
  L 324.22 264.53
  A 1.03 1.02 14.0 0 1 322.71 265.43
  C 282.48 243.88 238.78 233.22 196.79 257.32
  Z
  M 279.57 143.93
  C 289.27 146.81 295.76 148.97 303.65 152.58
  Q 307.58 154.38 309.95 151.51
  C 314.16 146.42 308.55 141.88 304.24 139.97
  C 299.68 137.96 282.80 130.50 278.57 132.30
  C 272.45 134.91 273.54 142.13 279.57 143.93
  Z
  M 288.6359 166.0837
  A 7.24 6.05 20.4 0 0 283.9589 157.8894
  A 7.24 6.05 20.4 0 0 275.0641 161.0363
  A 7.24 6.05 20.4 0 0 279.7411 169.2306
  A 7.24 6.05 20.4 0 0 288.6359 166.0837
  Z
  M 310.2313 174.2037
  A 6.02 5.73 40.3 0 0 309.3461 165.9399
  A 6.02 5.73 40.3 0 0 301.0487 166.4163
  A 6.02 5.73 40.3 0 0 301.9339 174.6801
  A 6.02 5.73 40.3 0 0 310.2313 174.2037
  Z
  M 278.18 200.58
  Q 293.23 205.54 303.14 209.59
  C 306.13 210.81 308.78 211.31 310.42 208.13
  C 313.85 201.52 306.73 198.56 301.52 196.49
  Q 290.47 192.08 282.36 190.16
  C 274.69 188.35 271.42 198.36 278.18 200.58
  Z
  M 284.5934 223.2706
  A 5.31 5.31 0.0 0 0 280.9527 216.7027
  L 271.3785 213.9574
  A 5.31 5.31 0.0 0 0 264.8106 217.5980
  L 264.6066 218.3094
  A 5.31 5.31 0.0 0 0 268.2473 224.8773
  L 277.8215 227.6226
  A 5.31 5.31 0.0 0 0 284.3894 223.9820
  L 284.5934 223.2706
  Z
  M 310.6963 231.6708
  A 8.14 6.12 24.0 0 0 305.7492 222.7691
  A 8.14 6.12 24.0 0 0 295.8237 225.0492
  A 8.14 6.12 24.0 0 0 300.7708 233.9509
  A 8.14 6.12 24.0 0 0 310.6963 231.6708
  Z"
/>
<path fill="#011e33" d="
  M 51.20 140.67
  Q 61.98 136.38 73.00 132.71
  C 75.61 131.84 78.67 131.02 80.99 132.91
  C 85.32 136.45 82.46 142.85 77.29 143.96
  C 67.66 146.02 61.75 148.89 53.97 152.14
  C 44.72 156.00 43.70 143.66 51.20 140.67
  Z"
/>
<path fill="#02142f" d="
  M 303.65 152.58
  C 295.76 148.97 289.27 146.81 279.57 143.93
  C 273.54 142.13 272.45 134.91 278.57 132.30
  C 282.80 130.50 299.68 137.96 304.24 139.97
  C 308.55 141.88 314.16 146.42 309.95 151.51
  Q 307.58 154.38 303.65 152.58
  Z"
/>
<ellipse fill="#011e33" cx="0.00" cy="0.00" transform="translate(75.61,163.37) rotate(-22.2)" rx="7.63" ry="6.26"/>
<ellipse fill="#02142f" cx="0.00" cy="0.00" transform="translate(281.85,163.56) rotate(20.4)" rx="7.24" ry="6.05"/>
<ellipse fill="#02142f" cx="0.00" cy="0.00" transform="translate(305.64,170.31) rotate(40.3)" rx="6.02" ry="5.73"/>
<ellipse fill="#02142f" cx="0.00" cy="0.00" transform="translate(51.46,170.42) rotate(-26.9)" rx="5.91" ry="5.43"/>
<path fill="#b27f68" d="
  M 233.50 177.67
  Q 239.77 181.13 238.63 187.41
  Q 236.60 198.59 225.81 202.42
  C 218.48 204.38 211.35 204.10 203.75 204.18
  Q 202.67 204.19 200.26 203.64
  Q 209.23 199.33 217.27 195.93
  Q 221.64 194.08 225.10 190.86
  Q 230.06 186.25 228.93 181.32
  Q 230.10 179.20 233.50 177.67
  Z"
/>
<path fill="#ed7a33" d="
  M 173.72 182.00
  Q 181.97 183.15 184.25 183.21
  Q 188.07 183.32 193.45 181.94
  L 228.93 181.32
  Q 230.06 186.25 225.10 190.86
  Q 221.64 194.08 217.27 195.93
  Q 209.23 199.33 200.26 203.64
  Q 171.65 204.13 141.50 203.80
  Q 128.73 203.67 123.13 194.25
  C 119.98 188.96 119.99 184.23 123.62 179.28
  Q 124.28 178.39 125.26 178.90
  C 131.88 182.40 138.59 181.11 145.84 181.67
  C 152.25 182.16 157.97 180.98 164.10 181.58
  Q 168.82 182.04 173.72 182.00
  Z"
/>
<path fill="#011e33" d="
  M 61.17 194.35
  C 65.88 192.53 81.96 184.56 83.67 193.80
  Q 84.49 198.19 80.13 199.83
  C 71.93 202.91 63.07 205.51 55.59 209.33
  C 49.51 212.44 44.29 208.12 47.48 201.47
  C 49.06 198.20 57.56 195.74 61.17 194.35
  Z"
/>
<path fill="#02142f" d="
  M 278.18 200.58
  C 271.42 198.36 274.69 188.35 282.36 190.16
  Q 290.47 192.08 301.52 196.49
  C 306.73 198.56 313.85 201.52 310.42 208.13
  C 308.78 211.31 306.13 210.81 303.14 209.59
  Q 293.23 205.54 278.18 200.58
  Z"
/>
<rect fill="#02142f" x="-10.31" y="-6.14" transform="translate(82.80,220.74) rotate(-15.3)" width="20.62" height="12.28" rx="5.79"/>
<rect fill="#02142f" x="-10.29" y="-5.68" transform="translate(274.60,220.79) rotate(16.0)" width="20.58" height="11.36" rx="5.31"/>
<ellipse fill="#02142f" cx="0.00" cy="0.00" transform="translate(54.06,228.31) rotate(-30.0)" rx="8.37" ry="6.12"/>
<ellipse fill="#02142f" cx="0.00" cy="0.00" transform="translate(303.26,228.36) rotate(24.0)" rx="8.14" ry="6.12"/>
<path fill="#b9a9a3" d="
  M 243.83 223.97
  Q 242.48 226.25 240.44 227.43
  C 228.56 234.33 213.94 240.24 200.25 236.56
  C 198.02 235.96 196.54 236.84 196.50 239.18
  Q 196.02 239.81 194.06 239.59
  A 1.32 1.27 -57.8 0 0 193.17 239.81
  L 186.90 244.17
  L 186.87 231.00
  Q 186.87 230.41 187.46 230.42
  Q 201.23 230.49 215.00 230.69
  C 223.15 230.81 232.07 229.65 239.40 225.93
  Q 241.53 224.85 243.83 223.97
  Z"
/>
<path fill="#b9a9a3" d="
  M 120.02 227.41
  Q 131.96 230.90 143.75 230.79
  Q 157.06 230.67 170.09 230.79
  Q 170.83 230.80 170.83 231.54
  L 170.71 244.74
  C 168.25 242.48 165.50 239.44 162.10 238.70
  Q 159.09 236.01 156.51 236.46
  C 149.85 237.62 145.44 238.65 140.15 237.20
  Q 128.75 234.09 120.02 227.41
  Z"
/>
<path fill="#dac6bd" d="
  M 162.10 238.70
  C 165.50 239.44 168.25 242.48 170.71 244.74
  L 170.63 264.51
  Q 170.62 265.22 170.08 264.78
  L 163.32 259.32
  Q 162.84 258.17 162.16 257.07
  C 160.16 253.85 160.67 244.71 160.91 240.89
  C 160.97 239.85 161.42 239.39 162.10 238.70
  Z"
/>
<path fill="#dac6bd" d="
  M 196.50 239.18
  L 196.79 257.32
  L 187.21 265.37
  A 0.32 0.31 -19.9 0 1 186.69 265.13
  L 186.90 244.17
  L 193.17 239.81
  A 1.32 1.27 -57.8 0 1 194.06 239.59
  Q 196.02 239.81 196.50 239.18
  Z"
/>
<path fill="#fdf9f0" d="
  M 151.40 303.84
  Q 149.06 301.53 147.18 300.78
  Q 125.38 292.09 102.24 292.57
  Q 64.64 293.34 25.75 299.72
  Q 29.20 292.65 32.50 282.97
  C 33.19 280.98 35.04 281.39 36.77 281.36
  C 46.79 281.19 56.24 281.35 66.74 280.74
  Q 77.52 280.11 88.32 280.26
  Q 91.72 280.31 93.34 279.07
  C 95.90 277.13 96.56 273.80 94.84 271.04
  Q 92.57 267.38 87.00 267.55
  Q 79.37 267.77 71.30 267.86
  A 0.53 0.53 0.0 0 1 70.86 267.02
  Q 71.50 266.11 72.80 265.72
  C 95.85 258.69 122.17 256.54 144.58 266.88
  C 153.48 270.98 164.62 278.23 170.01 286.72
  A 0.86 0.85 59.1 0 1 169.71 287.92
  Q 167.27 289.34 164.53 289.85
  A 1.26 1.25 -31.4 0 1 163.57 289.62
  C 155.31 283.46 147.89 278.82 137.75 275.90
  C 133.96 274.81 128.37 272.69 125.60 276.33
  C 122.27 280.72 124.41 285.12 129.34 286.60
  C 137.97 289.20 147.54 292.73 154.35 298.82
  Q 154.74 299.16 154.44 299.59
  L 151.40 303.84
  Z"
/>
<path fill="#fdf9f0" d="
  M 331.75 300.06
  Q 321.94 298.16 312.75 297.00
  C 290.37 294.18 267.14 291.86 244.50 292.80
  Q 225.64 293.57 208.81 302.06
  Q 207.78 302.58 206.88 305.17
  L 202.94 298.84
  Q 202.67 298.40 203.07 298.09
  C 210.12 292.55 217.64 289.43 225.99 286.46
  C 231.50 284.50 232.78 276.48 226.51 274.51
  Q 225.06 274.05 220.28 275.19
  Q 205.27 278.79 192.72 289.62
  A 0.53 0.51 -53.6 0 1 192.20 289.71
  L 186.18 287.29
  A 0.25 0.25 0.0 0 1 186.09 286.89
  C 194.03 278.79 202.35 271.26 212.64 266.83
  C 235.93 256.82 261.90 258.08 285.53 266.23
  Q 286.35 266.51 286.57 266.98
  A 0.57 0.57 0.0 0 1 286.05 267.79
  Q 277.73 267.71 269.80 267.77
  Q 265.81 267.80 264.00 269.06
  C 257.64 273.49 261.98 280.64 268.75 280.44
  Q 280.99 280.10 293.21 280.75
  C 303.87 281.32 312.67 281.29 322.46 281.25
  A 1.07 1.07 0.0 0 1 323.47 281.97
  Q 326.45 290.89 331.75 300.06
  Z"
/>
<path fill="#b27f68" d="
  M 151.40 303.84
  Q 149.24 305.70 144.75 305.55
  Q 141.85 305.46 141.74 305.46
  Q 92.11 305.60 42.49 305.73
  C 37.74 305.75 29.23 306.21 22.54 305.72
  A 0.36 0.35 -71.7 0 1 22.27 305.17
  L 25.75 299.72
  Q 64.64 293.34 102.24 292.57
  Q 125.38 292.09 147.18 300.78
  Q 149.06 301.53 151.40 303.84
  Z"
/>
<path fill="#b27f68" d="
  M 331.75 300.06
  L 334.81 305.34
  A 0.30 0.29 -15.0 0 1 334.55 305.78
  L 206.88 305.17
  Q 207.78 302.58 208.81 302.06
  Q 225.64 293.57 244.50 292.80
  C 267.14 291.86 290.37 294.18 312.75 297.00
  Q 321.94 298.16 331.75 300.06
  Z"
/>
<path fill="#ed7a33" d="
  M 181.50 321.80
  Q 173.04 322.73 166.55 318.22
  C 162.87 315.67 164.37 312.37 166.43 309.28
  C 173.49 298.70 188.84 302.64 193.05 313.49
  C 194.84 318.09 184.40 321.48 181.50 321.80
  Z"
/>
</svg>
