<?xml version="1.0" encoding="UTF-8" standalone="no"?>
<!DOCTYPE svg PUBLIC "-//W3C//DTD SVG 1.1//EN" "http://www.w3.org/Graphics/SVG/1.1/DTD/svg11.dtd">
<svg xmlns="http://www.w3.org/2000/svg" version="1.1" viewBox="0.00 0.00 332.00 335.00">
<g stroke-width="2.00" fill="none" stroke-linecap="butt">
<path stroke="#d1e6ec" vector-effect="non-scaling-stroke" d="
  M 161.45 69.94
  C 152.04 60.29 140.69 55.30 127.08 59.00
  Q 126.87 59.05 126.87 59.27
  L 126.87 59.72
  Q 126.87 60.12 127.27 60.10
  Q 131.22 59.90 132.35 62.89"
/>
<path stroke="#c4dfe6" vector-effect="non-scaling-stroke" d="
  M 119.80 114.46
  Q 100.66 117.37 97.55 134.46"
/>
<path stroke="#e1f4f7" vector-effect="non-scaling-stroke" d="
  M 119.57 186.42
  Q 117.19 185.46 115.12 183.75
  C 111.94 181.11 109.35 180.09 105.83 178.73
  Q 102.26 177.35 98.87 175.55
  C 95.02 173.49 93.83 170.12 91.68 165.55
  C 88.79 159.40 82.30 152.72 75.13 150.89
  C 71.91 150.07 68.18 150.35 68.04 154.49"
/>
<path stroke="#c4dfe6" vector-effect="non-scaling-stroke" d="
  M 75.09 168.20
  Q 73.83 174.58 69.25 177.06"
/>
<path stroke="#e1f4f7" vector-effect="non-scaling-stroke" d="
  M 69.25 177.06
  Q 67.98 177.34 67.44 176.73
  Q 67.05 176.27 67.31 175.25
  C 68.12 172.01 69.06 169.36 65.88 166.60
  Q 64.11 165.06 59.77 162.71
  C 53.12 159.10 47.76 148.63 45.53 141.59
  C 45.03 140.03 45.20 138.53 45.27 136.89
  A 0.50 0.50 0.0 0 0 44.73 136.37
  Q 44.19 136.42 43.82 136.79
  Q 43.55 137.05 43.17 137.07
  C 40.10 137.21 40.92 132.24 40.61 130.12
  A 1.42 1.40 -36.3 0 1 40.75 129.26
  Q 42.02 126.81 42.28 124.17"
/>
<path stroke="#97acb7" vector-effect="non-scaling-stroke" d="
  M 99.29 98.69
  Q 98.94 97.74 98.03 97.12"
/>
<path stroke="#bbd3de" vector-effect="non-scaling-stroke" d="
  M 98.03 97.12
  Q 97.96 96.62 97.50 96.42
  C 95.19 95.46 93.00 94.44 91.15 92.74
  Q 85.50 87.55 82.65 79.41"
/>
<path stroke="#538096" vector-effect="non-scaling-stroke" d="
  M 98.03 97.12
  Q 97.51 96.90 97.24 98.03"
/>
<path stroke="#9dc8d6" vector-effect="non-scaling-stroke" d="
  M 132.86 193.77
  Q 125.46 199.25 117.12 197.41
  C 113.00 196.49 108.02 191.99 104.04 192.89
  Q 102.44 193.26 100.18 195.54
  Q 95.93 199.83 88.15 205.87
  Q 85.53 207.90 85.72 212.17"
/>
<path stroke="#a5d3de" vector-effect="non-scaling-stroke" d="
  M 156.52 245.91
  Q 155.89 249.23 155.44 252.47
  C 152.77 271.68 132.39 277.19 117.13 268.41
  C 105.45 261.68 102.69 253.34 102.63 239.79"
/>
<path stroke="#9dc8d6" vector-effect="non-scaling-stroke" d="
  M 102.63 239.79
  L 102.35 234.55"
/>
<path stroke="#a5d3de" vector-effect="non-scaling-stroke" d="
  M 102.35 234.55
  Q 96.92 228.29 87.66 227.65
  C 83.83 227.38 80.49 224.96 77.90 222.60
  Q 72.16 217.37 66.20 213.91"
/>
<path stroke="#a5d3de" vector-effect="non-scaling-stroke" d="
  M 69.25 177.06
  C 64.00 180.63 57.31 177.85 53.49 173.67
  A 1.15 1.15 0.0 0 1 54.02 171.79
  Q 58.04 170.63 62.27 171.08
  Q 66.85 171.57 62.62 169.61
  Q 58.71 167.79 53.33 164.42
  C 44.73 159.03 41.58 148.57 37.73 139.22"
/>
<path stroke="#d1e6ec" vector-effect="non-scaling-stroke" d="
  M 161.32 145.49
  Q 160.68 146.06 160.64 147.06
  Q 160.62 147.50 160.45 147.09
  Q 160.37 146.88 160.39 146.63
  Q 160.39 146.62 160.39 146.62
  Q 160.38 146.62 160.38 146.62
  Q 160.37 146.62 160.37 146.63
  C 159.86 161.28 151.19 176.32 136.21 179.85
  Q 134.56 180.23 131.35 182.94"
/>
<path stroke="#e1f4f7" vector-effect="non-scaling-stroke" d="
  M 131.35 182.94
  L 127.88 182.57"
/>
<path stroke="#e1f4f7" vector-effect="non-scaling-stroke" d="
  M 135.04 136.20
  Q 134.09 135.51 132.93 135.50
  C 130.61 135.49 129.32 139.22 127.56 140.49
  Q 120.49 145.63 109.93 145.44"
/>
<path stroke="#80b3c4" vector-effect="non-scaling-stroke" d="
  M 102.35 234.55
  L 92.25 232.54
  Q 91.74 232.44 91.35 232.79
  Q 89.90 234.07 89.57 236.30"
/>
<path stroke="#5b8b9e" vector-effect="non-scaling-stroke" d="
  M 160.96 262.28
  Q 152.20 280.10 133.74 281.13
  C 123.59 281.69 114.45 278.32 107.19 271.32
  Q 99.71 264.11 97.48 256.27
  Q 96.74 253.65 96.02 244.71"
/>
<path stroke="#80b3c4" vector-effect="non-scaling-stroke" d="
  M 102.63 239.79
  C 102.31 242.28 99.60 242.61 97.65 242.02"
/>
<path stroke="#8dbaca" vector-effect="non-scaling-stroke" d="
  M 135.47 193.11
  Q 133.50 192.77 132.86 193.77"
/>
<path stroke="#b2dbe4" vector-effect="non-scaling-stroke" d="
  M 132.86 193.77
  Q 130.68 188.20 131.35 182.94"
/>
<path stroke="#d1e6ec" vector-effect="non-scaling-stroke" d="
  M 147.52 115.79
  Q 141.91 115.99 140.00 115.40
  Q 134.73 113.76 130.40 114.97"
/>
<path stroke="#80b3c4" vector-effect="non-scaling-stroke" d="
  M 71.03 226.21
  Q 72.39 225.92 73.26 226.35"
/>
<path stroke="#95c6d2" vector-effect="non-scaling-stroke" d="
  M 65.01 218.80
  Q 66.87 221.47 70.71 223.78
  Q 72.08 224.60 71.03 226.21"
/>
<path stroke="#8dbaca" vector-effect="non-scaling-stroke" d="
  M 71.03 226.21
  C 63.07 233.01 50.13 224.51 44.36 218.16
  Q 37.24 210.32 33.63 199.35"
/>
<path stroke="#b2dbe4" vector-effect="non-scaling-stroke" d="
  M 148.07 108.80
  Q 136.61 108.03 128.46 102.02
  C 124.75 99.28 122.27 93.80 120.35 89.72
  Q 120.10 89.17 119.71 89.11
  Q 119.32 89.05 118.74 89.23"
/>
<path stroke="#b2dbe4" vector-effect="non-scaling-stroke" d="
  M 55.58 214.94
  Q 43.91 209.27 37.15 199.61
  Q 34.23 195.42 33.66 189.57"
/>
<path stroke="#e1f4f7" vector-effect="non-scaling-stroke" d="
  M 160.16 102.74
  C 152.93 103.09 145.35 100.38 138.83 97.46
  Q 131.44 94.16 127.58 87.52
  A 1.55 1.55 0.0 0 0 125.69 86.85
  Q 123.07 87.85 120.26 88.68
  Q 119.14 89.01 118.93 87.77"
/>
<path stroke="#bbd3de" vector-effect="non-scaling-stroke" d="
  M 252.34 71.74
  Q 251.34 79.84 250.26 82.74
  Q 246.62 92.63 235.17 97.85"
/>
<path stroke="#e1f4f7" vector-effect="non-scaling-stroke" d="
  M 295.29 130.52
  C 294.97 132.05 294.07 135.34 291.88 134.77
  A 0.95 0.94 -76.9 0 0 290.72 135.50
  Q 288.67 145.82 282.75 154.21
  C 278.76 159.86 273.82 162.79 268.54 166.31
  Q 265.73 168.18 267.23 170.28
  A 1.63 1.62 -10.8 0 0 268.21 170.94
  Q 271.23 171.66 273.66 173.59
  A 0.97 0.97 0.0 0 1 273.77 175.02
  C 270.40 178.59 265.89 175.41 262.73 173.42
  Q 262.31 173.16 261.81 173.12
  Q 259.62 172.98 258.24 170.60"
/>
<path stroke="#e1f4f7" vector-effect="non-scaling-stroke" d="
  M 266.35 154.14
  Q 266.48 152.67 265.83 151.43
  A 1.05 1.03 81.4 0 0 265.14 150.91
  C 251.60 148.07 243.66 162.53 239.90 173.00
  C 237.86 178.68 222.33 178.16 218.59 184.33
  C 216.91 187.10 215.08 189.09 211.35 188.56
  C 206.41 187.87 207.33 185.48 205.42 182.29
  A 1.12 1.11 -9.4 0 0 204.69 181.77
  C 199.30 180.63 193.68 179.56 189.15 176.34
  Q 177.06 167.74 173.31 151.25"
/>
<path stroke="#c4dfe6" vector-effect="non-scaling-stroke" d="
  M 185.51 116.89
  Q 189.50 115.88 193.24 114.73
  Q 195.64 113.99 203.54 114.20"
/>
<path stroke="#e1f4f7" vector-effect="non-scaling-stroke" d="
  M 225.69 139.68
  Q 225.25 140.37 225.05 141.22
  C 223.47 148.02 210.97 144.49 207.21 142.14
  Q 206.16 141.49 204.14 139.11
  Q 202.30 136.94 199.71 136.04"
/>
<path stroke="#97acb7" vector-effect="non-scaling-stroke" d="
  M 234.60 130.02
  Q 234.84 130.16 235.01 130.13
  Q 235.49 130.06 235.34 129.60
  L 234.36 126.62"
/>
<path stroke="#bbd3de" vector-effect="non-scaling-stroke" d="
  M 234.36 126.62
  C 230.38 119.11 224.68 116.65 216.79 114.43
  A 0.53 0.53 0.0 0 1 216.46 113.70
  L 217.38 111.76"
/>
<path stroke="#e1f4f7" vector-effect="non-scaling-stroke" d="
  M 201.18 62.50
  Q 199.64 62.36 200.83 60.06
  A 1.55 1.55 0.0 0 0 199.51 57.80
  C 188.46 57.37 179.76 62.34 172.83 70.51"
/>
<path stroke="#538096" vector-effect="non-scaling-stroke" d="
  M 234.36 126.62
  Q 233.51 125.74 232.91 125.55
  Q 232.12 125.31 232.50 126.05
  L 234.28 129.58"
/>
<path stroke="#b2dbe4" vector-effect="non-scaling-stroke" d="
  M 268.55 213.22
  Q 263.36 215.72 258.47 219.96
  C 253.76 224.05 249.87 227.59 243.47 228.82
  Q 240.69 229.35 237.92 230.19"
/>
<path stroke="#9dc8d6" vector-effect="non-scaling-stroke" d="
  M 237.92 230.19
  Q 230.59 231.41 231.20 240.00"
/>
<path stroke="#a5d3de" vector-effect="non-scaling-stroke" d="
  M 231.20 240.00
  C 233.03 255.16 221.66 269.60 206.62 271.90
  C 197.22 273.34 183.87 268.86 180.18 258.50
  Q 178.27 253.12 176.90 247.06"
/>
<path stroke="#9dc8d6" vector-effect="non-scaling-stroke" d="
  M 246.92 210.25
  Q 251.05 211.21 251.00 209.27
  A 1.16 1.13 18.2 0 0 250.53 208.37
  Q 241.84 202.07 233.71 195.04
  C 231.48 193.11 229.34 192.92 226.53 194.25
  C 217.29 198.62 206.47 199.69 197.55 193.54"
/>
<path stroke="#9dc8d6" vector-effect="non-scaling-stroke" d="
  M 296.83 137.92
  C 295.80 141.29 295.57 144.93 294.37 147.92
  Q 288.08 163.48 272.74 170.20
  Q 271.66 170.68 272.80 170.97
  L 277.18 172.09"
/>
<path stroke="#a5d3de" vector-effect="non-scaling-stroke" d="
  M 277.18 172.09
  Q 278.01 174.52 277.51 177.54
  Q 277.43 178.05 276.99 178.32
  C 271.45 181.62 266.45 178.51 261.46 176.07
  A 0.86 0.86 0.0 0 0 260.27 176.55
  Q 259.73 177.97 257.46 178.57"
/>
<path stroke="#a5d3de" vector-effect="non-scaling-stroke" d="
  M 215.47 90.98
  Q 213.35 90.54 212.00 92.78
  Q 203.19 107.39 184.32 107.50"
/>
<path stroke="#8dbaca" vector-effect="non-scaling-stroke" d="
  M 300.77 202.69
  Q 299.64 203.30 298.96 204.52
  Q 298.89 204.63 298.76 204.63
  Q 298.62 204.63 298.48 204.63
  A 0.60 0.58 11.0 0 0 297.93 204.99
  Q 293.44 215.53 283.84 223.83
  C 278.44 228.49 270.26 230.66 264.08 226.27
  Q 263.64 225.97 263.14 226.14
  Q 262.43 226.37 262.34 227.29
  Q 262.29 227.75 261.94 228.06
  L 261.44 228.52"
/>
<path stroke="#8dbaca" vector-effect="non-scaling-stroke" d="
  M 242.71 236.16
  Q 241.55 233.61 239.27 231.53
  Q 239.15 231.42 239.05 231.30
  Q 238.72 230.90 238.98 230.76
  Q 239.25 230.61 239.07 230.37
  Q 238.80 229.98 237.92 230.19"
/>
<path stroke="#5b8b9e" vector-effect="non-scaling-stroke" d="
  M 238.07 245.32
  Q 237.41 264.55 222.68 274.95
  C 206.41 286.45 182.03 281.72 173.69 262.20"
/>
<path stroke="#80b3c4" vector-effect="non-scaling-stroke" d="
  M 236.42 242.32
  Q 232.68 241.55 231.20 240.00"
/>
<path stroke="#80b3c4" vector-effect="non-scaling-stroke" d="
  M 283.86 172.38
  L 277.18 172.09"
/>
<path stroke="#e1f4f7" vector-effect="non-scaling-stroke" d="
  M 215.22 88.27
  C 212.30 87.39 207.08 86.86 205.38 89.15
  Q 200.07 96.32 190.55 99.04
  Q 179.00 102.34 173.56 103.41"
/>
<path stroke="#b2dbe4" vector-effect="non-scaling-stroke" d="
  M 299.82 186.38
  C 299.61 193.94 299.36 196.70 295.58 202.25
  Q 293.55 205.23 291.19 207.52
  Q 285.63 212.92 278.80 217.09"
/>
<path stroke="#e1f4f7" vector-effect="non-scaling-stroke" d="
  M 281.35 89.08
  L 280.90 90.41
  Q 280.73 90.89 281.06 91.27
  Q 281.71 92.06 281.00 92.90
  A 0.94 0.91 -30.5 0 0 280.79 93.67
  Q 281.49 97.45 279.85 100.75
  C 276.23 108.00 271.88 114.43 263.14 116.88
  Q 260.21 117.71 253.78 116.17"
/>
<path stroke="#a5d3de" vector-effect="non-scaling-stroke" d="
  M 284.02 99.94
  C 281.20 108.49 276.89 117.89 266.76 119.06
  Q 261.54 119.66 255.42 119.72"
/>
<path stroke="#c4dfe6" vector-effect="non-scaling-stroke" d="
  M 80.99 113.94
  Q 78.70 115.07 77.04 117.42"
/>
<path stroke="#e1f4f7" vector-effect="non-scaling-stroke" d="
  M 77.04 117.42
  C 74.08 116.79 70.99 117.12 68.47 115.91
  C 63.02 113.33 54.75 104.71 53.13 98.83
  Q 52.34 95.96 51.43 94.34"
/>
<path stroke="#a5d3de" vector-effect="non-scaling-stroke" d="
  M 77.04 117.42
  C 65.05 125.66 55.46 111.48 50.53 102.71"
/>
<path stroke="#b2dbe4" vector-effect="non-scaling-stroke" d="
  M 186.86 195.41
  Q 176.54 206.46 181.42 220.00
  C 183.76 226.46 188.37 229.57 194.41 232.36
  Q 202.97 236.33 210.65 236.04"
/>
<path stroke="#b2dbe4" vector-effect="non-scaling-stroke" d="
  M 124.26 236.22
  Q 136.49 235.97 145.57 228.99
  C 155.92 221.03 157.16 208.17 149.45 197.54
  Q 148.97 196.87 149.30 195.79"
/>
<path stroke="#538096" vector-effect="non-scaling-stroke" d="
  M 252.21 268.67
  C 263.16 263.79 270.39 254.40 273.57 243.06"
/>
<path stroke="#5b8b9e" vector-effect="non-scaling-stroke" d="
  M 60.15 242.75
  C 64.33 254.62 69.74 261.51 81.50 267.44"
/>
</g>
<path fill="#ffffff" d="
  M 161.45 69.94
  C 152.04 60.29 140.69 55.30 127.08 59.00
  Q 126.87 59.05 126.87 59.27
  L 126.87 59.72
  Q 126.87 60.12 127.27 60.10
  Q 131.22 59.90 132.35 62.89
  C 107.55 67.96 98.63 98.39 119.80 114.46
  Q 100.66 117.37 97.55 134.46
  Q 96.31 142.21 98.56 147.23
  C 101.90 154.66 108.61 160.90 116.81 161.88
  Q 117.34 161.94 117.38 162.47
  Q 117.90 170.88 117.79 179.24
  Q 117.74 182.53 119.57 186.42
  Q 117.19 185.46 115.12 183.75
  C 111.94 181.11 109.35 180.09 105.83 178.73
  Q 102.26 177.35 98.87 175.55
  C 95.02 173.49 93.83 170.12 91.68 165.55
  C 88.79 159.40 82.30 152.72 75.13 150.89
  C 71.91 150.07 68.18 150.35 68.04 154.49
  C 66.06 156.04 65.07 158.35 66.65 160.57
  Q 67.77 162.13 68.38 162.41
  Q 73.12 164.60 75.09 168.20
  Q 73.83 174.58 69.25 177.06
  Q 67.98 177.34 67.44 176.73
  Q 67.05 176.27 67.31 175.25
  C 68.12 172.01 69.06 169.36 65.88 166.60
  Q 64.11 165.06 59.77 162.71
  C 53.12 159.10 47.76 148.63 45.53 141.59
  C 45.03 140.03 45.20 138.53 45.27 136.89
  A 0.50 0.50 0.0 0 0 44.73 136.37
  Q 44.19 136.42 43.82 136.79
  Q 43.55 137.05 43.17 137.07
  C 40.10 137.21 40.92 132.24 40.61 130.12
  A 1.42 1.40 -36.3 0 1 40.75 129.26
  Q 42.02 126.81 42.28 124.17
  Q 42.95 122.25 44.31 120.76
  Q 44.72 120.31 45.00 120.85
  C 53.36 137.01 72.10 142.76 85.85 128.60
  C 91.59 122.70 91.90 116.83 91.87 109.15
  Q 91.87 108.59 92.42 108.54
  C 95.00 108.34 97.15 108.93 99.72 107.50
  C 103.80 105.24 101.86 101.16 99.29 98.69
  Q 98.94 97.74 98.03 97.12
  Q 97.96 96.62 97.50 96.42
  C 95.19 95.46 93.00 94.44 91.15 92.74
  Q 85.50 87.55 82.65 79.41
  Q 81.27 71.95 84.44 64.01
  Q 89.23 52.00 100.47 47.04
  C 104.26 45.37 112.61 44.21 115.89 47.37
  C 118.56 49.93 119.46 54.41 124.45 52.49
  C 131.36 49.84 128.31 42.38 123.41 39.56
  Q 121.60 38.52 123.54 37.74
  C 134.02 33.49 145.26 34.62 154.07 42.44
  C 162.22 49.67 161.93 59.43 161.45 69.94
  Z"
/>
<path fill="#ffffff" d="
  M 252.34 71.74
  Q 251.34 79.84 250.26 82.74
  Q 246.62 92.63 235.17 97.85
  Q 232.20 101.01 232.31 103.04
  C 232.62 108.76 238.25 107.95 242.24 107.76
  Q 242.78 107.74 242.77 108.28
  C 242.44 118.66 244.50 126.81 253.65 132.62
  C 266.99 141.10 282.41 135.22 289.08 121.66
  A 0.94 0.94 0.0 0 1 290.68 121.52
  Q 293.74 125.66 295.29 130.52
  C 294.97 132.05 294.07 135.34 291.88 134.77
  A 0.95 0.94 -76.9 0 0 290.72 135.50
  Q 288.67 145.82 282.75 154.21
  C 278.76 159.86 273.82 162.79 268.54 166.31
  Q 265.73 168.18 267.23 170.28
  A 1.63 1.62 -10.8 0 0 268.21 170.94
  Q 271.23 171.66 273.66 173.59
  A 0.97 0.97 0.0 0 1 273.77 175.02
  C 270.40 178.59 265.89 175.41 262.73 173.42
  Q 262.31 173.16 261.81 173.12
  Q 259.62 172.98 258.24 170.60
  C 259.68 165.86 263.03 164.05 267.65 161.16
  C 270.54 159.36 268.48 156.04 266.35 154.14
  Q 266.48 152.67 265.83 151.43
  A 1.05 1.03 81.4 0 0 265.14 150.91
  C 251.60 148.07 243.66 162.53 239.90 173.00
  C 237.86 178.68 222.33 178.16 218.59 184.33
  C 216.91 187.10 215.08 189.09 211.35 188.56
  C 206.41 187.87 207.33 185.48 205.42 182.29
  A 1.12 1.11 -9.4 0 0 204.69 181.77
  C 199.30 180.63 193.68 179.56 189.15 176.34
  Q 177.06 167.74 173.31 151.25
  Q 172.76 144.00 173.23 139.75
  Q 174.42 128.94 181.75 120.98
  Q 183.74 118.82 185.51 116.89
  Q 189.50 115.88 193.24 114.73
  Q 195.64 113.99 203.54 114.20
  Q 203.08 131.62 219.74 132.27
  C 224.05 132.43 225.68 135.99 225.69 139.68
  Q 225.25 140.37 225.05 141.22
  C 223.47 148.02 210.97 144.49 207.21 142.14
  Q 206.16 141.49 204.14 139.11
  Q 202.30 136.94 199.71 136.04
  C 193.21 133.74 190.14 139.76 190.76 145.26
  C 191.74 153.99 197.87 159.13 205.79 161.69
  Q 206.27 161.84 206.28 162.34
  Q 206.64 172.23 206.52 182.12
  C 206.46 186.93 213.14 190.14 215.92 184.92
  Q 216.75 183.38 216.71 179.50
  Q 216.62 171.05 216.53 162.79
  A 0.58 0.57 -3.9 0 1 217.04 162.21
  C 229.17 160.87 238.99 148.94 237.16 137.00
  Q 236.97 135.80 235.76 131.41
  Q 235.64 130.97 235.24 130.73
  Q 234.92 130.54 234.60 130.02
  Q 234.84 130.16 235.01 130.13
  Q 235.49 130.06 235.34 129.60
  L 234.36 126.62
  C 230.38 119.11 224.68 116.65 216.79 114.43
  A 0.53 0.53 0.0 0 1 216.46 113.70
  L 217.38 111.76
  C 236.80 94.60 224.21 66.57 201.18 62.50
  Q 199.64 62.36 200.83 60.06
  A 1.55 1.55 0.0 0 0 199.51 57.80
  C 188.46 57.37 179.76 62.34 172.83 70.51
  Q 172.50 57.87 173.70 53.48
  C 178.22 37.02 195.76 31.74 210.44 38.07
  A 0.83 0.83 0.0 0 1 210.63 39.48
  C 207.59 41.87 204.06 45.17 206.54 49.50
  C 207.90 51.87 212.74 55.36 214.97 51.76
  C 216.69 48.99 218.64 46.46 222.03 45.75
  C 238.22 42.36 250.92 56.65 252.34 71.74
  Z"
/>
<path fill="#a2cdd8" d="
  M 161.45 69.94
  L 161.54 74.46
  Q 161.57 76.00 160.65 74.77
  Q 150.23 60.92 132.35 62.89
  Q 131.22 59.90 127.27 60.10
  Q 126.87 60.12 126.87 59.72
  L 126.87 59.27
  Q 126.87 59.05 127.08 59.00
  C 140.69 55.30 152.04 60.29 161.45 69.94
  Z"
/>
<path fill="#c2e8ef" d="
  M 201.18 62.50
  Q 183.28 60.98 173.22 75.20
  A 0.39 0.39 0.0 0 1 172.52 74.95
  L 172.83 70.51
  C 179.76 62.34 188.46 57.37 199.51 57.80
  A 1.55 1.55 0.0 0 1 200.83 60.06
  Q 199.64 62.36 201.18 62.50
  Z"
/>
<path fill="#77a7bc" d="
  M 252.34 71.74
  C 252.45 76.09 253.15 81.14 252.03 85.03
  C 250.77 89.40 248.07 94.11 244.31 97.04
  C 241.81 98.99 238.20 98.36 235.17 97.85
  Q 246.62 92.63 250.26 82.74
  Q 251.34 79.84 252.34 71.74
  Z"
/>
<path fill="#ffffff" d="
  M 160.16 102.74
  C 152.93 103.09 145.35 100.38 138.83 97.46
  Q 131.44 94.16 127.58 87.52
  A 1.55 1.55 0.0 0 0 125.69 86.85
  Q 123.07 87.85 120.26 88.68
  Q 119.14 89.01 118.93 87.77
  C 121.04 79.52 128.94 73.91 137.51 74.21
  C 151.58 74.70 161.90 89.31 160.16 102.74
  Z"
/>
<path fill="#ffffff" d="
  M 215.22 88.27
  C 212.30 87.39 207.08 86.86 205.38 89.15
  Q 200.07 96.32 190.55 99.04
  Q 179.00 102.34 173.56 103.41
  C 172.71 91.28 179.18 79.15 191.27 75.46
  C 201.31 72.40 212.78 77.58 215.22 88.27
  Z"
/>
<path fill="#ffffff" d="
  M 281.35 89.08
  L 280.90 90.41
  Q 280.73 90.89 281.06 91.27
  Q 281.71 92.06 281.00 92.90
  A 0.94 0.91 -30.5 0 0 280.79 93.67
  Q 281.49 97.45 279.85 100.75
  C 276.23 108.00 271.88 114.43 263.14 116.88
  Q 260.21 117.71 253.78 116.17
  Q 252.62 113.00 252.84 109.44
  A 1.60 1.60 0.0 0 1 254.74 107.98
  C 258.06 108.62 262.07 108.95 264.12 105.88
  C 265.97 103.11 264.83 99.85 261.84 98.59
  C 260.52 98.03 259.28 98.24 257.81 98.37
  Q 257.10 98.44 257.56 97.90
  C 263.30 91.14 263.19 83.72 262.69 75.39
  A 0.25 0.24 6.0 0 1 263.00 75.14
  Q 275.38 78.30 281.35 89.08
  Z"
/>
<path fill="#ffffff" d="
  M 80.99 113.94
  Q 78.70 115.07 77.04 117.42
  C 74.08 116.79 70.99 117.12 68.47 115.91
  C 63.02 113.33 54.75 104.71 53.13 98.83
  Q 52.34 95.96 51.43 94.34
  Q 55.21 79.75 70.74 75.03
  A 0.94 0.94 0.0 0 1 71.95 76.03
  Q 70.73 87.85 77.02 97.69
  A 0.33 0.33 0.0 0 1 76.78 98.20
  C 74.60 98.42 71.21 98.52 70.03 100.83
  C 68.88 103.10 69.53 105.82 71.49 107.37
  C 73.67 109.09 77.55 108.50 80.41 108.50
  Q 80.90 108.50 80.98 108.98
  Q 81.40 111.56 80.99 113.94
  Z"
/>
<path fill="#77a7bc" d="
  M 82.65 79.41
  Q 85.50 87.55 91.15 92.74
  C 93.00 94.44 95.19 95.46 97.50 96.42
  Q 97.96 96.62 98.03 97.12
  Q 97.51 96.90 97.24 98.03
  C 92.05 97.30 90.53 98.62 87.09 93.74
  Q 82.38 87.07 82.65 79.41
  Z"
/>
<path fill="#c2e8ef" d="
  M 160.16 102.74
  L 160.33 112.54
  A 0.65 0.65 0.0 0 1 159.10 112.85
  Q 157.58 109.87 154.90 108.36
  Q 151.55 106.47 148.07 108.80
  Q 136.61 108.03 128.46 102.02
  C 124.75 99.28 122.27 93.80 120.35 89.72
  Q 120.10 89.17 119.71 89.11
  Q 119.32 89.05 118.74 89.23
  Q 118.67 88.47 118.93 87.77
  Q 119.14 89.01 120.26 88.68
  Q 123.07 87.85 125.69 86.85
  A 1.55 1.55 0.0 0 1 127.58 87.52
  Q 131.44 94.16 138.83 97.46
  C 145.35 100.38 152.93 103.09 160.16 102.74
  Z"
/>
<path fill="#c2e8ef" d="
  M 215.22 88.27
  L 215.47 90.98
  Q 213.35 90.54 212.00 92.78
  Q 203.19 107.39 184.32 107.50
  Q 181.16 106.47 179.05 107.84
  Q 176.03 109.80 174.34 112.54
  Q 173.52 113.86 173.53 112.31
  L 173.56 103.41
  Q 179.00 102.34 190.55 99.04
  Q 200.07 96.32 205.38 89.15
  C 207.08 86.86 212.30 87.39 215.22 88.27
  Z"
/>
<path fill="#a2cdd8" d="
  M 118.74 89.23
  Q 119.32 89.05 119.71 89.11
  Q 120.10 89.17 120.35 89.72
  C 122.27 93.80 124.75 99.28 128.46 102.02
  Q 136.61 108.03 148.07 108.80
  Q 145.21 112.37 147.52 115.79
  Q 141.91 115.99 140.00 115.40
  Q 134.73 113.76 130.40 114.97
  Q 129.87 111.29 127.55 108.74
  C 122.19 102.83 116.63 97.48 118.74 89.23
  Z"
/>
<path fill="#c2e8ef" d="
  M 281.35 89.08
  Q 283.76 94.66 284.02 99.94
  C 281.20 108.49 276.89 117.89 266.76 119.06
  Q 261.54 119.66 255.42 119.72
  Q 254.23 118.56 253.78 116.17
  Q 260.21 117.71 263.14 116.88
  C 271.88 114.43 276.23 108.00 279.85 100.75
  Q 281.49 97.45 280.79 93.67
  A 0.94 0.91 -30.5 0 1 281.00 92.90
  Q 281.71 92.06 281.06 91.27
  Q 280.73 90.89 280.90 90.41
  L 281.35 89.08
  Z"
/>
<path fill="#88becc" d="
  M 215.47 90.98
  C 216.09 99.19 211.63 103.25 206.18 108.94
  Q 204.06 111.15 203.54 114.20
  Q 195.64 113.99 193.24 114.73
  Q 189.50 115.88 185.51 116.89
  Q 188.40 111.99 184.32 107.50
  Q 203.19 107.39 212.00 92.78
  Q 213.35 90.54 215.47 90.98
  Z"
/>
<path fill="#c2e8ef" d="
  M 51.43 94.34
  Q 52.34 95.96 53.13 98.83
  C 54.75 104.71 63.02 113.33 68.47 115.91
  C 70.99 117.12 74.08 116.79 77.04 117.42
  C 65.05 125.66 55.46 111.48 50.53 102.71
  Q 50.19 98.66 51.43 94.34
  Z"
/>
<path fill="#2e586f" d="
  M 98.03 97.12
  Q 98.94 97.74 99.29 98.69
  Q 98.04 98.51 97.24 98.03
  Q 97.51 96.90 98.03 97.12
  Z"
/>
<path fill="#88becc" d="
  M 284.02 99.94
  C 284.82 109.86 280.34 121.31 270.33 124.38
  Q 261.14 127.19 255.42 119.72
  Q 261.54 119.66 266.76 119.06
  C 276.89 117.89 281.20 108.49 284.02 99.94
  Z"
/>
<path fill="#88becc" d="
  M 50.53 102.71
  C 55.46 111.48 65.05 125.66 77.04 117.42
  Q 78.70 115.07 80.99 113.94
  C 79.70 124.33 68.22 128.37 60.07 122.42
  Q 50.34 115.32 50.53 102.71
  Z"
/>
<path fill="#77a7bc" d="
  M 217.38 111.76
  L 216.46 113.70
  A 0.53 0.53 0.0 0 0 216.79 114.43
  C 224.68 116.65 230.38 119.11 234.36 126.62
  Q 233.51 125.74 232.91 125.55
  Q 232.12 125.31 232.50 126.05
  L 234.28 129.58
  Q 229.84 123.66 223.19 121.72
  C 221.05 121.09 218.02 121.01 215.48 120.51
  Q 214.98 120.41 214.67 120.01
  C 212.12 116.77 214.43 113.78 217.38 111.76
  Z"
/>
<path fill="#88becc" d="
  M 119.80 114.46
  Q 119.86 116.97 119.58 118.78
  C 119.05 122.32 113.09 120.80 110.54 121.83
  Q 101.90 125.32 97.55 134.46
  Q 100.66 117.37 119.80 114.46
  Z"
/>
<path fill="#ffffff" d="
  M 147.52 115.79
  Q 162.13 126.60 161.32 145.49
  Q 160.68 146.06 160.64 147.06
  Q 160.62 147.50 160.45 147.09
  Q 160.37 146.88 160.39 146.63
  Q 160.39 146.62 160.39 146.62
  Q 160.38 146.62 160.38 146.62
  Q 160.37 146.62 160.37 146.63
  C 159.86 161.28 151.19 176.32 136.21 179.85
  Q 134.56 180.23 131.35 182.94
  L 127.88 182.57
  L 127.82 162.46
  Q 127.82 161.96 128.30 161.80
  C 136.99 158.95 147.59 148.49 142.34 138.40
  Q 140.00 133.92 135.04 136.20
  Q 134.09 135.51 132.93 135.50
  C 130.61 135.49 129.32 139.22 127.56 140.49
  Q 120.49 145.63 109.93 145.44
  Q 108.59 143.98 108.27 141.02
  Q 107.81 136.70 110.72 134.01
  C 113.01 131.89 116.19 133.03 119.04 132.03
  Q 130.64 127.97 130.40 114.97
  Q 134.73 113.76 140.00 115.40
  Q 141.91 115.99 147.52 115.79
  Z"
/>
<path fill="#c2e8ef" d="
  M 42.28 124.17
  Q 42.02 126.81 40.75 129.26
  A 1.42 1.40 -36.3 0 0 40.61 130.12
  C 40.92 132.24 40.10 137.21 43.17 137.07
  Q 43.55 137.05 43.82 136.79
  Q 44.19 136.42 44.73 136.37
  A 0.50 0.50 0.0 0 1 45.27 136.89
  C 45.20 138.53 45.03 140.03 45.53 141.59
  C 47.76 148.63 53.12 159.10 59.77 162.71
  Q 64.11 165.06 65.88 166.60
  C 69.06 169.36 68.12 172.01 67.31 175.25
  Q 67.05 176.27 67.44 176.73
  Q 67.98 177.34 69.25 177.06
  C 64.00 180.63 57.31 177.85 53.49 173.67
  A 1.15 1.15 0.0 0 1 54.02 171.79
  Q 58.04 170.63 62.27 171.08
  Q 66.85 171.57 62.62 169.61
  Q 58.71 167.79 53.33 164.42
  C 44.73 159.03 41.58 148.57 37.73 139.22
  Q 38.38 131.33 42.28 124.17
  Z"
/>
<path fill="#2e586f" d="
  M 234.36 126.62
  L 235.34 129.60
  Q 235.49 130.06 235.01 130.13
  Q 234.84 130.16 234.60 130.02
  Q 234.43 129.64 234.28 129.58
  L 232.50 126.05
  Q 232.12 125.31 232.91 125.55
  Q 233.51 125.74 234.36 126.62
  Z"
/>
<path fill="#c2e8ef" d="
  M 295.29 130.52
  L 296.83 137.92
  C 295.80 141.29 295.57 144.93 294.37 147.92
  Q 288.08 163.48 272.74 170.20
  Q 271.66 170.68 272.80 170.97
  L 277.18 172.09
  Q 278.01 174.52 277.51 177.54
  Q 277.43 178.05 276.99 178.32
  C 271.45 181.62 266.45 178.51 261.46 176.07
  A 0.86 0.86 0.0 0 0 260.27 176.55
  Q 259.73 177.97 257.46 178.57
  Q 256.94 174.41 258.24 170.60
  Q 259.62 172.98 261.81 173.12
  Q 262.31 173.16 262.73 173.42
  C 265.89 175.41 270.40 178.59 273.77 175.02
  A 0.97 0.97 0.0 0 0 273.66 173.59
  Q 271.23 171.66 268.21 170.94
  A 1.63 1.62 -10.8 0 1 267.23 170.28
  Q 265.73 168.18 268.54 166.31
  C 273.82 162.79 278.76 159.86 282.75 154.21
  Q 288.67 145.82 290.72 135.50
  A 0.95 0.94 -76.9 0 1 291.88 134.77
  C 294.07 135.34 294.97 132.05 295.29 130.52
  Z"
/>
<path fill="#c2e8ef" d="
  M 135.04 136.20
  Q 134.44 138.40 134.03 140.44
  C 132.80 146.54 129.85 150.45 123.26 151.41
  Q 115.13 152.58 109.93 145.44
  Q 120.49 145.63 127.56 140.49
  C 129.32 139.22 130.61 135.49 132.93 135.50
  Q 134.09 135.51 135.04 136.20
  Z"
/>
<path fill="#c2e8ef" d="
  M 199.71 136.04
  Q 202.30 136.94 204.14 139.11
  Q 206.16 141.49 207.21 142.14
  C 210.97 144.49 223.47 148.02 225.05 141.22
  Q 225.25 140.37 225.69 139.68
  C 226.64 152.57 208.41 154.97 202.20 145.80
  Q 199.53 141.84 199.71 136.04
  Z"
/>
<path fill="#77a7bc" d="
  M 296.83 137.92
  C 298.83 148.78 296.37 160.57 288.05 168.30
  Q 286.02 170.19 283.86 172.38
  L 277.18 172.09
  L 272.80 170.97
  Q 271.66 170.68 272.74 170.20
  Q 288.08 163.48 294.37 147.92
  C 295.57 144.93 295.80 141.29 296.83 137.92
  Z"
/>
<path fill="#88becc" d="
  M 37.73 139.22
  C 41.58 148.57 44.73 159.03 53.33 164.42
  Q 58.71 167.79 62.62 169.61
  Q 66.85 171.57 62.27 171.08
  Q 58.04 170.63 54.02 171.79
  A 1.15 1.15 0.0 0 0 53.49 173.67
  C 57.31 177.85 64.00 180.63 69.25 177.06
  Q 73.83 174.58 75.09 168.20
  C 83.68 184.58 62.79 195.17 51.77 182.82
  Q 47.62 178.18 50.79 172.60
  Q 51.04 172.16 50.70 171.79
  C 47.18 168.07 42.81 164.34 40.62 160.03
  Q 35.77 150.51 37.73 139.22
  Z"
/>
<path fill="#a2cdd8" d="
  M 161.32 145.49
  Q 161.62 155.34 161.48 165.24
  C 161.33 175.81 155.24 185.37 143.80 185.35
  C 137.84 185.35 136.22 187.29 135.47 193.11
  Q 133.50 192.77 132.86 193.77
  Q 130.68 188.20 131.35 182.94
  Q 134.56 180.23 136.21 179.85
  C 151.19 176.32 159.86 161.28 160.37 146.63
  Q 160.37 146.62 160.38 146.62
  Q 160.38 146.62 160.39 146.62
  Q 160.39 146.62 160.39 146.63
  Q 160.37 146.88 160.45 147.09
  Q 160.62 147.50 160.64 147.06
  Q 160.68 146.06 161.32 145.49
  Z"
/>
<path fill="#c2e8ef" d="
  M 119.57 186.42
  Q 122.26 189.44 125.05 187.05
  Q 127.09 185.30 127.88 182.57
  L 131.35 182.94
  Q 130.68 188.20 132.86 193.77
  Q 125.46 199.25 117.12 197.41
  C 113.00 196.49 108.02 191.99 104.04 192.89
  Q 102.44 193.26 100.18 195.54
  Q 95.93 199.83 88.15 205.87
  Q 85.53 207.90 85.72 212.17
  C 83.80 217.91 89.71 222.97 94.59 218.35
  C 97.97 215.16 101.78 213.64 106.29 215.69
  C 110.65 217.67 114.92 222.08 115.00 227.06
  Q 115.03 228.62 113.59 232.25
  C 110.12 241.00 111.01 252.16 117.77 259.06
  C 122.62 264.01 130.14 265.49 136.44 262.68
  C 142.45 260.01 143.64 255.59 144.77 249.75
  Q 145.09 248.14 147.36 246.38
  Q 151.73 242.99 156.52 245.91
  Q 155.89 249.23 155.44 252.47
  C 152.77 271.68 132.39 277.19 117.13 268.41
  C 105.45 261.68 102.69 253.34 102.63 239.79
  L 102.35 234.55
  Q 96.92 228.29 87.66 227.65
  C 83.83 227.38 80.49 224.96 77.90 222.60
  Q 72.16 217.37 66.20 213.91
  L 66.29 199.57
  Q 66.29 199.41 66.45 199.36
  C 71.26 198.05 75.46 196.81 79.14 193.76
  Q 90.66 184.21 86.46 168.28
  Q 84.12 159.38 76.07 154.97
  C 73.87 153.76 70.21 152.63 68.04 154.49
  C 68.18 150.35 71.91 150.07 75.13 150.89
  C 82.30 152.72 88.79 159.40 91.68 165.55
  C 93.83 170.12 95.02 173.49 98.87 175.55
  Q 102.26 177.35 105.83 178.73
  C 109.35 180.09 111.94 181.11 115.12 183.75
  Q 117.19 185.46 119.57 186.42
  Z"
/>
<path fill="#c2e8ef" d="
  M 266.35 154.14
  Q 260.46 152.03 254.64 156.64
  C 238.78 169.21 246.23 197.02 267.23 198.41
  A 1.36 1.35 1.8 0 1 268.49 199.75
  L 268.55 213.22
  Q 263.36 215.72 258.47 219.96
  C 253.76 224.05 249.87 227.59 243.47 228.82
  Q 240.69 229.35 237.92 230.19
  Q 230.59 231.41 231.20 240.00
  C 233.03 255.16 221.66 269.60 206.62 271.90
  C 197.22 273.34 183.87 268.86 180.18 258.50
  Q 178.27 253.12 176.90 247.06
  Q 178.81 244.56 181.00 244.25
  Q 185.86 243.56 188.97 248.24
  Q 189.23 248.63 189.24 249.09
  C 189.60 260.30 201.42 267.44 211.53 262.42
  C 222.62 256.93 225.83 243.46 220.94 232.46
  Q 219.42 229.05 219.37 227.31
  C 219.22 221.19 224.22 216.05 230.05 215.17
  C 234.49 214.51 238.42 217.12 241.80 219.78
  A 1.08 1.07 57.4 0 0 242.69 219.98
  C 247.29 218.92 250.81 214.79 246.92 210.25
  Q 251.05 211.21 251.00 209.27
  A 1.16 1.13 18.2 0 0 250.53 208.37
  Q 241.84 202.07 233.71 195.04
  C 231.48 193.11 229.34 192.92 226.53 194.25
  C 217.29 198.62 206.47 199.69 197.55 193.54
  C 197.82 182.31 190.93 187.78 184.63 184.24
  C 177.59 180.27 173.21 173.88 173.10 165.50
  Q 172.97 156.88 173.31 151.25
  Q 177.06 167.74 189.15 176.34
  C 193.68 179.56 199.30 180.63 204.69 181.77
  A 1.12 1.11 -9.4 0 1 205.42 182.29
  C 207.33 185.48 206.41 187.87 211.35 188.56
  C 215.08 189.09 216.91 187.10 218.59 184.33
  C 222.33 178.16 237.86 178.68 239.90 173.00
  C 243.66 162.53 251.60 148.07 265.14 150.91
  A 1.05 1.03 81.4 0 1 265.83 151.43
  Q 266.48 152.67 266.35 154.14
  Z"
/>
<path fill="#88becc" d="
  M 277.18 172.09
  L 283.86 172.38
  Q 286.94 178.13 282.17 183.18
  C 274.48 191.35 261.71 188.81 257.46 178.57
  Q 259.73 177.97 260.27 176.55
  A 0.86 0.86 0.0 0 1 261.46 176.07
  C 266.45 178.51 271.45 181.62 276.99 178.32
  Q 277.43 178.05 277.51 177.54
  Q 278.01 174.52 277.18 172.09
  Z"
/>
<path fill="#c2e8ef" d="
  M 299.82 186.38
  C 299.61 193.94 299.36 196.70 295.58 202.25
  Q 293.55 205.23 291.19 207.52
  Q 285.63 212.92 278.80 217.09
  L 278.57 199.30
  A 1.28 1.28 0.0 0 1 279.49 198.06
  Q 287.81 195.64 292.41 188.41
  C 294.84 184.58 295.24 180.66 294.99 176.20
  Q 294.78 172.38 296.53 175.78
  Q 298.86 180.32 299.82 186.38
  Z"
/>
<path fill="#c2e8ef" d="
  M 55.58 214.94
  Q 43.91 209.27 37.15 199.61
  Q 34.23 195.42 33.66 189.57
  Q 34.21 181.73 38.21 175.70
  Q 39.29 174.08 39.11 176.01
  C 38.17 186.26 46.27 194.68 54.98 198.58
  A 0.79 0.77 -78.8 0 1 55.44 199.28
  L 55.58 214.94
  Z"
/>
<path fill="#a2cdd8" d="
  M 299.82 186.38
  Q 301.45 194.44 300.77 202.69
  Q 299.64 203.30 298.96 204.52
  Q 298.89 204.63 298.76 204.63
  Q 298.62 204.63 298.48 204.63
  A 0.60 0.58 11.0 0 0 297.93 204.99
  Q 293.44 215.53 283.84 223.83
  C 278.44 228.49 270.26 230.66 264.08 226.27
  Q 263.64 225.97 263.14 226.14
  Q 262.43 226.37 262.34 227.29
  Q 262.29 227.75 261.94 228.06
  L 261.44 228.52
  Q 259.95 228.00 258.44 227.40
  C 254.29 225.73 253.11 230.04 254.31 232.98
  Q 255.46 235.77 257.22 237.83
  Q 257.88 238.60 257.30 239.43
  C 252.25 246.71 247.01 239.40 242.71 236.16
  Q 241.55 233.61 239.27 231.53
  Q 239.15 231.42 239.05 231.30
  Q 238.72 230.90 238.98 230.76
  Q 239.25 230.61 239.07 230.37
  Q 238.80 229.98 237.92 230.19
  Q 240.69 229.35 243.47 228.82
  C 249.87 227.59 253.76 224.05 258.47 219.96
  Q 263.36 215.72 268.55 213.22
  C 269.47 216.40 269.53 219.84 273.84 219.73
  Q 275.02 219.70 276.43 218.70
  Q 277.70 217.80 278.80 217.09
  Q 285.63 212.92 291.19 207.52
  Q 293.55 205.23 295.58 202.25
  C 299.36 196.70 299.61 193.94 299.82 186.38
  Z"
/>
<path fill="#a2cdd8" d="
  M 33.66 189.57
  Q 34.23 195.42 37.15 199.61
  Q 43.91 209.27 55.58 214.94
  Q 55.74 217.19 57.83 218.92
  Q 61.24 221.74 65.01 218.80
  Q 66.87 221.47 70.71 223.78
  Q 72.08 224.60 71.03 226.21
  C 63.07 233.01 50.13 224.51 44.36 218.16
  Q 37.24 210.32 33.63 199.35
  L 33.66 189.57
  Z"
/>
<path fill="#77a7bc" d="
  M 132.86 193.77
  Q 133.50 192.77 135.47 193.11
  C 135.51 198.60 131.01 201.41 126.08 202.44
  Q 117.06 204.32 107.20 199.81
  C 104.36 198.51 98.25 204.00 96.02 206.45
  Q 95.69 206.82 95.20 206.92
  Q 89.55 208.12 85.72 212.17
  Q 85.53 207.90 88.15 205.87
  Q 95.93 199.83 100.18 195.54
  Q 102.44 193.26 104.04 192.89
  C 108.02 191.99 113.00 196.49 117.12 197.41
  Q 125.46 199.25 132.86 193.77
  Z"
/>
<path fill="#77a7bc" d="
  M 246.92 210.25
  C 244.87 208.85 243.07 207.44 240.60 206.38
  Q 236.12 204.44 232.40 201.30
  C 230.05 199.30 227.96 198.53 225.26 199.96
  Q 214.04 205.91 202.56 200.40
  C 199.65 199.01 197.35 197.06 197.55 193.54
  C 206.47 199.69 217.29 198.62 226.53 194.25
  C 229.34 192.92 231.48 193.11 233.71 195.04
  Q 241.84 202.07 250.53 208.37
  A 1.16 1.13 18.2 0 1 251.00 209.27
  Q 251.05 211.21 246.92 210.25
  Z"
/>
<path fill="#a2cdd8" d="
  M 186.86 195.41
  Q 176.54 206.46 181.42 220.00
  C 183.76 226.46 188.37 229.57 194.41 232.36
  Q 202.97 236.33 210.65 236.04
  Q 214.63 242.02 211.52 248.58
  Q 210.16 251.45 208.08 252.52
  C 205.24 253.99 199.90 253.17 199.81 248.94
  C 199.76 246.29 199.87 243.47 198.47 241.22
  C 195.24 236.03 189.77 236.96 184.73 234.24
  Q 174.81 228.90 172.87 217.51
  C 171.93 212.00 173.21 195.93 181.45 195.41
  Q 184.13 195.23 186.86 195.41
  Z"
/>
<path fill="#a2cdd8" d="
  M 124.26 236.22
  Q 136.49 235.97 145.57 228.99
  C 155.92 221.03 157.16 208.17 149.45 197.54
  Q 148.97 196.87 149.30 195.79
  C 157.21 194.27 161.14 203.33 161.77 209.75
  C 163.09 223.37 155.31 233.81 141.75 236.75
  C 134.35 238.36 134.29 245.08 134.19 251.16
  A 1.89 1.88 -2.4 0 1 132.49 253.00
  C 128.17 253.41 124.23 253.09 122.69 248.27
  Q 120.54 241.55 124.26 236.22
  Z"
/>
<path fill="#c2e8ef" d="
  M 186.86 195.41
  C 189.46 196.74 189.17 200.54 190.54 202.81
  C 195.49 210.94 204.28 213.88 213.52 213.09
  Q 214.07 213.04 213.70 213.46
  Q 205.36 223.03 210.65 236.04
  Q 202.97 236.33 194.41 232.36
  C 188.37 229.57 183.76 226.46 181.42 220.00
  Q 176.54 206.46 186.86 195.41
  Z"
/>
<path fill="#c2e8ef" d="
  M 149.30 195.79
  Q 148.97 196.87 149.45 197.54
  C 157.16 208.17 155.92 221.03 145.57 228.99
  Q 136.49 235.97 124.26 236.22
  Q 129.81 223.21 119.90 213.22
  Q 119.48 212.78 120.08 212.84
  C 133.67 214.00 141.48 208.99 146.21 196.60
  Q 146.38 196.13 146.85 195.96
  Q 148.00 195.55 149.30 195.79
  Z"
/>
<path fill="#77a7bc" d="
  M 33.63 199.35
  Q 37.24 210.32 44.36 218.16
  C 50.13 224.51 63.07 233.01 71.03 226.21
  Q 72.39 225.92 73.26 226.35
  C 68.44 230.37 66.02 234.40 59.00 232.56
  C 50.85 230.43 44.18 226.73 39.25 218.76
  Q 33.90 210.13 33.63 199.35
  Z"
/>
<path fill="#77a7bc" d="
  M 300.77 202.69
  Q 298.74 221.88 282.50 230.30
  C 274.70 234.35 268.77 233.58 261.44 228.52
  L 261.94 228.06
  Q 262.29 227.75 262.34 227.29
  Q 262.43 226.37 263.14 226.14
  Q 263.64 225.97 264.08 226.27
  C 270.26 230.66 278.44 228.49 283.84 223.83
  Q 293.44 215.53 297.93 204.99
  A 0.60 0.58 11.0 0 1 298.48 204.63
  Q 298.62 204.63 298.76 204.63
  Q 298.89 204.63 298.96 204.52
  Q 299.64 203.30 300.77 202.69
  Z"
/>
<path fill="#88becc" d="
  M 66.20 213.91
  Q 72.16 217.37 77.90 222.60
  C 80.49 224.96 83.83 227.38 87.66 227.65
  Q 96.92 228.29 102.35 234.55
  L 92.25 232.54
  Q 91.74 232.44 91.35 232.79
  Q 89.90 234.07 89.57 236.30
  C 87.52 238.70 86.43 241.48 82.50 241.40
  Q 78.13 241.32 76.02 238.26
  Q 75.68 237.76 76.08 237.31
  C 78.44 234.64 81.21 231.15 78.38 227.88
  Q 76.65 225.89 73.26 226.35
  Q 72.39 225.92 71.03 226.21
  Q 72.08 224.60 70.71 223.78
  Q 66.87 221.47 65.01 218.80
  Q 66.39 216.74 66.20 213.91
  Z"
/>
<path fill="#77a7bc" d="
  M 237.92 230.19
  Q 238.80 229.98 239.07 230.37
  Q 239.25 230.61 238.98 230.76
  Q 238.72 230.90 239.05 231.30
  Q 239.15 231.42 239.27 231.53
  Q 241.55 233.61 242.71 236.16
  C 238.89 235.88 236.70 238.79 236.42 242.32
  Q 232.68 241.55 231.20 240.00
  Q 230.59 231.41 237.92 230.19
  Z"
/>
<path fill="#77a7bc" d="
  M 102.35 234.55
  L 102.63 239.79
  C 102.31 242.28 99.60 242.61 97.65 242.02
  C 98.26 237.59 93.70 233.29 89.57 236.30
  Q 89.90 234.07 91.35 232.79
  Q 91.74 232.44 92.25 232.54
  L 102.35 234.55
  Z"
/>
<path fill="#88becc" d="
  M 102.63 239.79
  C 102.69 253.34 105.45 261.68 117.13 268.41
  C 132.39 277.19 152.77 271.68 155.44 252.47
  Q 155.89 249.23 156.52 245.91
  Q 163.16 252.68 160.96 262.28
  Q 152.20 280.10 133.74 281.13
  C 123.59 281.69 114.45 278.32 107.19 271.32
  Q 99.71 264.11 97.48 256.27
  Q 96.74 253.65 96.02 244.71
  Q 96.49 243.43 97.65 242.02
  C 99.60 242.61 102.31 242.28 102.63 239.79
  Z"
/>
<path fill="#88becc" d="
  M 231.20 240.00
  Q 232.68 241.55 236.42 242.32
  L 238.07 245.32
  Q 237.41 264.55 222.68 274.95
  C 206.41 286.45 182.03 281.72 173.69 262.20
  Q 171.24 253.68 176.90 247.06
  Q 178.27 253.12 180.18 258.50
  C 183.87 268.86 197.22 273.34 206.62 271.90
  C 221.66 269.60 233.03 255.16 231.20 240.00
  Z"
/>
<path fill="#2e586f" d="
  M 252.21 268.67
  C 263.16 263.79 270.39 254.40 273.57 243.06
  Q 278.60 242.59 284.06 240.22
  A 1.06 1.06 0.0 0 1 285.53 241.36
  C 283.79 251.89 276.26 262.50 268.51 269.52
  Q 259.65 277.55 247.43 279.56
  Q 246.29 279.75 246.83 278.73
  L 252.21 268.67
  Z"
/>
<path fill="#2e586f" d="
  M 60.15 242.75
  C 64.33 254.62 69.74 261.51 81.50 267.44
  L 86.54 278.04
  Q 87.18 279.40 85.70 279.11
  C 68.43 275.75 55.42 261.50 50.43 245.00
  Q 49.93 243.32 49.95 241.79
  A 0.93 0.93 0.0 0 1 51.06 240.90
  L 60.15 242.75
  Z"
/>
<path fill="#88becc" d="
  M 81.50 267.44
  C 69.74 261.51 64.33 254.62 60.15 242.75
  L 66.19 243.26
  A 1.01 0.99 77.2 0 1 66.95 243.75
  Q 71.24 251.04 79.50 252.99
  A 0.97 0.97 0.0 0 1 80.25 253.96
  Q 80.11 260.48 81.50 267.44
  Z"
/>
<path fill="#77a7bc" d="
  M 273.57 243.06
  C 270.39 254.40 263.16 263.79 252.21 268.67
  Q 254.44 261.32 254.22 254.08
  Q 254.21 253.57 254.70 253.42
  C 260.15 251.72 263.06 248.47 266.11 243.88
  A 1.03 1.01 14.9 0 1 266.90 243.43
  L 273.57 243.06
  Z"
/>
<path fill="#2e586f" d="
  M 96.02 244.71
  Q 96.74 253.65 97.48 256.27
  Q 99.71 264.11 107.19 271.32
  C 114.45 278.32 123.59 281.69 133.74 281.13
  Q 152.20 280.10 160.96 262.28
  Q 164.03 277.32 153.12 287.87
  Q 150.09 290.80 146.80 292.26
  Q 131.22 299.16 115.53 292.48
  C 107.37 289.01 101.00 283.62 96.50 276.01
  C 93.19 270.42 90.21 264.65 90.28 258.51
  C 90.35 251.83 92.73 249.26 96.02 244.71
  Z"
/>
<path fill="#2e586f" d="
  M 238.07 245.32
  C 238.75 246.91 240.23 247.75 240.99 248.91
  C 243.77 253.13 243.52 258.73 242.42 263.47
  C 238.92 278.48 228.64 290.83 213.51 294.51
  C 199.31 297.97 184.82 293.87 176.53 281.45
  C 172.77 275.82 172.51 269.55 173.69 262.20
  C 182.03 281.72 206.41 286.45 222.68 274.95
  Q 237.41 264.55 238.07 245.32
  Z"
/>
</svg>
