<svg id="visual" viewBox="0 0 1920 1080" width="1920" height="1080" xmlns="http://www.w3.org/2000/svg" xmlns:xlink="http://www.w3.org/1999/xlink" version="1.1"><path d="M0 141L53.3 135.7C106.7 130.3 213.3 119.7 320 128.7C426.7 137.7 533.3 166.3 640 168.2C746.7 170 853.3 145 960 139.7C1066.7 134.3 1173.3 148.7 1280 152.2C1386.7 155.7 1493.3 148.3 1600 157.3C1706.7 166.3 1813.3 191.7 1866.7 204.3L1920 217L1920 0L1866.7 0C1813.3 0 1706.7 0 1600 0C1493.3 0 1386.7 0 1280 0C1173.3 0 1066.7 0 960 0C853.3 0 746.7 0 640 0C533.3 0 426.7 0 320 0C213.3 0 106.7 0 53.3 0L0 0Z" fill="#0a3244"></path><path d="M0 368L53.3 364.5C106.7 361 213.3 354 320 366.7C426.7 379.3 533.3 411.7 640 436.8C746.7 462 853.3 480 960 490.8C1066.7 501.7 1173.3 505.3 1280 485.5C1386.7 465.7 1493.3 422.3 1600 416.8C1706.7 411.3 1813.3 443.7 1866.7 459.8L1920 476L1920 215L1866.7 202.3C1813.3 189.7 1706.7 164.3 1600 155.3C1493.3 146.3 1386.7 153.7 1280 150.2C1173.3 146.7 1066.7 132.3 960 137.7C853.3 143 746.7 168 640 166.2C533.3 164.3 426.7 135.7 320 126.7C213.3 117.7 106.7 128.3 53.3 133.7L0 139Z" fill="#0a2c3d"></path><path d="M0 595L53.3 580.7C106.7 566.3 213.3 537.7 320 546.7C426.7 555.7 533.3 602.3 640 631C746.7 659.7 853.3 670.3 960 683C1066.7 695.7 1173.3 710.3 1280 696C1386.7 681.7 1493.3 638.3 1600 623.8C1706.7 609.3 1813.3 623.7 1866.7 630.8L1920 638L1920 474L1866.7 457.8C1813.3 441.7 1706.7 409.3 1600 414.8C1493.3 420.3 1386.7 463.7 1280 483.5C1173.3 503.3 1066.7 499.7 960 488.8C853.3 478 746.7 460 640 434.8C533.3 409.7 426.7 377.3 320 364.7C213.3 352 106.7 359 53.3 362.5L0 366Z" fill="#092736"></path><path d="M0 941L53.3 937.3C106.7 933.7 213.3 926.3 320 920.8C426.7 915.3 533.3 911.7 640 922.5C746.7 933.3 853.3 958.7 960 969.5C1066.7 980.3 1173.3 976.7 1280 967.7C1386.7 958.7 1493.3 944.3 1600 949.7C1706.7 955 1813.3 980 1866.7 992.5L1920 1005L1920 636L1866.7 628.8C1813.3 621.7 1706.7 607.3 1600 621.8C1493.3 636.3 1386.7 679.7 1280 694C1173.3 708.3 1066.7 693.7 960 681C853.3 668.3 746.7 657.7 640 629C533.3 600.3 426.7 553.7 320 544.7C213.3 535.7 106.7 564.3 53.3 578.7L0 593Z" fill="#08212f"></path><path d="M0 1081L53.3 1081C106.7 1081 213.3 1081 320 1081C426.7 1081 533.3 1081 640 1081C746.7 1081 853.3 1081 960 1081C1066.7 1081 1173.3 1081 1280 1081C1386.7 1081 1493.3 1081 1600 1081C1706.7 1081 1813.3 1081 1866.7 1081L1920 1081L1920 1003L1866.7 990.5C1813.3 978 1706.7 953 1600 947.7C1493.3 942.3 1386.7 956.7 1280 965.7C1173.3 974.7 1066.7 978.3 960 967.5C853.3 956.7 746.7 931.3 640 920.5C533.3 909.7 426.7 913.3 320 918.8C213.3 924.3 106.7 931.7 53.3 935.3L0 939Z" fill="#071c28"></path></svg>