<svg id="visual" viewBox="0 0 1920 1080" width="1920" height="1080" xmlns="http://www.w3.org/2000/svg" xmlns:xlink="http://www.w3.org/1999/xlink" version="1.1"><path d="M0 195L53.3 191.5C106.7 188 213.3 181 320 182.8C426.7 184.7 533.3 195.3 640 206.2C746.7 217 853.3 228 960 224.5C1066.7 221 1173.3 203 1280 185C1386.7 167 1493.3 149 1600 150.7C1706.7 152.3 1813.3 173.7 1866.7 184.3L1920 195L1920 0L1866.7 0C1813.3 0 1706.7 0 1600 0C1493.3 0 1386.7 0 1280 0C1173.3 0 1066.7 0 960 0C853.3 0 746.7 0 640 0C533.3 0 426.7 0 320 0C213.3 0 106.7 0 53.3 0L0 0Z" fill="#09212e"></path><path d="M0 314L53.3 315.8C106.7 317.7 213.3 321.3 320 326.8C426.7 332.3 533.3 339.7 640 355.8C746.7 372 853.3 397 960 393.3C1066.7 389.7 1173.3 357.3 1280 334C1386.7 310.7 1493.3 296.3 1600 298.2C1706.7 300 1813.3 318 1866.7 327L1920 336L1920 193L1866.7 182.3C1813.3 171.7 1706.7 150.3 1600 148.7C1493.3 147 1386.7 165 1280 183C1173.3 201 1066.7 219 960 222.5C853.3 226 746.7 215 640 204.2C533.3 193.3 426.7 182.7 320 180.8C213.3 179 106.7 186 53.3 189.5L0 193Z" fill="#0a2533"></path><path d="M0 649L53.3 661.7C106.7 674.3 213.3 699.7 320 697.8C426.7 696 533.3 667 640 652.5C746.7 638 853.3 638 960 627.2C1066.7 616.3 1173.3 594.7 1280 601.8C1386.7 609 1493.3 645 1600 672C1706.7 699 1813.3 717 1866.7 726L1920 735L1920 334L1866.7 325C1813.3 316 1706.7 298 1600 296.2C1493.3 294.3 1386.7 308.7 1280 332C1173.3 355.3 1066.7 387.7 960 391.3C853.3 395 746.7 370 640 353.8C533.3 337.7 426.7 330.3 320 324.8C213.3 319.3 106.7 315.7 53.3 313.8L0 312Z" fill="#0a2939"></path><path d="M0 941L53.3 939.2C106.7 937.3 213.3 933.7 320 933.7C426.7 933.7 533.3 937.3 640 942.7C746.7 948 853.3 955 960 958.5C1066.7 962 1173.3 962 1280 958.5C1386.7 955 1493.3 948 1600 946.2C1706.7 944.3 1813.3 947.7 1866.7 949.3L1920 951L1920 733L1866.7 724C1813.3 715 1706.7 697 1600 670C1493.3 643 1386.7 607 1280 599.8C1173.3 592.7 1066.7 614.3 960 625.2C853.3 636 746.7 636 640 650.5C533.3 665 426.7 694 320 695.8C213.3 697.7 106.7 672.3 53.3 659.7L0 647Z" fill="#0a2d3e"></path><path d="M0 1081L53.3 1081C106.7 1081 213.3 1081 320 1081C426.7 1081 533.3 1081 640 1081C746.7 1081 853.3 1081 960 1081C1066.7 1081 1173.3 1081 1280 1081C1386.7 1081 1493.3 1081 1600 1081C1706.7 1081 1813.3 1081 1866.7 1081L1920 1081L1920 949L1866.7 947.3C1813.3 945.7 1706.7 942.3 1600 944.2C1493.3 946 1386.7 953 1280 956.5C1173.3 960 1066.7 960 960 956.5C853.3 953 746.7 946 640 940.7C533.3 935.3 426.7 931.7 320 931.7C213.3 931.7 106.7 935.3 53.3 937.2L0 939Z" fill="#0a3244"></path></svg>