<svg id="visual" viewBox="0 0 1920 1080" width="1920" height="1080" xmlns="http://www.w3.org/2000/svg" xmlns:xlink="http://www.w3.org/1999/xlink" version="1.1"><path d="M0 314L64 308.7C128 303.3 256 292.7 384 281.8C512 271 640 260 768 240.2C896 220.3 1024 191.7 1152 188.2C1280 184.7 1408 206.3 1536 249.5C1664 292.7 1792 357.3 1856 389.7L1920 422L1920 0L1856 0C1792 0 1664 0 1536 0C1408 0 1280 0 1152 0C1024 0 896 0 768 0C640 0 512 0 384 0C256 0 128 0 64 0L0 0Z" fill="#0d4159"></path><path d="M0 390L64 381C128 372 256 354 384 346.8C512 339.7 640 343.3 768 330.7C896 318 1024 289 1152 281.7C1280 274.3 1408 288.7 1536 331.8C1664 375 1792 447 1856 483L1920 519L1920 420L1856 387.7C1792 355.3 1664 290.7 1536 247.5C1408 204.3 1280 182.7 1152 186.2C1024 189.7 896 218.3 768 238.2C640 258 512 269 384 279.8C256 290.7 128 301.3 64 306.7L0 312Z" fill="#0c3b50"></path><path d="M0 487L64 515.8C128 544.7 256 602.3 384 615C512 627.7 640 595.3 768 566.5C896 537.7 1024 512.3 1152 523C1280 533.7 1408 580.3 1536 598.3C1664 616.3 1792 605.7 1856 600.3L1920 595L1920 517L1856 481C1792 445 1664 373 1536 329.8C1408 286.7 1280 272.3 1152 279.7C1024 287 896 316 768 328.7C640 341.3 512 337.7 384 344.8C256 352 128 370 64 379L0 388Z" fill="#0a3548"></path><path d="M0 660L64 687C128 714 256 768 384 778.8C512 789.7 640 757.3 768 728.5C896 699.7 1024 674.3 1152 679.7C1280 685 1408 721 1536 737.2C1664 753.3 1792 749.7 1856 747.8L1920 746L1920 593L1856 598.3C1792 603.7 1664 614.3 1536 596.3C1408 578.3 1280 531.7 1152 521C1024 510.3 896 535.7 768 564.5C640 593.3 512 625.7 384 613C256 600.3 128 542.7 64 513.8L0 485Z" fill="#092f40"></path><path d="M0 757L64 773.2C128 789.3 256 821.7 384 839.7C512 857.7 640 861.3 768 845.2C896 829 1024 793 1152 798.3C1280 803.7 1408 850.3 1536 868.3C1664 886.3 1792 875.7 1856 870.3L1920 865L1920 744L1856 745.8C1792 747.7 1664 751.3 1536 735.2C1408 719 1280 683 1152 677.7C1024 672.3 896 697.7 768 726.5C640 755.3 512 787.7 384 776.8C256 766 128 712 64 685L0 658Z" fill="#082938"></path><path d="M0 1027L64 1021.7C128 1016.3 256 1005.7 384 991.3C512 977 640 959 768 953.5C896 948 1024 955 1152 969.3C1280 983.7 1408 1005.3 1536 1000C1664 994.7 1792 962.3 1856 946.2L1920 930L1920 863L1856 868.3C1792 873.7 1664 884.3 1536 866.3C1408 848.3 1280 801.7 1152 796.3C1024 791 896 827 768 843.2C640 859.3 512 855.7 384 837.7C256 819.7 128 787.3 64 771.2L0 755Z" fill="#072330"></path><path d="M0 1081L64 1081C128 1081 256 1081 384 1081C512 1081 640 1081 768 1081C896 1081 1024 1081 1152 1081C1280 1081 1408 1081 1536 1081C1664 1081 1792 1081 1856 1081L1920 1081L1920 928L1856 944.2C1792 960.3 1664 992.7 1536 998C1408 1003.3 1280 981.7 1152 967.3C1024 953 896 946 768 951.5C640 957 512 975 384 989.3C256 1003.7 128 1014.3 64 1019.7L0 1025Z" fill="#061d28"></path></svg>